<mxfile host="Electron" modified="2023-08-01T21:22:18.904Z" agent="Mozilla/5.0 (Windows NT 10.0; Win64; x64) AppleWebKit/537.36 (KHTML, like Gecko) draw.io/21.5.1 Chrome/112.0.5615.204 Electron/24.6.0 Safari/537.36" etag="lCQUlatyLMqRbAaYZCkz" version="21.5.1" type="device">
  <diagram id="zyraeVjW2Bd-Q2xlx6y6" name="Page-1">
    <mxGraphModel dx="1000" dy="599" grid="1" gridSize="10" guides="1" tooltips="1" connect="1" arrows="1" fold="1" page="1" pageScale="1" pageWidth="850" pageHeight="1100" math="0" shadow="0">
      <root>
        <mxCell id="0" />
        <mxCell id="1" parent="0" />
        <mxCell id="tMO71jz2EXLl-aefz__Y-21" value="" style="rounded=0;whiteSpace=wrap;html=1;" parent="1" vertex="1">
          <mxGeometry y="11110" width="480" height="1710" as="geometry" />
        </mxCell>
        <mxCell id="tMO71jz2EXLl-aefz__Y-18" value="" style="rounded=0;whiteSpace=wrap;html=1;fillColor=#5BCEFA;strokeColor=#000000;" parent="1" vertex="1">
          <mxGeometry x="240" y="11110" width="240" height="320" as="geometry" />
        </mxCell>
        <mxCell id="pdcznW-mLiutUTcBKjFM-1" value="" style="rounded=0;whiteSpace=wrap;html=1;fillColor=#f8cecc;strokeColor=#b85450;" parent="1" vertex="1">
          <mxGeometry y="8850" width="480" height="580" as="geometry" />
        </mxCell>
        <mxCell id="6q6do9RBU1fcBzbUBkZI-62" value="" style="rounded=0;whiteSpace=wrap;html=1;shadow=0;glass=0;fillColor=#FFE4E3;strokeColor=#C7B2B1;" parent="1" vertex="1">
          <mxGeometry x="240" y="8360" width="240" height="500" as="geometry" />
        </mxCell>
        <mxCell id="kPfp8V8Z2DP5ROhl0CX0-16" value="" style="rounded=0;whiteSpace=wrap;html=1;fillColor=#f8cecc;strokeColor=#b85450;" parent="1" vertex="1">
          <mxGeometry y="8360" width="360" height="490" as="geometry" />
        </mxCell>
        <mxCell id="Yns52e4Zez9bQJnsiGdB-30" value="" style="rounded=0;whiteSpace=wrap;html=1;fontSize=12;" parent="1" vertex="1">
          <mxGeometry width="480" height="250" as="geometry" />
        </mxCell>
        <mxCell id="Yns52e4Zez9bQJnsiGdB-31" value="" style="rounded=0;whiteSpace=wrap;html=1;strokeColor=#9673a6;fontSize=12;fillColor=#e1d5e7;gradientDirection=east;" parent="1" vertex="1">
          <mxGeometry y="250" width="480" height="530" as="geometry" />
        </mxCell>
        <mxCell id="aUdrs35P8sJ8jqEq29Yq-1" value="" style="rounded=0;whiteSpace=wrap;html=1;strokeColor=#9673a6;fontSize=12;fillColor=#e1d5e7;gradientDirection=east;" parent="1" vertex="1">
          <mxGeometry y="780" width="480" height="280" as="geometry" />
        </mxCell>
        <mxCell id="aUdrs35P8sJ8jqEq29Yq-2" value="" style="rounded=0;whiteSpace=wrap;html=1;strokeColor=#9673a6;fontSize=12;fillColor=#e1d5e7;gradientDirection=east;" parent="1" vertex="1">
          <mxGeometry y="1060" width="480" height="20" as="geometry" />
        </mxCell>
        <mxCell id="aUdrs35P8sJ8jqEq29Yq-3" value="" style="rounded=0;whiteSpace=wrap;html=1;strokeColor=#9673a6;fontSize=12;fillColor=#e1d5e7;gradientDirection=east;" parent="1" vertex="1">
          <mxGeometry y="1080" width="480" height="210" as="geometry" />
        </mxCell>
        <mxCell id="aUdrs35P8sJ8jqEq29Yq-4" value="" style="rounded=0;whiteSpace=wrap;html=1;strokeColor=#9673a6;fontSize=12;fillColor=#e1d5e7;gradientDirection=east;" parent="1" vertex="1">
          <mxGeometry y="1290" width="480" height="680" as="geometry" />
        </mxCell>
        <mxCell id="aUdrs35P8sJ8jqEq29Yq-5" value="" style="rounded=0;whiteSpace=wrap;html=1;strokeColor=#9673a6;fontSize=12;fillColor=#e1d5e7;gradientDirection=east;" parent="1" vertex="1">
          <mxGeometry y="1970" width="480" height="250" as="geometry" />
        </mxCell>
        <mxCell id="aUdrs35P8sJ8jqEq29Yq-6" value="" style="rounded=0;whiteSpace=wrap;html=1;strokeColor=#9673a6;fontSize=12;fillColor=#e1d5e7;gradientDirection=east;" parent="1" vertex="1">
          <mxGeometry y="2220" width="480" height="300" as="geometry" />
        </mxCell>
        <mxCell id="aUdrs35P8sJ8jqEq29Yq-7" value="" style="rounded=0;whiteSpace=wrap;html=1;strokeColor=#9673a6;fontSize=12;fillColor=#e1d5e7;gradientDirection=east;" parent="1" vertex="1">
          <mxGeometry y="2520" width="480" height="20" as="geometry" />
        </mxCell>
        <mxCell id="aUdrs35P8sJ8jqEq29Yq-8" value="" style="rounded=0;whiteSpace=wrap;html=1;strokeColor=#9673a6;fontSize=12;fillColor=#e1d5e7;gradientDirection=east;" parent="1" vertex="1">
          <mxGeometry y="2540" width="480" height="450" as="geometry" />
        </mxCell>
        <mxCell id="aUdrs35P8sJ8jqEq29Yq-9" value="" style="rounded=0;whiteSpace=wrap;html=1;strokeColor=#9673a6;fontSize=12;fillColor=#e1d5e7;gradientDirection=east;" parent="1" vertex="1">
          <mxGeometry y="2990" width="480" height="370" as="geometry" />
        </mxCell>
        <mxCell id="aUdrs35P8sJ8jqEq29Yq-11" value="Alexander I Pavo" style="text;html=1;strokeColor=none;fillColor=none;align=center;verticalAlign=middle;whiteSpace=wrap;rounded=0;" parent="1" vertex="1">
          <mxGeometry x="190" y="250" width="100" height="20" as="geometry" />
        </mxCell>
        <mxCell id="aUdrs35P8sJ8jqEq29Yq-12" value="Duncan I Pavo" style="text;html=1;strokeColor=none;fillColor=none;align=center;verticalAlign=middle;whiteSpace=wrap;rounded=0;" parent="1" vertex="1">
          <mxGeometry x="190" y="780" width="100" height="20" as="geometry" />
        </mxCell>
        <mxCell id="aUdrs35P8sJ8jqEq29Yq-13" value="Constantine I Pavo" style="text;html=1;strokeColor=none;fillColor=none;align=center;verticalAlign=middle;whiteSpace=wrap;rounded=0;" parent="1" vertex="1">
          <mxGeometry x="185" y="1060" width="110" height="20" as="geometry" />
        </mxCell>
        <mxCell id="aUdrs35P8sJ8jqEq29Yq-14" value="Simeon I Pavo" style="text;html=1;strokeColor=none;fillColor=none;align=center;verticalAlign=middle;whiteSpace=wrap;rounded=0;" parent="1" vertex="1">
          <mxGeometry x="190" y="1080" width="100" height="20" as="geometry" />
        </mxCell>
        <mxCell id="aUdrs35P8sJ8jqEq29Yq-15" value="Pavo I Pavo" style="text;html=1;strokeColor=none;fillColor=none;align=center;verticalAlign=middle;whiteSpace=wrap;rounded=0;" parent="1" vertex="1">
          <mxGeometry x="190" y="1290" width="100" height="20" as="geometry" />
        </mxCell>
        <mxCell id="aUdrs35P8sJ8jqEq29Yq-16" value="George I Pavo" style="text;html=1;strokeColor=none;fillColor=none;align=center;verticalAlign=middle;whiteSpace=wrap;rounded=0;" parent="1" vertex="1">
          <mxGeometry x="190" y="1970" width="100" height="20" as="geometry" />
        </mxCell>
        <mxCell id="aUdrs35P8sJ8jqEq29Yq-17" value="Pavo II Pavo" style="text;html=1;strokeColor=none;fillColor=none;align=center;verticalAlign=middle;whiteSpace=wrap;rounded=0;" parent="1" vertex="1">
          <mxGeometry x="190" y="2220" width="100" height="20" as="geometry" />
        </mxCell>
        <mxCell id="aUdrs35P8sJ8jqEq29Yq-18" value="" style="endArrow=none;html=1;rounded=0;exitX=1;exitY=0;exitDx=0;exitDy=0;" parent="1" source="Yns52e4Zez9bQJnsiGdB-30" edge="1">
          <mxGeometry width="50" height="50" relative="1" as="geometry">
            <mxPoint x="500" y="40" as="sourcePoint" />
            <mxPoint x="520" as="targetPoint" />
          </mxGeometry>
        </mxCell>
        <mxCell id="aUdrs35P8sJ8jqEq29Yq-19" value="" style="endArrow=none;html=1;rounded=0;entryX=1;entryY=0.4;entryDx=0;entryDy=0;entryPerimeter=0;" parent="1" target="Yns52e4Zez9bQJnsiGdB-30" edge="1">
          <mxGeometry width="50" height="50" relative="1" as="geometry">
            <mxPoint x="520" y="100" as="sourcePoint" />
            <mxPoint x="500" y="100" as="targetPoint" />
          </mxGeometry>
        </mxCell>
        <mxCell id="aUdrs35P8sJ8jqEq29Yq-20" value="" style="endArrow=none;html=1;rounded=0;exitX=1;exitY=0;exitDx=0;exitDy=0;" parent="1" edge="1">
          <mxGeometry width="50" height="50" relative="1" as="geometry">
            <mxPoint x="480" y="200" as="sourcePoint" />
            <mxPoint x="520" y="200" as="targetPoint" />
          </mxGeometry>
        </mxCell>
        <mxCell id="aUdrs35P8sJ8jqEq29Yq-21" value="" style="endArrow=none;html=1;rounded=0;entryX=1;entryY=0.4;entryDx=0;entryDy=0;entryPerimeter=0;" parent="1" edge="1">
          <mxGeometry width="50" height="50" relative="1" as="geometry">
            <mxPoint x="520" y="300.00000000000006" as="sourcePoint" />
            <mxPoint x="480" y="300.00000000000006" as="targetPoint" />
          </mxGeometry>
        </mxCell>
        <mxCell id="aUdrs35P8sJ8jqEq29Yq-22" value="" style="endArrow=none;html=1;rounded=0;exitX=1;exitY=0;exitDx=0;exitDy=0;" parent="1" edge="1">
          <mxGeometry width="50" height="50" relative="1" as="geometry">
            <mxPoint x="480" y="400" as="sourcePoint" />
            <mxPoint x="520" y="400" as="targetPoint" />
          </mxGeometry>
        </mxCell>
        <mxCell id="aUdrs35P8sJ8jqEq29Yq-23" value="" style="endArrow=none;html=1;rounded=0;entryX=1;entryY=0.4;entryDx=0;entryDy=0;entryPerimeter=0;" parent="1" edge="1">
          <mxGeometry width="50" height="50" relative="1" as="geometry">
            <mxPoint x="520" y="500" as="sourcePoint" />
            <mxPoint x="480" y="500" as="targetPoint" />
          </mxGeometry>
        </mxCell>
        <mxCell id="aUdrs35P8sJ8jqEq29Yq-24" value="" style="endArrow=none;html=1;rounded=0;exitX=1;exitY=0;exitDx=0;exitDy=0;" parent="1" edge="1">
          <mxGeometry width="50" height="50" relative="1" as="geometry">
            <mxPoint x="480" y="600" as="sourcePoint" />
            <mxPoint x="520" y="600" as="targetPoint" />
          </mxGeometry>
        </mxCell>
        <mxCell id="aUdrs35P8sJ8jqEq29Yq-25" value="" style="endArrow=none;html=1;rounded=0;entryX=1;entryY=0.4;entryDx=0;entryDy=0;entryPerimeter=0;" parent="1" edge="1">
          <mxGeometry width="50" height="50" relative="1" as="geometry">
            <mxPoint x="520" y="700" as="sourcePoint" />
            <mxPoint x="480" y="700" as="targetPoint" />
          </mxGeometry>
        </mxCell>
        <mxCell id="aUdrs35P8sJ8jqEq29Yq-26" value="" style="endArrow=none;html=1;rounded=0;exitX=1;exitY=0;exitDx=0;exitDy=0;" parent="1" edge="1">
          <mxGeometry width="50" height="50" relative="1" as="geometry">
            <mxPoint x="480" y="800" as="sourcePoint" />
            <mxPoint x="520" y="800" as="targetPoint" />
          </mxGeometry>
        </mxCell>
        <mxCell id="aUdrs35P8sJ8jqEq29Yq-27" value="" style="endArrow=none;html=1;rounded=0;entryX=1;entryY=0.4;entryDx=0;entryDy=0;entryPerimeter=0;" parent="1" edge="1">
          <mxGeometry width="50" height="50" relative="1" as="geometry">
            <mxPoint x="520" y="900" as="sourcePoint" />
            <mxPoint x="480" y="900" as="targetPoint" />
          </mxGeometry>
        </mxCell>
        <mxCell id="aUdrs35P8sJ8jqEq29Yq-28" value="" style="endArrow=none;html=1;rounded=0;exitX=1;exitY=0;exitDx=0;exitDy=0;align=left;" parent="1" edge="1">
          <mxGeometry width="50" height="50" relative="1" as="geometry">
            <mxPoint x="480" y="1000" as="sourcePoint" />
            <mxPoint x="520" y="1000" as="targetPoint" />
          </mxGeometry>
        </mxCell>
        <mxCell id="aUdrs35P8sJ8jqEq29Yq-29" value="" style="endArrow=none;html=1;rounded=0;entryX=1;entryY=0.4;entryDx=0;entryDy=0;entryPerimeter=0;align=left;" parent="1" edge="1">
          <mxGeometry width="50" height="50" relative="1" as="geometry">
            <mxPoint x="520" y="1100" as="sourcePoint" />
            <mxPoint x="480" y="1100" as="targetPoint" />
          </mxGeometry>
        </mxCell>
        <mxCell id="aUdrs35P8sJ8jqEq29Yq-30" value="" style="endArrow=none;html=1;rounded=0;exitX=1;exitY=0;exitDx=0;exitDy=0;align=left;" parent="1" edge="1">
          <mxGeometry width="50" height="50" relative="1" as="geometry">
            <mxPoint x="480" y="1200" as="sourcePoint" />
            <mxPoint x="520" y="1200" as="targetPoint" />
          </mxGeometry>
        </mxCell>
        <mxCell id="aUdrs35P8sJ8jqEq29Yq-31" value="" style="endArrow=none;html=1;rounded=0;entryX=1;entryY=0.4;entryDx=0;entryDy=0;entryPerimeter=0;align=left;" parent="1" edge="1">
          <mxGeometry width="50" height="50" relative="1" as="geometry">
            <mxPoint x="520" y="1300" as="sourcePoint" />
            <mxPoint x="480" y="1300" as="targetPoint" />
          </mxGeometry>
        </mxCell>
        <mxCell id="aUdrs35P8sJ8jqEq29Yq-32" value="" style="endArrow=none;html=1;rounded=0;exitX=1;exitY=0;exitDx=0;exitDy=0;align=left;" parent="1" edge="1">
          <mxGeometry width="50" height="50" relative="1" as="geometry">
            <mxPoint x="480" y="1400" as="sourcePoint" />
            <mxPoint x="520" y="1400" as="targetPoint" />
          </mxGeometry>
        </mxCell>
        <mxCell id="aUdrs35P8sJ8jqEq29Yq-33" value="" style="endArrow=none;html=1;rounded=0;entryX=1;entryY=0.4;entryDx=0;entryDy=0;entryPerimeter=0;align=left;" parent="1" edge="1">
          <mxGeometry width="50" height="50" relative="1" as="geometry">
            <mxPoint x="520" y="1500" as="sourcePoint" />
            <mxPoint x="480" y="1500" as="targetPoint" />
          </mxGeometry>
        </mxCell>
        <mxCell id="aUdrs35P8sJ8jqEq29Yq-34" value="" style="endArrow=none;html=1;rounded=0;exitX=1;exitY=0;exitDx=0;exitDy=0;align=left;" parent="1" edge="1">
          <mxGeometry width="50" height="50" relative="1" as="geometry">
            <mxPoint x="480" y="1600" as="sourcePoint" />
            <mxPoint x="520" y="1600" as="targetPoint" />
          </mxGeometry>
        </mxCell>
        <mxCell id="aUdrs35P8sJ8jqEq29Yq-35" value="" style="endArrow=none;html=1;rounded=0;entryX=1;entryY=0.4;entryDx=0;entryDy=0;entryPerimeter=0;align=left;" parent="1" edge="1">
          <mxGeometry width="50" height="50" relative="1" as="geometry">
            <mxPoint x="520" y="1700" as="sourcePoint" />
            <mxPoint x="480" y="1700" as="targetPoint" />
          </mxGeometry>
        </mxCell>
        <mxCell id="aUdrs35P8sJ8jqEq29Yq-36" value="" style="endArrow=none;html=1;rounded=0;exitX=1;exitY=0;exitDx=0;exitDy=0;align=left;" parent="1" edge="1">
          <mxGeometry width="50" height="50" relative="1" as="geometry">
            <mxPoint x="480" y="1800" as="sourcePoint" />
            <mxPoint x="520" y="1800" as="targetPoint" />
          </mxGeometry>
        </mxCell>
        <mxCell id="aUdrs35P8sJ8jqEq29Yq-37" value="" style="endArrow=none;html=1;rounded=0;entryX=1;entryY=0.4;entryDx=0;entryDy=0;entryPerimeter=0;align=left;" parent="1" edge="1">
          <mxGeometry width="50" height="50" relative="1" as="geometry">
            <mxPoint x="520" y="1900" as="sourcePoint" />
            <mxPoint x="480" y="1900" as="targetPoint" />
          </mxGeometry>
        </mxCell>
        <mxCell id="aUdrs35P8sJ8jqEq29Yq-38" value="" style="endArrow=none;html=1;rounded=0;exitX=1;exitY=0;exitDx=0;exitDy=0;align=left;" parent="1" edge="1">
          <mxGeometry width="50" height="50" relative="1" as="geometry">
            <mxPoint x="480" y="2000" as="sourcePoint" />
            <mxPoint x="520" y="2000" as="targetPoint" />
          </mxGeometry>
        </mxCell>
        <mxCell id="aUdrs35P8sJ8jqEq29Yq-39" value="" style="endArrow=none;html=1;rounded=0;entryX=1;entryY=0.4;entryDx=0;entryDy=0;entryPerimeter=0;align=left;" parent="1" edge="1">
          <mxGeometry width="50" height="50" relative="1" as="geometry">
            <mxPoint x="520" y="2100" as="sourcePoint" />
            <mxPoint x="480" y="2100" as="targetPoint" />
          </mxGeometry>
        </mxCell>
        <mxCell id="aUdrs35P8sJ8jqEq29Yq-40" value="" style="endArrow=none;html=1;rounded=0;exitX=1;exitY=0;exitDx=0;exitDy=0;align=left;" parent="1" edge="1">
          <mxGeometry width="50" height="50" relative="1" as="geometry">
            <mxPoint x="480" y="2200" as="sourcePoint" />
            <mxPoint x="520" y="2200" as="targetPoint" />
          </mxGeometry>
        </mxCell>
        <mxCell id="aUdrs35P8sJ8jqEq29Yq-41" value="" style="endArrow=none;html=1;rounded=0;entryX=1;entryY=0.4;entryDx=0;entryDy=0;entryPerimeter=0;align=left;" parent="1" edge="1">
          <mxGeometry width="50" height="50" relative="1" as="geometry">
            <mxPoint x="520" y="2300" as="sourcePoint" />
            <mxPoint x="480" y="2300" as="targetPoint" />
          </mxGeometry>
        </mxCell>
        <mxCell id="aUdrs35P8sJ8jqEq29Yq-42" value="" style="endArrow=none;html=1;rounded=0;exitX=1;exitY=0;exitDx=0;exitDy=0;align=left;" parent="1" edge="1">
          <mxGeometry width="50" height="50" relative="1" as="geometry">
            <mxPoint x="480" y="2400" as="sourcePoint" />
            <mxPoint x="520" y="2400" as="targetPoint" />
          </mxGeometry>
        </mxCell>
        <mxCell id="aUdrs35P8sJ8jqEq29Yq-43" value="" style="endArrow=none;html=1;rounded=0;entryX=1;entryY=0.4;entryDx=0;entryDy=0;entryPerimeter=0;align=left;" parent="1" edge="1">
          <mxGeometry width="50" height="50" relative="1" as="geometry">
            <mxPoint x="520" y="2500" as="sourcePoint" />
            <mxPoint x="480" y="2500" as="targetPoint" />
          </mxGeometry>
        </mxCell>
        <mxCell id="aUdrs35P8sJ8jqEq29Yq-44" value="" style="endArrow=none;html=1;rounded=0;exitX=1;exitY=0;exitDx=0;exitDy=0;align=left;" parent="1" edge="1">
          <mxGeometry width="50" height="50" relative="1" as="geometry">
            <mxPoint x="480" y="2600" as="sourcePoint" />
            <mxPoint x="520" y="2600" as="targetPoint" />
          </mxGeometry>
        </mxCell>
        <mxCell id="aUdrs35P8sJ8jqEq29Yq-45" value="" style="endArrow=none;html=1;rounded=0;entryX=1;entryY=0.4;entryDx=0;entryDy=0;entryPerimeter=0;align=left;" parent="1" edge="1">
          <mxGeometry width="50" height="50" relative="1" as="geometry">
            <mxPoint x="520" y="2700" as="sourcePoint" />
            <mxPoint x="480" y="2700" as="targetPoint" />
          </mxGeometry>
        </mxCell>
        <mxCell id="aUdrs35P8sJ8jqEq29Yq-46" value="" style="endArrow=none;html=1;rounded=0;exitX=1;exitY=0;exitDx=0;exitDy=0;align=left;" parent="1" edge="1">
          <mxGeometry width="50" height="50" relative="1" as="geometry">
            <mxPoint x="480" y="2800" as="sourcePoint" />
            <mxPoint x="520" y="2800" as="targetPoint" />
          </mxGeometry>
        </mxCell>
        <mxCell id="aUdrs35P8sJ8jqEq29Yq-47" value="" style="endArrow=none;html=1;rounded=0;entryX=1;entryY=0.4;entryDx=0;entryDy=0;entryPerimeter=0;align=left;" parent="1" edge="1">
          <mxGeometry width="50" height="50" relative="1" as="geometry">
            <mxPoint x="520" y="2900" as="sourcePoint" />
            <mxPoint x="480" y="2900" as="targetPoint" />
          </mxGeometry>
        </mxCell>
        <mxCell id="aUdrs35P8sJ8jqEq29Yq-48" value="" style="endArrow=none;html=1;rounded=0;exitX=1;exitY=0;exitDx=0;exitDy=0;align=left;" parent="1" edge="1">
          <mxGeometry width="50" height="50" relative="1" as="geometry">
            <mxPoint x="480" y="3000" as="sourcePoint" />
            <mxPoint x="520" y="3000" as="targetPoint" />
          </mxGeometry>
        </mxCell>
        <mxCell id="aUdrs35P8sJ8jqEq29Yq-49" value="" style="endArrow=none;html=1;rounded=0;entryX=1;entryY=0.4;entryDx=0;entryDy=0;entryPerimeter=0;align=left;" parent="1" edge="1">
          <mxGeometry width="50" height="50" relative="1" as="geometry">
            <mxPoint x="520" y="3100" as="sourcePoint" />
            <mxPoint x="480" y="3100" as="targetPoint" />
          </mxGeometry>
        </mxCell>
        <mxCell id="aUdrs35P8sJ8jqEq29Yq-50" value="" style="endArrow=none;html=1;rounded=0;exitX=1;exitY=0;exitDx=0;exitDy=0;align=left;" parent="1" edge="1">
          <mxGeometry width="50" height="50" relative="1" as="geometry">
            <mxPoint x="480" y="3200" as="sourcePoint" />
            <mxPoint x="520" y="3200" as="targetPoint" />
          </mxGeometry>
        </mxCell>
        <mxCell id="aUdrs35P8sJ8jqEq29Yq-51" value="" style="endArrow=none;html=1;rounded=0;entryX=1;entryY=0.4;entryDx=0;entryDy=0;entryPerimeter=0;align=left;" parent="1" edge="1">
          <mxGeometry width="50" height="50" relative="1" as="geometry">
            <mxPoint x="520" y="3300" as="sourcePoint" />
            <mxPoint x="480" y="3300" as="targetPoint" />
          </mxGeometry>
        </mxCell>
        <mxCell id="aUdrs35P8sJ8jqEq29Yq-52" value="" style="endArrow=none;html=1;rounded=0;exitX=1;exitY=0;exitDx=0;exitDy=0;align=left;" parent="1" edge="1">
          <mxGeometry width="50" height="50" relative="1" as="geometry">
            <mxPoint x="480" y="3400" as="sourcePoint" />
            <mxPoint x="520" y="3400" as="targetPoint" />
          </mxGeometry>
        </mxCell>
        <mxCell id="aUdrs35P8sJ8jqEq29Yq-53" value="" style="endArrow=none;html=1;rounded=0;entryX=1;entryY=0.4;entryDx=0;entryDy=0;entryPerimeter=0;align=left;" parent="1" edge="1">
          <mxGeometry width="50" height="50" relative="1" as="geometry">
            <mxPoint x="520" y="3500" as="sourcePoint" />
            <mxPoint x="480" y="3500" as="targetPoint" />
          </mxGeometry>
        </mxCell>
        <mxCell id="aUdrs35P8sJ8jqEq29Yq-54" value="&lt;b&gt;1-10&lt;br&gt;&lt;/b&gt;1- Landing&lt;br&gt;5- Birth of Alexander I Pavo" style="text;html=1;strokeColor=none;fillColor=none;align=left;verticalAlign=middle;whiteSpace=wrap;rounded=0;" parent="1" vertex="1">
          <mxGeometry x="480" width="160" height="100" as="geometry" />
        </mxCell>
        <mxCell id="aUdrs35P8sJ8jqEq29Yq-55" value="&lt;b&gt;11-20&lt;/b&gt;" style="text;html=1;strokeColor=none;fillColor=none;align=left;verticalAlign=middle;whiteSpace=wrap;rounded=0;" parent="1" vertex="1">
          <mxGeometry x="480" y="100" width="160" height="100" as="geometry" />
        </mxCell>
        <mxCell id="aUdrs35P8sJ8jqEq29Yq-56" value="&lt;b&gt;21-30&lt;/b&gt;&lt;br&gt;25- Founding of Sulyion&lt;br&gt;25- Alexander I Pavo crowned&lt;br&gt;25- Onesos declared capital" style="text;html=1;strokeColor=none;fillColor=none;align=left;verticalAlign=middle;whiteSpace=wrap;rounded=0;" parent="1" vertex="1">
          <mxGeometry x="480" y="200" width="170" height="100" as="geometry" />
        </mxCell>
        <mxCell id="aUdrs35P8sJ8jqEq29Yq-57" value="&lt;b&gt;31-40&lt;/b&gt;&lt;br&gt;33- Birth of Duncan I Pavo &amp;amp; Birth of Constantine I Pavo" style="text;html=1;strokeColor=none;fillColor=none;align=left;verticalAlign=middle;whiteSpace=wrap;rounded=0;" parent="1" vertex="1">
          <mxGeometry x="480" y="300" width="310" height="100" as="geometry" />
        </mxCell>
        <mxCell id="aUdrs35P8sJ8jqEq29Yq-58" value="&lt;b&gt;41-50&lt;/b&gt;" style="text;html=1;strokeColor=none;fillColor=none;align=left;verticalAlign=middle;whiteSpace=wrap;rounded=0;" parent="1" vertex="1">
          <mxGeometry x="480" y="400" width="120" height="100" as="geometry" />
        </mxCell>
        <mxCell id="aUdrs35P8sJ8jqEq29Yq-59" value="&lt;b&gt;51-60&lt;/b&gt;" style="text;html=1;strokeColor=none;fillColor=none;align=left;verticalAlign=middle;whiteSpace=wrap;rounded=0;" parent="1" vertex="1">
          <mxGeometry x="480" y="500" width="120" height="100" as="geometry" />
        </mxCell>
        <mxCell id="aUdrs35P8sJ8jqEq29Yq-60" value="&lt;b&gt;61-70&lt;/b&gt;" style="text;html=1;strokeColor=none;fillColor=none;align=left;verticalAlign=middle;whiteSpace=wrap;rounded=0;" parent="1" vertex="1">
          <mxGeometry x="480" y="600" width="120" height="100" as="geometry" />
        </mxCell>
        <mxCell id="aUdrs35P8sJ8jqEq29Yq-61" value="&lt;b&gt;71-80&lt;/b&gt;&lt;br&gt;78- Death of Alexander I Pavo&lt;br&gt;78- Birth of Simeon I Pavo&lt;br&gt;79- Duncan I Pavo crowned" style="text;html=1;strokeColor=none;fillColor=none;align=left;verticalAlign=middle;whiteSpace=wrap;rounded=0;" parent="1" vertex="1">
          <mxGeometry x="480" y="700" width="170" height="100" as="geometry" />
        </mxCell>
        <mxCell id="aUdrs35P8sJ8jqEq29Yq-62" value="&lt;b&gt;81-90&lt;/b&gt;" style="text;html=1;strokeColor=none;fillColor=none;align=left;verticalAlign=middle;whiteSpace=wrap;rounded=0;" parent="1" vertex="1">
          <mxGeometry x="480" y="800" width="120" height="100" as="geometry" />
        </mxCell>
        <mxCell id="aUdrs35P8sJ8jqEq29Yq-63" value="&lt;b&gt;91-100&lt;/b&gt;" style="text;html=1;strokeColor=none;fillColor=none;align=left;verticalAlign=middle;whiteSpace=wrap;rounded=0;" parent="1" vertex="1">
          <mxGeometry x="480" y="900" width="120" height="100" as="geometry" />
        </mxCell>
        <mxCell id="aUdrs35P8sJ8jqEq29Yq-64" value="&lt;b&gt;101-110&lt;/b&gt;&lt;br&gt;103- Birth of Crown Prince Alexander Pavo&lt;br&gt;106- Death of Duncan I Pavo&lt;br&gt;106- Constantine I Pavo crowned&lt;br&gt;108- Death of Constantine I Pavo&lt;br&gt;109- Simeon I Pavo crowned&amp;nbsp;" style="text;html=1;strokeColor=none;fillColor=none;align=left;verticalAlign=middle;whiteSpace=wrap;rounded=0;" parent="1" vertex="1">
          <mxGeometry x="480" y="1000" width="240" height="100" as="geometry" />
        </mxCell>
        <mxCell id="aUdrs35P8sJ8jqEq29Yq-65" value="&lt;b&gt;111-120&lt;/b&gt;&lt;br&gt;111- Birth of Pavo I Pavo&lt;br&gt;111- Torwei conquered &amp;amp; annexed into Sulyion&lt;br&gt;117- Lochia conquered &amp;amp; annexed into Sulyion" style="text;html=1;strokeColor=none;fillColor=none;align=left;verticalAlign=middle;whiteSpace=wrap;rounded=0;" parent="1" vertex="1">
          <mxGeometry x="480" y="1100" width="250" height="100" as="geometry" />
        </mxCell>
        <mxCell id="aUdrs35P8sJ8jqEq29Yq-66" value="&lt;b&gt;121-130&lt;/b&gt;&lt;br&gt;127- Crown Prince Alexander Pavo &amp;amp; Princess Luna Latia of Cynum wed&lt;br&gt;129- Death of Crown Prince Alexander Pavo in battle&lt;br&gt;129- Death of Simeon I Pavo in battle&lt;br&gt;129- Regency of Princess Luna Latia of Cynum begins" style="text;html=1;strokeColor=none;fillColor=none;align=left;verticalAlign=middle;whiteSpace=wrap;rounded=0;" parent="1" vertex="1">
          <mxGeometry x="480" y="1200" width="390" height="100" as="geometry" />
        </mxCell>
        <mxCell id="aUdrs35P8sJ8jqEq29Yq-67" value="&lt;b&gt;131-140&lt;/b&gt;&lt;br&gt;131- Regency of Princess Luna Latia of Cynum ends&lt;br&gt;131- Pavo I Pavo crowned&lt;br&gt;132- Pavo I Pavo &amp;amp; Princess Luna Latia of Cynum wed&lt;br&gt;" style="text;html=1;strokeColor=none;fillColor=none;align=left;verticalAlign=middle;whiteSpace=wrap;rounded=0;" parent="1" vertex="1">
          <mxGeometry x="480" y="1300" width="300" height="100" as="geometry" />
        </mxCell>
        <mxCell id="aUdrs35P8sJ8jqEq29Yq-68" value="&lt;b&gt;141-150&lt;/b&gt;&lt;br&gt;142- Birth of Crown Prince Alexander Pavo&lt;br&gt;144- Luna I Latia takes the throne of Cynum&lt;br&gt;144- Luna I Latia crowned Queen of Cynum" style="text;html=1;strokeColor=none;fillColor=none;align=left;verticalAlign=middle;whiteSpace=wrap;rounded=0;" parent="1" vertex="1">
          <mxGeometry x="480" y="1400" width="240" height="100" as="geometry" />
        </mxCell>
        <mxCell id="aUdrs35P8sJ8jqEq29Yq-69" value="&lt;b&gt;151-160&lt;/b&gt;" style="text;html=1;strokeColor=none;fillColor=none;align=left;verticalAlign=middle;whiteSpace=wrap;rounded=0;" parent="1" vertex="1">
          <mxGeometry x="480" y="1500" width="120" height="100" as="geometry" />
        </mxCell>
        <mxCell id="aUdrs35P8sJ8jqEq29Yq-70" value="&lt;b&gt;161-170&lt;/b&gt;" style="text;html=1;strokeColor=none;fillColor=none;align=left;verticalAlign=middle;whiteSpace=wrap;rounded=0;" parent="1" vertex="1">
          <mxGeometry x="480" y="1600" width="120" height="100" as="geometry" />
        </mxCell>
        <mxCell id="aUdrs35P8sJ8jqEq29Yq-71" value="&lt;b&gt;171-180&lt;/b&gt;&lt;br&gt;179- Birth of George I Pavo&lt;br&gt;179- Death of Crown Prince Alexander&#39;s wife in childbirth&lt;br&gt;179- Death of Crown Prince Alexander from shock" style="text;html=1;strokeColor=none;fillColor=none;align=left;verticalAlign=middle;whiteSpace=wrap;rounded=0;" parent="1" vertex="1">
          <mxGeometry x="480" y="1700" width="310" height="100" as="geometry" />
        </mxCell>
        <mxCell id="aUdrs35P8sJ8jqEq29Yq-72" value="&lt;b&gt;181-190&lt;/b&gt;" style="text;html=1;strokeColor=none;fillColor=none;align=left;verticalAlign=middle;whiteSpace=wrap;rounded=0;" parent="1" vertex="1">
          <mxGeometry x="480" y="1800" width="120" height="100" as="geometry" />
        </mxCell>
        <mxCell id="aUdrs35P8sJ8jqEq29Yq-73" value="&lt;b&gt;191-200&lt;/b&gt;&lt;br&gt;197- Death of Pavo I Pavo&lt;br&gt;197- Regency of Luna I Latia begins&lt;br&gt;199- Regency of Luna I Latia ends&lt;br&gt;199- George I Pavo crowned&lt;br&gt;200- Birth of Pavo II Pavo" style="text;html=1;strokeColor=none;fillColor=none;align=left;verticalAlign=middle;whiteSpace=wrap;rounded=0;" parent="1" vertex="1">
          <mxGeometry x="480" y="1900" width="260" height="100" as="geometry" />
        </mxCell>
        <mxCell id="aUdrs35P8sJ8jqEq29Yq-74" value="&lt;b&gt;201-210&lt;/b&gt;&lt;br&gt;201- Death of Luna I Latia of Cynum&lt;br&gt;201- George I Pavo takes the throne of Cynum&lt;br&gt;202- George I Pavo crowned" style="text;html=1;strokeColor=none;fillColor=none;align=left;verticalAlign=middle;whiteSpace=wrap;rounded=0;" parent="1" vertex="1">
          <mxGeometry x="480" y="2000" width="260" height="100" as="geometry" />
        </mxCell>
        <mxCell id="aUdrs35P8sJ8jqEq29Yq-75" value="&lt;b&gt;211-220&lt;/b&gt;&lt;br&gt;212- Birth of Alexander II Pavo" style="text;html=1;strokeColor=none;fillColor=none;align=left;verticalAlign=middle;whiteSpace=wrap;rounded=0;" parent="1" vertex="1">
          <mxGeometry x="480" y="2100" width="170" height="100" as="geometry" />
        </mxCell>
        <mxCell id="aUdrs35P8sJ8jqEq29Yq-76" value="&lt;b&gt;221-230&lt;/b&gt;&lt;br&gt;221- Birth of Duncan II Pavo&lt;br&gt;222- Death George I Pavo, vanished at sea&lt;br&gt;223- Pavo II Pavo crowned" style="text;html=1;strokeColor=none;fillColor=none;align=left;verticalAlign=middle;whiteSpace=wrap;rounded=0;" parent="1" vertex="1">
          <mxGeometry x="480" y="2200" width="240" height="100" as="geometry" />
        </mxCell>
        <mxCell id="aUdrs35P8sJ8jqEq29Yq-77" value="&lt;b&gt;241-250&lt;/b&gt;" style="text;html=1;strokeColor=none;fillColor=none;align=left;verticalAlign=middle;whiteSpace=wrap;rounded=0;" parent="1" vertex="1">
          <mxGeometry x="480" y="2400" width="120" height="100" as="geometry" />
        </mxCell>
        <mxCell id="aUdrs35P8sJ8jqEq29Yq-78" value="&lt;b&gt;231-240&lt;/b&gt;&lt;br&gt;236- Birth of Victor I Pavo" style="text;html=1;strokeColor=none;fillColor=none;align=left;verticalAlign=middle;whiteSpace=wrap;rounded=0;" parent="1" vertex="1">
          <mxGeometry x="480" y="2300" width="150" height="100" as="geometry" />
        </mxCell>
        <mxCell id="aUdrs35P8sJ8jqEq29Yq-79" value="&lt;b&gt;251-260&lt;/b&gt;&lt;br&gt;252- Death of Pavo II Pavo, vanished in mountains&lt;br&gt;252- Duncan II Pavo crowned&lt;br&gt;254- Death of Duncan II Pavo, vanished&lt;br&gt;255- Alexander II Pavo crowned" style="text;html=1;strokeColor=none;fillColor=none;align=left;verticalAlign=middle;whiteSpace=wrap;rounded=0;" parent="1" vertex="1">
          <mxGeometry x="480" y="2500" width="280" height="100" as="geometry" />
        </mxCell>
        <mxCell id="aUdrs35P8sJ8jqEq29Yq-80" value="&lt;b&gt;261-270&lt;/b&gt;&lt;br&gt;270- Cynum annexed into Sulyion" style="text;html=1;strokeColor=none;fillColor=none;align=left;verticalAlign=middle;whiteSpace=wrap;rounded=0;" parent="1" vertex="1">
          <mxGeometry x="480" y="2600" width="190" height="100" as="geometry" />
        </mxCell>
        <mxCell id="aUdrs35P8sJ8jqEq29Yq-81" value="&lt;b&gt;271-280&lt;/b&gt;&lt;br&gt;273- Okerdet conquered &amp;amp; annexed into Sulyion&lt;br&gt;276- Hoyaland conquered &amp;amp; annexed into Sulyion&lt;br&gt;277- Raunahild declared capital" style="text;html=1;strokeColor=none;fillColor=none;align=left;verticalAlign=middle;whiteSpace=wrap;rounded=0;" parent="1" vertex="1">
          <mxGeometry x="480" y="2700" width="270" height="100" as="geometry" />
        </mxCell>
        <mxCell id="aUdrs35P8sJ8jqEq29Yq-82" value="&lt;b&gt;281-290&lt;/b&gt;" style="text;html=1;strokeColor=none;fillColor=none;align=left;verticalAlign=middle;whiteSpace=wrap;rounded=0;" parent="1" vertex="1">
          <mxGeometry x="480" y="2800" width="120" height="100" as="geometry" />
        </mxCell>
        <mxCell id="aUdrs35P8sJ8jqEq29Yq-83" value="&lt;b&gt;291-300&lt;/b&gt;&lt;br&gt;292- Birth of Simeon II Pavo&lt;br&gt;299- Death of Alexander II Pavo&lt;br&gt;299- Victor I Pavo crowned" style="text;html=1;strokeColor=none;fillColor=none;align=left;verticalAlign=middle;whiteSpace=wrap;rounded=0;" parent="1" vertex="1">
          <mxGeometry x="480" y="2900" width="180" height="100" as="geometry" />
        </mxCell>
        <mxCell id="aUdrs35P8sJ8jqEq29Yq-84" value="&lt;b&gt;301-310&lt;br&gt;&lt;/b&gt;" style="text;html=1;strokeColor=none;fillColor=none;align=left;verticalAlign=middle;whiteSpace=wrap;rounded=0;" parent="1" vertex="1">
          <mxGeometry x="480" y="3000" width="120" height="100" as="geometry" />
        </mxCell>
        <mxCell id="aUdrs35P8sJ8jqEq29Yq-85" value="&lt;b&gt;311-320&lt;/b&gt;&lt;br&gt;316- Birth of Alexander III Pavo&lt;br&gt;320- Birth of Jane I Pavo" style="text;html=1;strokeColor=none;fillColor=none;align=left;verticalAlign=middle;whiteSpace=wrap;rounded=0;" parent="1" vertex="1">
          <mxGeometry x="480" y="3100" width="170" height="100" as="geometry" />
        </mxCell>
        <mxCell id="aUdrs35P8sJ8jqEq29Yq-86" value="&lt;b&gt;321-330&lt;/b&gt;&lt;br&gt;274- Birth of Adam I Pavo" style="text;html=1;strokeColor=none;fillColor=none;align=left;verticalAlign=middle;whiteSpace=wrap;rounded=0;" parent="1" vertex="1">
          <mxGeometry x="480" y="3200" width="160" height="100" as="geometry" />
        </mxCell>
        <mxCell id="aUdrs35P8sJ8jqEq29Yq-87" value="&lt;b&gt;331-340&lt;/b&gt;&lt;br&gt;336- Death of Victor I Pavo&lt;br&gt;337- Death of Adam I Pavo&lt;br&gt;338- Simeon II Pavo crowned&lt;br&gt;340- Simeon II Pavo declares Jane I Pavo heir" style="text;html=1;strokeColor=none;fillColor=none;align=left;verticalAlign=middle;whiteSpace=wrap;rounded=0;" parent="1" vertex="1">
          <mxGeometry x="480" y="3300" width="260" height="100" as="geometry" />
        </mxCell>
        <mxCell id="aUdrs35P8sJ8jqEq29Yq-88" value="&lt;b&gt;341-350&lt;/b&gt;&lt;br&gt;341- Death of Simeon II Pavo&lt;br&gt;341- Jane I Pavo crowned queen of Sulyion in Cynum &amp;amp; Lochia, Alexander crowned King in rest&lt;br&gt;341- Alexander III &amp;amp; Jane I wed, avert civil war" style="text;html=1;strokeColor=none;fillColor=none;align=left;verticalAlign=middle;whiteSpace=wrap;rounded=0;" parent="1" vertex="1">
          <mxGeometry x="480" y="3400" width="520" height="100" as="geometry" />
        </mxCell>
        <mxCell id="aUdrs35P8sJ8jqEq29Yq-91" value="Duncan II Pavo" style="text;html=1;strokeColor=none;fillColor=none;align=center;verticalAlign=middle;whiteSpace=wrap;rounded=0;" parent="1" vertex="1">
          <mxGeometry x="190" y="2520" width="100" height="20" as="geometry" />
        </mxCell>
        <mxCell id="aUdrs35P8sJ8jqEq29Yq-92" value="Alexander II Pavo" style="text;html=1;strokeColor=none;fillColor=none;align=center;verticalAlign=middle;whiteSpace=wrap;rounded=0;" parent="1" vertex="1">
          <mxGeometry x="190" y="2540" width="100" height="20" as="geometry" />
        </mxCell>
        <mxCell id="aUdrs35P8sJ8jqEq29Yq-93" value="Victor I Pavo" style="text;html=1;strokeColor=none;fillColor=none;align=center;verticalAlign=middle;whiteSpace=wrap;rounded=0;" parent="1" vertex="1">
          <mxGeometry x="190" y="2990" width="100" height="20" as="geometry" />
        </mxCell>
        <mxCell id="7rwlFg1LKiwW2VwSM2wV-1" value="" style="rounded=0;whiteSpace=wrap;html=1;strokeColor=#9673a6;fontSize=12;fillColor=#e1d5e7;gradientDirection=east;" parent="1" vertex="1">
          <mxGeometry y="3360" width="480" height="10" as="geometry" />
        </mxCell>
        <mxCell id="7rwlFg1LKiwW2VwSM2wV-2" value="" style="rounded=0;whiteSpace=wrap;html=1;strokeColor=#9673a6;fontSize=12;fillColor=#e1d5e7;gradientDirection=east;" parent="1" vertex="1">
          <mxGeometry y="3370" width="480" height="40" as="geometry" />
        </mxCell>
        <mxCell id="7rwlFg1LKiwW2VwSM2wV-5" value="" style="rounded=0;whiteSpace=wrap;html=1;strokeColor=#9673a6;fontSize=12;fillColor=#e1d5e7;gradientDirection=east;" parent="1" vertex="1">
          <mxGeometry y="3690" width="480" height="350" as="geometry" />
        </mxCell>
        <mxCell id="7rwlFg1LKiwW2VwSM2wV-3" value="" style="rounded=0;whiteSpace=wrap;html=1;strokeColor=#9673a6;fontSize=12;fillColor=#e1d5e7;gradientDirection=east;" parent="1" vertex="1">
          <mxGeometry y="3410" width="240" height="340" as="geometry" />
        </mxCell>
        <mxCell id="7rwlFg1LKiwW2VwSM2wV-4" value="" style="rounded=0;whiteSpace=wrap;html=1;strokeColor=#9673a6;fontSize=12;fillColor=#e1d5e7;gradientDirection=east;" parent="1" vertex="1">
          <mxGeometry x="240" y="3410" width="240" height="280" as="geometry" />
        </mxCell>
        <mxCell id="7rwlFg1LKiwW2VwSM2wV-6" value="" style="rounded=0;whiteSpace=wrap;html=1;strokeColor=#9673a6;fontSize=12;fillColor=#e1d5e7;gradientDirection=east;" parent="1" vertex="1">
          <mxGeometry y="4040" width="480" height="510" as="geometry" />
        </mxCell>
        <mxCell id="7rwlFg1LKiwW2VwSM2wV-7" value="" style="rounded=0;whiteSpace=wrap;html=1;strokeColor=#6c8ebf;fontSize=12;fillColor=#dae8fc;gradientDirection=east;" parent="1" vertex="1">
          <mxGeometry x="230" y="4040" width="120" height="480" as="geometry" />
        </mxCell>
        <mxCell id="7rwlFg1LKiwW2VwSM2wV-8" value="" style="endArrow=none;html=1;rounded=0;entryX=1;entryY=0.4;entryDx=0;entryDy=0;entryPerimeter=0;align=left;" parent="1" edge="1">
          <mxGeometry width="50" height="50" relative="1" as="geometry">
            <mxPoint x="520" y="3600.0000000000005" as="sourcePoint" />
            <mxPoint x="480" y="3600.0000000000005" as="targetPoint" />
          </mxGeometry>
        </mxCell>
        <mxCell id="7rwlFg1LKiwW2VwSM2wV-9" value="&lt;b&gt;351-360&lt;/b&gt;&lt;br&gt;354- Birth of Peter I Pavo" style="text;html=1;strokeColor=none;fillColor=none;align=left;verticalAlign=middle;whiteSpace=wrap;rounded=0;" parent="1" vertex="1">
          <mxGeometry x="480" y="3500" width="160" height="100" as="geometry" />
        </mxCell>
        <mxCell id="7rwlFg1LKiwW2VwSM2wV-10" value="" style="endArrow=none;html=1;rounded=0;entryX=1;entryY=0.4;entryDx=0;entryDy=0;entryPerimeter=0;align=left;" parent="1" edge="1">
          <mxGeometry width="50" height="50" relative="1" as="geometry">
            <mxPoint x="520" y="3700.0000000000005" as="sourcePoint" />
            <mxPoint x="480" y="3700.0000000000005" as="targetPoint" />
          </mxGeometry>
        </mxCell>
        <mxCell id="7rwlFg1LKiwW2VwSM2wV-11" value="&lt;b&gt;361-370&lt;/b&gt;&lt;br&gt;369- Death of Jane I Pavo&lt;br&gt;369- Regency of Alexander III Pavo over Cynum and Lochia begins" style="text;html=1;strokeColor=none;fillColor=none;align=left;verticalAlign=middle;whiteSpace=wrap;rounded=0;" parent="1" vertex="1">
          <mxGeometry x="480" y="3600" width="360" height="100" as="geometry" />
        </mxCell>
        <mxCell id="7rwlFg1LKiwW2VwSM2wV-12" value="" style="endArrow=none;html=1;rounded=0;entryX=1;entryY=0.4;entryDx=0;entryDy=0;entryPerimeter=0;align=left;" parent="1" edge="1">
          <mxGeometry width="50" height="50" relative="1" as="geometry">
            <mxPoint x="520" y="3800.0000000000005" as="sourcePoint" />
            <mxPoint x="480" y="3800.0000000000005" as="targetPoint" />
          </mxGeometry>
        </mxCell>
        <mxCell id="7rwlFg1LKiwW2VwSM2wV-13" value="&lt;b&gt;371-380&lt;/b&gt;&lt;br&gt;374- Regency of Alexander III Pavo over Cynum and Lochia ends&lt;br&gt;375- Death of Alexander III Pavo&lt;br&gt;376- Peter I Pavo crowned&lt;br&gt;377- Birth of Alexandra I Pavo&lt;br&gt;380- Birth of George II Agna" style="text;html=1;strokeColor=none;fillColor=none;align=left;verticalAlign=middle;whiteSpace=wrap;rounded=0;" parent="1" vertex="1">
          <mxGeometry x="480" y="3700" width="360" height="100" as="geometry" />
        </mxCell>
        <mxCell id="7rwlFg1LKiwW2VwSM2wV-14" value="" style="endArrow=none;html=1;rounded=0;entryX=1;entryY=0.4;entryDx=0;entryDy=0;entryPerimeter=0;align=left;" parent="1" edge="1">
          <mxGeometry width="50" height="50" relative="1" as="geometry">
            <mxPoint x="520" y="3900.0000000000005" as="sourcePoint" />
            <mxPoint x="480" y="3900.0000000000005" as="targetPoint" />
          </mxGeometry>
        </mxCell>
        <mxCell id="7rwlFg1LKiwW2VwSM2wV-15" value="&lt;b&gt;381-390&lt;/b&gt;" style="text;html=1;strokeColor=none;fillColor=none;align=left;verticalAlign=middle;whiteSpace=wrap;rounded=0;" parent="1" vertex="1">
          <mxGeometry x="480" y="3800" width="120" height="100" as="geometry" />
        </mxCell>
        <mxCell id="7rwlFg1LKiwW2VwSM2wV-16" value="" style="endArrow=none;html=1;rounded=0;entryX=1;entryY=0.4;entryDx=0;entryDy=0;entryPerimeter=0;align=left;" parent="1" edge="1">
          <mxGeometry width="50" height="50" relative="1" as="geometry">
            <mxPoint x="520" y="4000" as="sourcePoint" />
            <mxPoint x="480" y="4000" as="targetPoint" />
          </mxGeometry>
        </mxCell>
        <mxCell id="7rwlFg1LKiwW2VwSM2wV-17" value="&lt;b&gt;391-400&lt;/b&gt;&lt;br&gt;397- Alexandra I Pavo and George II Agna wed" style="text;html=1;strokeColor=none;fillColor=none;align=left;verticalAlign=middle;whiteSpace=wrap;rounded=0;" parent="1" vertex="1">
          <mxGeometry x="480" y="3900" width="260" height="100" as="geometry" />
        </mxCell>
        <mxCell id="7rwlFg1LKiwW2VwSM2wV-18" value="" style="endArrow=none;html=1;rounded=0;entryX=1;entryY=0.4;entryDx=0;entryDy=0;entryPerimeter=0;align=left;" parent="1" edge="1">
          <mxGeometry width="50" height="50" relative="1" as="geometry">
            <mxPoint x="520" y="4100" as="sourcePoint" />
            <mxPoint x="480" y="4100" as="targetPoint" />
          </mxGeometry>
        </mxCell>
        <mxCell id="7rwlFg1LKiwW2VwSM2wV-19" value="&lt;b&gt;401-410&lt;/b&gt;&lt;br&gt;404- Death of Peter I Pavo&lt;br&gt;404- Alexandra I Pavo and George II Agna crowned&lt;br&gt;410- Birth of Lucius I Agna" style="text;html=1;strokeColor=none;fillColor=none;align=left;verticalAlign=middle;whiteSpace=wrap;rounded=0;" parent="1" vertex="1">
          <mxGeometry x="480" y="4000" width="280" height="100" as="geometry" />
        </mxCell>
        <mxCell id="7rwlFg1LKiwW2VwSM2wV-20" value="" style="endArrow=none;html=1;rounded=0;entryX=1;entryY=0.4;entryDx=0;entryDy=0;entryPerimeter=0;align=left;" parent="1" edge="1">
          <mxGeometry width="50" height="50" relative="1" as="geometry">
            <mxPoint x="520" y="4200" as="sourcePoint" />
            <mxPoint x="480" y="4200" as="targetPoint" />
          </mxGeometry>
        </mxCell>
        <mxCell id="7rwlFg1LKiwW2VwSM2wV-21" value="&lt;b&gt;411-420&lt;/b&gt;" style="text;html=1;strokeColor=none;fillColor=none;align=left;verticalAlign=middle;whiteSpace=wrap;rounded=0;" parent="1" vertex="1">
          <mxGeometry x="480" y="4100" width="120" height="100" as="geometry" />
        </mxCell>
        <mxCell id="7rwlFg1LKiwW2VwSM2wV-22" value="" style="endArrow=none;html=1;rounded=0;entryX=1;entryY=0.4;entryDx=0;entryDy=0;entryPerimeter=0;align=left;" parent="1" edge="1">
          <mxGeometry width="50" height="50" relative="1" as="geometry">
            <mxPoint x="520" y="4300" as="sourcePoint" />
            <mxPoint x="480" y="4300" as="targetPoint" />
          </mxGeometry>
        </mxCell>
        <mxCell id="7rwlFg1LKiwW2VwSM2wV-23" value="&lt;b&gt;421-430&lt;/b&gt;" style="text;html=1;strokeColor=none;fillColor=none;align=left;verticalAlign=middle;whiteSpace=wrap;rounded=0;" parent="1" vertex="1">
          <mxGeometry x="480" y="4200" width="120" height="100" as="geometry" />
        </mxCell>
        <mxCell id="7rwlFg1LKiwW2VwSM2wV-24" value="" style="endArrow=none;html=1;rounded=0;entryX=1;entryY=0.4;entryDx=0;entryDy=0;entryPerimeter=0;align=left;" parent="1" edge="1">
          <mxGeometry width="50" height="50" relative="1" as="geometry">
            <mxPoint x="520" y="4400" as="sourcePoint" />
            <mxPoint x="480" y="4400" as="targetPoint" />
          </mxGeometry>
        </mxCell>
        <mxCell id="7rwlFg1LKiwW2VwSM2wV-25" value="&lt;b&gt;431-440&lt;/b&gt;&lt;br&gt;439- Birth of Crown Prince Alexander Anga" style="text;html=1;strokeColor=none;fillColor=none;align=left;verticalAlign=middle;whiteSpace=wrap;rounded=0;" parent="1" vertex="1">
          <mxGeometry x="480" y="4300" width="240" height="100" as="geometry" />
        </mxCell>
        <mxCell id="7rwlFg1LKiwW2VwSM2wV-26" value="" style="endArrow=none;html=1;rounded=0;entryX=1;entryY=0.4;entryDx=0;entryDy=0;entryPerimeter=0;align=left;" parent="1" edge="1">
          <mxGeometry width="50" height="50" relative="1" as="geometry">
            <mxPoint x="520" y="4500" as="sourcePoint" />
            <mxPoint x="480" y="4500" as="targetPoint" />
          </mxGeometry>
        </mxCell>
        <mxCell id="7rwlFg1LKiwW2VwSM2wV-27" value="&lt;b&gt;441-450&lt;/b&gt;" style="text;html=1;strokeColor=none;fillColor=none;align=left;verticalAlign=middle;whiteSpace=wrap;rounded=0;" parent="1" vertex="1">
          <mxGeometry x="480" y="4400" width="120" height="100" as="geometry" />
        </mxCell>
        <mxCell id="7rwlFg1LKiwW2VwSM2wV-28" value="" style="endArrow=none;html=1;rounded=0;entryX=1;entryY=0.4;entryDx=0;entryDy=0;entryPerimeter=0;align=left;" parent="1" edge="1">
          <mxGeometry width="50" height="50" relative="1" as="geometry">
            <mxPoint x="520" y="4600" as="sourcePoint" />
            <mxPoint x="480" y="4600" as="targetPoint" />
          </mxGeometry>
        </mxCell>
        <mxCell id="7rwlFg1LKiwW2VwSM2wV-29" value="&lt;b&gt;451-460&lt;br&gt;&lt;/b&gt;452- Death of George II Agna&lt;br&gt;455- Death of Alexandra I Pavo&lt;br&gt;455- Lucius I Agna crowned&lt;br&gt;460- Birth of Pavo III Agna" style="text;html=1;strokeColor=none;fillColor=none;align=left;verticalAlign=middle;whiteSpace=wrap;rounded=0;" parent="1" vertex="1">
          <mxGeometry x="480" y="4500" width="170" height="100" as="geometry" />
        </mxCell>
        <mxCell id="7rwlFg1LKiwW2VwSM2wV-30" value="" style="endArrow=none;html=1;rounded=0;entryX=1;entryY=0.4;entryDx=0;entryDy=0;entryPerimeter=0;align=left;" parent="1" edge="1">
          <mxGeometry width="50" height="50" relative="1" as="geometry">
            <mxPoint x="520" y="4700" as="sourcePoint" />
            <mxPoint x="480" y="4700" as="targetPoint" />
          </mxGeometry>
        </mxCell>
        <mxCell id="7rwlFg1LKiwW2VwSM2wV-31" value="&lt;b&gt;461-470&lt;/b&gt;" style="text;html=1;strokeColor=none;fillColor=none;align=left;verticalAlign=middle;whiteSpace=wrap;rounded=0;" parent="1" vertex="1">
          <mxGeometry x="480" y="4600" width="120" height="100" as="geometry" />
        </mxCell>
        <mxCell id="7rwlFg1LKiwW2VwSM2wV-32" value="Adam I Pavo" style="text;html=1;strokeColor=none;fillColor=none;align=center;verticalAlign=middle;whiteSpace=wrap;rounded=0;" parent="1" vertex="1">
          <mxGeometry x="190" y="3360" width="100" height="10" as="geometry" />
        </mxCell>
        <mxCell id="7rwlFg1LKiwW2VwSM2wV-33" value="Simeon II Pavo" style="text;html=1;strokeColor=none;fillColor=none;align=center;verticalAlign=middle;whiteSpace=wrap;rounded=0;" parent="1" vertex="1">
          <mxGeometry x="190" y="3370" width="100" height="20" as="geometry" />
        </mxCell>
        <mxCell id="7rwlFg1LKiwW2VwSM2wV-34" value="Jane I Pavo" style="text;html=1;strokeColor=none;fillColor=none;align=center;verticalAlign=middle;whiteSpace=wrap;rounded=0;" parent="1" vertex="1">
          <mxGeometry x="312.5" y="3410" width="100" height="20" as="geometry" />
        </mxCell>
        <mxCell id="7rwlFg1LKiwW2VwSM2wV-35" value="Alexander III Pavo" style="text;html=1;strokeColor=none;fillColor=none;align=center;verticalAlign=middle;whiteSpace=wrap;rounded=0;" parent="1" vertex="1">
          <mxGeometry x="65" y="3410" width="110" height="20" as="geometry" />
        </mxCell>
        <mxCell id="7rwlFg1LKiwW2VwSM2wV-36" value="Peter I Pavo" style="text;html=1;strokeColor=none;fillColor=none;align=center;verticalAlign=middle;whiteSpace=wrap;rounded=0;" parent="1" vertex="1">
          <mxGeometry x="312.5" y="3690" width="100" height="20" as="geometry" />
        </mxCell>
        <mxCell id="7rwlFg1LKiwW2VwSM2wV-37" value="Alexandra I Pavo" style="text;html=1;strokeColor=none;fillColor=none;align=center;verticalAlign=middle;whiteSpace=wrap;rounded=0;" parent="1" vertex="1">
          <mxGeometry x="70" y="4040" width="100" height="20" as="geometry" />
        </mxCell>
        <mxCell id="7rwlFg1LKiwW2VwSM2wV-38" value="George II Agna" style="text;html=1;strokeColor=none;fillColor=none;align=center;verticalAlign=middle;whiteSpace=wrap;rounded=0;" parent="1" vertex="1">
          <mxGeometry x="240" y="4040" width="100" height="20" as="geometry" />
        </mxCell>
        <mxCell id="7rwlFg1LKiwW2VwSM2wV-39" value="" style="rounded=0;whiteSpace=wrap;html=1;strokeColor=#6c8ebf;fontSize=12;fillColor=#dae8fc;gradientDirection=east;" parent="1" vertex="1">
          <mxGeometry y="4550" width="480" height="310" as="geometry" />
        </mxCell>
        <mxCell id="7rwlFg1LKiwW2VwSM2wV-40" value="" style="endArrow=none;html=1;rounded=0;entryX=1;entryY=0.4;entryDx=0;entryDy=0;entryPerimeter=0;align=left;" parent="1" edge="1">
          <mxGeometry width="50" height="50" relative="1" as="geometry">
            <mxPoint x="520" y="4800" as="sourcePoint" />
            <mxPoint x="480" y="4800" as="targetPoint" />
          </mxGeometry>
        </mxCell>
        <mxCell id="7rwlFg1LKiwW2VwSM2wV-41" value="&lt;b&gt;471-480&lt;/b&gt;&lt;br&gt;479- Death of Crown Prince Alexander Agna&lt;br&gt;480- Birth of Alexander IV Agna &amp;amp; Henry I Agna" style="text;html=1;strokeColor=none;fillColor=none;align=left;verticalAlign=middle;whiteSpace=wrap;rounded=0;" parent="1" vertex="1">
          <mxGeometry x="480" y="4700" width="260" height="100" as="geometry" />
        </mxCell>
        <mxCell id="7rwlFg1LKiwW2VwSM2wV-42" value="" style="endArrow=none;html=1;rounded=0;entryX=1;entryY=0.4;entryDx=0;entryDy=0;entryPerimeter=0;align=left;" parent="1" edge="1">
          <mxGeometry width="50" height="50" relative="1" as="geometry">
            <mxPoint x="520" y="4900" as="sourcePoint" />
            <mxPoint x="480" y="4900" as="targetPoint" />
          </mxGeometry>
        </mxCell>
        <mxCell id="7rwlFg1LKiwW2VwSM2wV-43" value="&lt;b&gt;481-490&lt;/b&gt;&lt;br&gt;483- Birth of Issac I Agna&lt;br&gt;485- Birth of Elizabeth I Agna&lt;br&gt;486- Death of Lucius I Agna&lt;br&gt;486- Pavo III Agna crowned" style="text;html=1;strokeColor=none;fillColor=none;align=left;verticalAlign=middle;whiteSpace=wrap;rounded=0;" parent="1" vertex="1">
          <mxGeometry x="480" y="4800" width="160" height="100" as="geometry" />
        </mxCell>
        <mxCell id="7rwlFg1LKiwW2VwSM2wV-44" value="" style="endArrow=none;html=1;rounded=0;entryX=1;entryY=0.4;entryDx=0;entryDy=0;entryPerimeter=0;align=left;" parent="1" edge="1">
          <mxGeometry width="50" height="50" relative="1" as="geometry">
            <mxPoint x="520" y="5000" as="sourcePoint" />
            <mxPoint x="480" y="5000" as="targetPoint" />
          </mxGeometry>
        </mxCell>
        <mxCell id="7rwlFg1LKiwW2VwSM2wV-45" value="&lt;b&gt;491-500&lt;/b&gt;&lt;br&gt;498- Birth of George III Agna" style="text;html=1;strokeColor=none;fillColor=none;align=left;verticalAlign=middle;whiteSpace=wrap;rounded=0;" parent="1" vertex="1">
          <mxGeometry x="480" y="4900" width="160" height="100" as="geometry" />
        </mxCell>
        <mxCell id="7rwlFg1LKiwW2VwSM2wV-46" value="Lucius I Agna" style="text;html=1;strokeColor=none;fillColor=none;align=center;verticalAlign=middle;whiteSpace=wrap;rounded=0;" parent="1" vertex="1">
          <mxGeometry x="190" y="4550" width="100" height="20" as="geometry" />
        </mxCell>
        <mxCell id="cHpniDq6_b8CgvJcjzi5-1" value="" style="rounded=0;whiteSpace=wrap;html=1;strokeColor=#6c8ebf;fontSize=12;fillColor=#dae8fc;gradientDirection=east;" parent="1" vertex="1">
          <mxGeometry y="4860" width="480" height="200" as="geometry" />
        </mxCell>
        <mxCell id="cHpniDq6_b8CgvJcjzi5-2" value="" style="rounded=0;whiteSpace=wrap;html=1;strokeColor=#6c8ebf;fontSize=12;fillColor=#dae8fc;gradientDirection=east;" parent="1" vertex="1">
          <mxGeometry y="5060" width="480" height="20" as="geometry" />
        </mxCell>
        <mxCell id="cHpniDq6_b8CgvJcjzi5-3" value="" style="rounded=0;whiteSpace=wrap;html=1;strokeColor=#6c8ebf;fontSize=12;fillColor=#dae8fc;gradientDirection=east;" parent="1" vertex="1">
          <mxGeometry y="5080" width="480" height="50" as="geometry" />
        </mxCell>
        <mxCell id="cHpniDq6_b8CgvJcjzi5-4" value="" style="rounded=0;whiteSpace=wrap;html=1;strokeColor=#6c8ebf;fontSize=12;fillColor=#dae8fc;gradientDirection=east;" parent="1" vertex="1">
          <mxGeometry y="5130" width="480" height="40" as="geometry" />
        </mxCell>
        <mxCell id="cHpniDq6_b8CgvJcjzi5-5" value="" style="rounded=0;whiteSpace=wrap;html=1;strokeColor=#6c8ebf;fontSize=12;fillColor=#dae8fc;gradientDirection=east;" parent="1" vertex="1">
          <mxGeometry y="5170" width="480" height="80" as="geometry" />
        </mxCell>
        <mxCell id="cHpniDq6_b8CgvJcjzi5-6" value="" style="rounded=0;whiteSpace=wrap;html=1;strokeColor=#6c8ebf;fontSize=12;fillColor=#dae8fc;gradientDirection=east;" parent="1" vertex="1">
          <mxGeometry y="5250" width="480" height="180" as="geometry" />
        </mxCell>
        <mxCell id="cHpniDq6_b8CgvJcjzi5-7" value="" style="rounded=0;whiteSpace=wrap;html=1;strokeColor=#6c8ebf;fontSize=12;fillColor=#dae8fc;gradientDirection=east;" parent="1" vertex="1">
          <mxGeometry y="5430" width="480" height="10" as="geometry" />
        </mxCell>
        <mxCell id="cHpniDq6_b8CgvJcjzi5-8" value="" style="rounded=0;whiteSpace=wrap;html=1;strokeColor=#6c8ebf;fontSize=12;fillColor=#dae8fc;gradientDirection=east;" parent="1" vertex="1">
          <mxGeometry y="5440" width="480" height="230" as="geometry" />
        </mxCell>
        <mxCell id="cHpniDq6_b8CgvJcjzi5-9" value="" style="rounded=0;whiteSpace=wrap;html=1;strokeColor=#6c8ebf;fontSize=12;fillColor=#dae8fc;gradientDirection=east;" parent="1" vertex="1">
          <mxGeometry y="5670" width="480" height="30" as="geometry" />
        </mxCell>
        <mxCell id="cHpniDq6_b8CgvJcjzi5-10" value="" style="rounded=0;whiteSpace=wrap;html=1;strokeColor=#6c8ebf;fontSize=12;fillColor=#dae8fc;gradientDirection=east;" parent="1" vertex="1">
          <mxGeometry y="5700" width="480" height="20" as="geometry" />
        </mxCell>
        <mxCell id="cHpniDq6_b8CgvJcjzi5-11" value="" style="rounded=0;whiteSpace=wrap;html=1;strokeColor=#6c8ebf;fontSize=12;fillColor=#dae8fc;gradientDirection=east;" parent="1" vertex="1">
          <mxGeometry y="5720" width="480" height="840" as="geometry" />
        </mxCell>
        <mxCell id="cHpniDq6_b8CgvJcjzi5-13" value="" style="rounded=0;whiteSpace=wrap;html=1;strokeColor=#82b366;fontSize=12;fillColor=#B9E0A5;gradientDirection=east;" parent="1" vertex="1">
          <mxGeometry y="6560" width="480" height="200" as="geometry" />
        </mxCell>
        <mxCell id="cHpniDq6_b8CgvJcjzi5-14" value="" style="rounded=0;whiteSpace=wrap;html=1;strokeColor=#82b366;fontSize=12;fillColor=#B9E0A5;gradientDirection=east;" parent="1" vertex="1">
          <mxGeometry x="230" y="5970" width="120" height="570" as="geometry" />
        </mxCell>
        <mxCell id="cHpniDq6_b8CgvJcjzi5-17" value="" style="endArrow=none;html=1;rounded=0;entryX=1;entryY=0.4;entryDx=0;entryDy=0;entryPerimeter=0;align=left;" parent="1" edge="1">
          <mxGeometry width="50" height="50" relative="1" as="geometry">
            <mxPoint x="520" y="5100" as="sourcePoint" />
            <mxPoint x="480" y="5100" as="targetPoint" />
          </mxGeometry>
        </mxCell>
        <mxCell id="cHpniDq6_b8CgvJcjzi5-18" value="&lt;b&gt;501-510&lt;/b&gt;&lt;br&gt;506- Death of Pavo III Agna&lt;br&gt;506- Elizabeth I Agna crowned&lt;br&gt;508- Death of Elizabeth I Agna&lt;br&gt;509- Issac I Agna crowned" style="text;html=1;strokeColor=none;fillColor=none;align=left;verticalAlign=middle;whiteSpace=wrap;rounded=0;" parent="1" vertex="1">
          <mxGeometry x="480" y="5000" width="170" height="100" as="geometry" />
        </mxCell>
        <mxCell id="cHpniDq6_b8CgvJcjzi5-19" value="" style="endArrow=none;html=1;rounded=0;entryX=1;entryY=0.4;entryDx=0;entryDy=0;entryPerimeter=0;align=left;" parent="1" edge="1">
          <mxGeometry width="50" height="50" relative="1" as="geometry">
            <mxPoint x="520" y="5200" as="sourcePoint" />
            <mxPoint x="480" y="5200" as="targetPoint" />
          </mxGeometry>
        </mxCell>
        <mxCell id="cHpniDq6_b8CgvJcjzi5-20" value="&lt;b&gt;511-520&lt;/b&gt;&lt;br&gt;513- Death of Issac I Agna&lt;br&gt;513- Alexander IV Agna crowned&lt;br&gt;517- Birth of Julius I Agna &amp;amp; Duncan III Agna&lt;br&gt;517- Death of Alexander IV Agna from illness&lt;br&gt;517-&#39;18- Regency of Queen Mother Elizabeth Rose-Sprig&lt;br&gt;518- George III Agna crowned" style="text;html=1;strokeColor=none;fillColor=none;align=left;verticalAlign=middle;whiteSpace=wrap;rounded=0;" parent="1" vertex="1">
          <mxGeometry x="480" y="5100" width="310" height="100" as="geometry" />
        </mxCell>
        <mxCell id="cHpniDq6_b8CgvJcjzi5-21" value="" style="endArrow=none;html=1;rounded=0;entryX=1;entryY=0.4;entryDx=0;entryDy=0;entryPerimeter=0;align=left;" parent="1" edge="1">
          <mxGeometry width="50" height="50" relative="1" as="geometry">
            <mxPoint x="520" y="5300" as="sourcePoint" />
            <mxPoint x="480" y="5300" as="targetPoint" />
          </mxGeometry>
        </mxCell>
        <mxCell id="cHpniDq6_b8CgvJcjzi5-22" value="&lt;b&gt;521-530&lt;/b&gt;&lt;br&gt;520- Hofjor conquered and annexed into Sulyion&lt;br&gt;522- Kjersta conquered and annexed into Sulyion&lt;br&gt;523- ? conquered and annexed into Sulyion&lt;br&gt;525- Death of George III Agna in battle&lt;br&gt;525- Regency of Queen Mother Elodie Delon begins" style="text;html=1;strokeColor=none;fillColor=none;align=left;verticalAlign=middle;whiteSpace=wrap;rounded=0;" parent="1" vertex="1">
          <mxGeometry x="480" y="5200" width="340" height="100" as="geometry" />
        </mxCell>
        <mxCell id="cHpniDq6_b8CgvJcjzi5-23" value="" style="endArrow=none;html=1;rounded=0;entryX=1;entryY=0.4;entryDx=0;entryDy=0;entryPerimeter=0;align=left;" parent="1" edge="1">
          <mxGeometry width="50" height="50" relative="1" as="geometry">
            <mxPoint x="520" y="5400" as="sourcePoint" />
            <mxPoint x="480" y="5400" as="targetPoint" />
          </mxGeometry>
        </mxCell>
        <mxCell id="cHpniDq6_b8CgvJcjzi5-24" value="&lt;b&gt;531-540&lt;/b&gt;&lt;br&gt;536- Birth of Sophie I Agna&lt;br&gt;537- Regency of Queen Mother Elodie Delon ends&lt;br&gt;537- Julius I Agna crowned&lt;br&gt;539- Birth of Alexander V Agna, illegitimate" style="text;html=1;strokeColor=none;fillColor=none;align=left;verticalAlign=middle;whiteSpace=wrap;rounded=0;" parent="1" vertex="1">
          <mxGeometry x="480" y="5300" width="330" height="100" as="geometry" />
        </mxCell>
        <mxCell id="cHpniDq6_b8CgvJcjzi5-25" value="" style="endArrow=none;html=1;rounded=0;entryX=1;entryY=0.4;entryDx=0;entryDy=0;entryPerimeter=0;align=left;" parent="1" edge="1">
          <mxGeometry width="50" height="50" relative="1" as="geometry">
            <mxPoint x="520" y="5500" as="sourcePoint" />
            <mxPoint x="480" y="5500" as="targetPoint" />
          </mxGeometry>
        </mxCell>
        <mxCell id="cHpniDq6_b8CgvJcjzi5-26" value="&lt;b&gt;541-550&lt;br&gt;&lt;/b&gt;541- Alexander V Agna legitimized&lt;br&gt;543- Death of Julius I Agna&lt;br&gt;543- Regency of Queen Dowager Juno Pavo-Ceva begins&lt;br&gt;544- Death of Alexander V Agna from assasination" style="text;html=1;strokeColor=none;fillColor=none;align=left;verticalAlign=middle;whiteSpace=wrap;rounded=0;" parent="1" vertex="1">
          <mxGeometry x="480" y="5400" width="320" height="100" as="geometry" />
        </mxCell>
        <mxCell id="cHpniDq6_b8CgvJcjzi5-27" value="" style="endArrow=none;html=1;rounded=0;entryX=1;entryY=0.4;entryDx=0;entryDy=0;entryPerimeter=0;align=left;" parent="1" edge="1">
          <mxGeometry width="50" height="50" relative="1" as="geometry">
            <mxPoint x="520" y="5600" as="sourcePoint" />
            <mxPoint x="480" y="5600" as="targetPoint" />
          </mxGeometry>
        </mxCell>
        <mxCell id="cHpniDq6_b8CgvJcjzi5-28" value="&lt;b&gt;551-560&lt;/b&gt;&lt;br&gt;556- Regency of Queen Mother Juno Pavo-Ceva ends&lt;br&gt;556- Sophie I Agna crowned" style="text;html=1;strokeColor=none;fillColor=none;align=left;verticalAlign=middle;whiteSpace=wrap;rounded=0;" parent="1" vertex="1">
          <mxGeometry x="480" y="5500" width="300" height="100" as="geometry" />
        </mxCell>
        <mxCell id="cHpniDq6_b8CgvJcjzi5-29" value="" style="endArrow=none;html=1;rounded=0;entryX=1;entryY=0.4;entryDx=0;entryDy=0;entryPerimeter=0;align=left;" parent="1" edge="1">
          <mxGeometry width="50" height="50" relative="1" as="geometry">
            <mxPoint x="520" y="5700" as="sourcePoint" />
            <mxPoint x="480" y="5700" as="targetPoint" />
          </mxGeometry>
        </mxCell>
        <mxCell id="cHpniDq6_b8CgvJcjzi5-30" value="&lt;b&gt;561-570&lt;/b&gt;&lt;br&gt;567- Death of Sophie I Agna&lt;br&gt;567- Duncan III Agna crowned&lt;br&gt;570- Death of Duncan III Agna&lt;br&gt;570- Henry I Agna crowned" style="text;html=1;strokeColor=none;fillColor=none;align=left;verticalAlign=middle;whiteSpace=wrap;rounded=0;" parent="1" vertex="1">
          <mxGeometry x="480" y="5600" width="170" height="100" as="geometry" />
        </mxCell>
        <mxCell id="cHpniDq6_b8CgvJcjzi5-31" value="" style="endArrow=none;html=1;rounded=0;entryX=1;entryY=0.4;entryDx=0;entryDy=0;entryPerimeter=0;align=left;" parent="1" edge="1">
          <mxGeometry width="50" height="50" relative="1" as="geometry">
            <mxPoint x="520" y="5800" as="sourcePoint" />
            <mxPoint x="480" y="5800" as="targetPoint" />
          </mxGeometry>
        </mxCell>
        <mxCell id="cHpniDq6_b8CgvJcjzi5-32" value="&lt;b&gt;571-580&lt;/b&gt;&lt;br&gt;571- Birth of Georgina I Agna&lt;br&gt;572- Death of Henry I Agna&lt;br&gt;572- Regency of Lady Regent Hannah Ciric begins" style="text;html=1;strokeColor=none;fillColor=none;align=left;verticalAlign=middle;whiteSpace=wrap;rounded=0;" parent="1" vertex="1">
          <mxGeometry x="480" y="5700" width="280" height="100" as="geometry" />
        </mxCell>
        <mxCell id="cHpniDq6_b8CgvJcjzi5-33" value="" style="endArrow=none;html=1;rounded=0;entryX=1;entryY=0.4;entryDx=0;entryDy=0;entryPerimeter=0;align=left;" parent="1" edge="1">
          <mxGeometry width="50" height="50" relative="1" as="geometry">
            <mxPoint x="520" y="5900" as="sourcePoint" />
            <mxPoint x="480" y="5900" as="targetPoint" />
          </mxGeometry>
        </mxCell>
        <mxCell id="cHpniDq6_b8CgvJcjzi5-34" value="&lt;b&gt;581-590&lt;/b&gt;" style="text;html=1;strokeColor=none;fillColor=none;align=left;verticalAlign=middle;whiteSpace=wrap;rounded=0;" parent="1" vertex="1">
          <mxGeometry x="480" y="5800" width="120" height="100" as="geometry" />
        </mxCell>
        <mxCell id="cHpniDq6_b8CgvJcjzi5-35" value="" style="endArrow=none;html=1;rounded=0;entryX=1;entryY=0.4;entryDx=0;entryDy=0;entryPerimeter=0;align=left;" parent="1" edge="1">
          <mxGeometry width="50" height="50" relative="1" as="geometry">
            <mxPoint x="520" y="6000" as="sourcePoint" />
            <mxPoint x="480" y="6000" as="targetPoint" />
          </mxGeometry>
        </mxCell>
        <mxCell id="cHpniDq6_b8CgvJcjzi5-36" value="&lt;b&gt;591-600&lt;/b&gt;&lt;br&gt;591- Regency of Lady Regent Hannah Ciric ends&lt;br&gt;591- Georgina I Agna crowned&lt;br&gt;597- Georgina I Agna &amp;amp; Morgan I Lacerta wed, Morgan I Lacerta crowned&lt;br&gt;600- Birth of Arthur I Lacerta" style="text;html=1;strokeColor=none;fillColor=none;align=left;verticalAlign=middle;whiteSpace=wrap;rounded=0;" parent="1" vertex="1">
          <mxGeometry x="480" y="5900" width="400" height="100" as="geometry" />
        </mxCell>
        <mxCell id="cHpniDq6_b8CgvJcjzi5-37" value="" style="endArrow=none;html=1;rounded=0;entryX=1;entryY=0.4;entryDx=0;entryDy=0;entryPerimeter=0;align=left;" parent="1" edge="1">
          <mxGeometry width="50" height="50" relative="1" as="geometry">
            <mxPoint x="520" y="6100" as="sourcePoint" />
            <mxPoint x="480" y="6100" as="targetPoint" />
          </mxGeometry>
        </mxCell>
        <mxCell id="cHpniDq6_b8CgvJcjzi5-38" value="&lt;b&gt;601-610&lt;/b&gt;" style="text;html=1;strokeColor=none;fillColor=none;align=left;verticalAlign=middle;whiteSpace=wrap;rounded=0;" parent="1" vertex="1">
          <mxGeometry x="480" y="6000" width="120" height="100" as="geometry" />
        </mxCell>
        <mxCell id="cHpniDq6_b8CgvJcjzi5-39" value="" style="endArrow=none;html=1;rounded=0;entryX=1;entryY=0.4;entryDx=0;entryDy=0;entryPerimeter=0;align=left;" parent="1" edge="1">
          <mxGeometry width="50" height="50" relative="1" as="geometry">
            <mxPoint x="520" y="6200" as="sourcePoint" />
            <mxPoint x="480" y="6200" as="targetPoint" />
          </mxGeometry>
        </mxCell>
        <mxCell id="cHpniDq6_b8CgvJcjzi5-40" value="&lt;b&gt;611-620&lt;/b&gt;" style="text;html=1;strokeColor=none;fillColor=none;align=left;verticalAlign=middle;whiteSpace=wrap;rounded=0;" parent="1" vertex="1">
          <mxGeometry x="480" y="6100" width="120" height="100" as="geometry" />
        </mxCell>
        <mxCell id="cHpniDq6_b8CgvJcjzi5-41" value="" style="endArrow=none;html=1;rounded=0;entryX=1;entryY=0.4;entryDx=0;entryDy=0;entryPerimeter=0;align=left;" parent="1" edge="1">
          <mxGeometry width="50" height="50" relative="1" as="geometry">
            <mxPoint x="520" y="6300" as="sourcePoint" />
            <mxPoint x="480" y="6300" as="targetPoint" />
          </mxGeometry>
        </mxCell>
        <mxCell id="cHpniDq6_b8CgvJcjzi5-42" value="&lt;b&gt;621-630&lt;/b&gt;&lt;br&gt;625- Birth of Crown Prince Mordred Lacerta&lt;br&gt;626- Birth of Laurence I Baun&lt;br&gt;626- Birth of Erien I Hwyna&lt;br&gt;627- Birth of Morgana I Lacerta&lt;br&gt;630- Birth of Elaine I Lacerta" style="text;html=1;strokeColor=none;fillColor=none;align=left;verticalAlign=middle;whiteSpace=wrap;rounded=0;" parent="1" vertex="1">
          <mxGeometry x="480" y="6200" width="250" height="100" as="geometry" />
        </mxCell>
        <mxCell id="cHpniDq6_b8CgvJcjzi5-43" value="" style="endArrow=none;html=1;rounded=0;entryX=1;entryY=0.4;entryDx=0;entryDy=0;entryPerimeter=0;align=left;" parent="1" edge="1">
          <mxGeometry width="50" height="50" relative="1" as="geometry">
            <mxPoint x="520" y="6400" as="sourcePoint" />
            <mxPoint x="480" y="6400" as="targetPoint" />
          </mxGeometry>
        </mxCell>
        <mxCell id="cHpniDq6_b8CgvJcjzi5-44" value="&lt;b&gt;631-640&lt;/b&gt;" style="text;html=1;strokeColor=none;fillColor=none;align=left;verticalAlign=middle;whiteSpace=wrap;rounded=0;" parent="1" vertex="1">
          <mxGeometry x="480" y="6300" width="120" height="100" as="geometry" />
        </mxCell>
        <mxCell id="cHpniDq6_b8CgvJcjzi5-45" value="" style="endArrow=none;html=1;rounded=0;entryX=1;entryY=0.4;entryDx=0;entryDy=0;entryPerimeter=0;align=left;" parent="1" edge="1">
          <mxGeometry width="50" height="50" relative="1" as="geometry">
            <mxPoint x="520" y="6500" as="sourcePoint" />
            <mxPoint x="480" y="6500" as="targetPoint" />
          </mxGeometry>
        </mxCell>
        <mxCell id="cHpniDq6_b8CgvJcjzi5-46" value="&lt;b&gt;641-650&lt;/b&gt;&lt;br&gt;648- Morgana I Lacerta &amp;amp; Erien I Hwyna wed&lt;br&gt;650- Elaine I Lacerta &amp;amp; Laurence I Baun wed" style="text;html=1;strokeColor=none;fillColor=none;align=left;verticalAlign=middle;whiteSpace=wrap;rounded=0;" parent="1" vertex="1">
          <mxGeometry x="480" y="6400" width="250" height="100" as="geometry" />
        </mxCell>
        <mxCell id="cHpniDq6_b8CgvJcjzi5-47" value="" style="endArrow=none;html=1;rounded=0;entryX=1;entryY=0.4;entryDx=0;entryDy=0;entryPerimeter=0;align=left;" parent="1" edge="1">
          <mxGeometry width="50" height="50" relative="1" as="geometry">
            <mxPoint x="520" y="6600" as="sourcePoint" />
            <mxPoint x="480" y="6600" as="targetPoint" />
          </mxGeometry>
        </mxCell>
        <mxCell id="cHpniDq6_b8CgvJcjzi5-48" value="&lt;b&gt;651-660&lt;/b&gt;&lt;br&gt;654- Birth of Morgan II Hwyna&lt;br&gt;654- Death of Morgan I Lacerta&lt;br&gt;656- Death of Georgina I Agna&lt;br&gt;657- Arthur I Lacerta crowned&lt;br&gt;658- Birth of Henry II Baun" style="text;html=1;strokeColor=none;fillColor=none;align=left;verticalAlign=middle;whiteSpace=wrap;rounded=0;" parent="1" vertex="1">
          <mxGeometry x="480" y="6500" width="200" height="100" as="geometry" />
        </mxCell>
        <mxCell id="cHpniDq6_b8CgvJcjzi5-49" value="" style="endArrow=none;html=1;rounded=0;entryX=1;entryY=0.4;entryDx=0;entryDy=0;entryPerimeter=0;align=left;" parent="1" edge="1">
          <mxGeometry width="50" height="50" relative="1" as="geometry">
            <mxPoint x="520" y="6699.33" as="sourcePoint" />
            <mxPoint x="480" y="6699.33" as="targetPoint" />
          </mxGeometry>
        </mxCell>
        <mxCell id="cHpniDq6_b8CgvJcjzi5-50" value="&lt;b&gt;661-670&lt;/b&gt;&lt;br&gt;670- Death of Crown Prince Mordred Lacerta" style="text;html=1;strokeColor=none;fillColor=none;align=left;verticalAlign=middle;whiteSpace=wrap;rounded=0;" parent="1" vertex="1">
          <mxGeometry x="480" y="6599.33" width="250" height="100" as="geometry" />
        </mxCell>
        <mxCell id="cHpniDq6_b8CgvJcjzi5-51" value="" style="endArrow=none;html=1;rounded=0;entryX=1;entryY=0.4;entryDx=0;entryDy=0;entryPerimeter=0;align=left;" parent="1" edge="1">
          <mxGeometry width="50" height="50" relative="1" as="geometry">
            <mxPoint x="520" y="6799.33" as="sourcePoint" />
            <mxPoint x="480" y="6799.33" as="targetPoint" />
          </mxGeometry>
        </mxCell>
        <mxCell id="cHpniDq6_b8CgvJcjzi5-52" value="&lt;b&gt;671-680&lt;/b&gt;&lt;br&gt;676- Death of Arthur I Lacerta&lt;br&gt;676- Morgana I Lacerta &amp;amp; Erien I Hwyna crowned&lt;br&gt;678- Elaine Lacerta revolts with (southern realms)&lt;br&gt;679- Elaine I Lacerta &amp;amp; Laurence I Baun crowned over South Sulyion" style="text;html=1;strokeColor=none;fillColor=none;align=left;verticalAlign=middle;whiteSpace=wrap;rounded=0;" parent="1" vertex="1">
          <mxGeometry x="480" y="6699.33" width="370" height="100" as="geometry" />
        </mxCell>
        <mxCell id="cHpniDq6_b8CgvJcjzi5-53" value="" style="endArrow=none;html=1;rounded=0;entryX=1;entryY=0.4;entryDx=0;entryDy=0;entryPerimeter=0;align=left;" parent="1" edge="1">
          <mxGeometry width="50" height="50" relative="1" as="geometry">
            <mxPoint x="520" y="6899.33" as="sourcePoint" />
            <mxPoint x="480" y="6899.33" as="targetPoint" />
          </mxGeometry>
        </mxCell>
        <mxCell id="cHpniDq6_b8CgvJcjzi5-54" value="&lt;b&gt;681-690&lt;/b&gt;&lt;br&gt;681- Raupige declared capital&lt;br&gt;688- Birth of Lilianne I Hwyna&lt;br&gt;689- Birth of Crown Princess Alexandra Baun" style="text;html=1;strokeColor=none;fillColor=none;align=left;verticalAlign=middle;whiteSpace=wrap;rounded=0;" parent="1" vertex="1">
          <mxGeometry x="480" y="6799.33" width="250" height="100" as="geometry" />
        </mxCell>
        <mxCell id="cHpniDq6_b8CgvJcjzi5-55" value="" style="endArrow=none;html=1;rounded=0;entryX=1;entryY=0.4;entryDx=0;entryDy=0;entryPerimeter=0;align=left;" parent="1" edge="1">
          <mxGeometry width="50" height="50" relative="1" as="geometry">
            <mxPoint x="520" y="6999.33" as="sourcePoint" />
            <mxPoint x="480" y="6999.33" as="targetPoint" />
          </mxGeometry>
        </mxCell>
        <mxCell id="cHpniDq6_b8CgvJcjzi5-56" value="&lt;b&gt;691-700&lt;/b&gt;&lt;br&gt;691- Birth of Crown Prince Erien Hwyna&lt;br&gt;691- Birth of Georgia Ertia, illigitimate&lt;br&gt;697- Erien I Hwyna dethroned&lt;br&gt;697- Jure Uxoris abolished in North Sulyion&lt;br&gt;700- Death of Erien I Hwyna" style="text;html=1;strokeColor=none;fillColor=none;align=left;verticalAlign=middle;whiteSpace=wrap;rounded=0;" parent="1" vertex="1">
          <mxGeometry x="480" y="6899.33" width="240" height="100" as="geometry" />
        </mxCell>
        <mxCell id="cHpniDq6_b8CgvJcjzi5-57" value="Pavo III Agna" style="text;html=1;strokeColor=none;fillColor=none;align=center;verticalAlign=middle;whiteSpace=wrap;rounded=0;" parent="1" vertex="1">
          <mxGeometry x="190" y="4860" width="100" height="20" as="geometry" />
        </mxCell>
        <mxCell id="cHpniDq6_b8CgvJcjzi5-58" value="Elizabeth I Agna" style="text;html=1;strokeColor=none;fillColor=none;align=center;verticalAlign=middle;whiteSpace=wrap;rounded=0;" parent="1" vertex="1">
          <mxGeometry x="190" y="5060" width="100" height="20" as="geometry" />
        </mxCell>
        <mxCell id="cHpniDq6_b8CgvJcjzi5-59" value="Issac I Agna" style="text;html=1;strokeColor=none;fillColor=none;align=center;verticalAlign=middle;whiteSpace=wrap;rounded=0;" parent="1" vertex="1">
          <mxGeometry x="190" y="5080" width="100" height="20" as="geometry" />
        </mxCell>
        <mxCell id="cHpniDq6_b8CgvJcjzi5-60" value="Alexander IV Agna" style="text;html=1;strokeColor=none;fillColor=none;align=center;verticalAlign=middle;whiteSpace=wrap;rounded=0;" parent="1" vertex="1">
          <mxGeometry x="185" y="5130" width="110" height="20" as="geometry" />
        </mxCell>
        <mxCell id="cHpniDq6_b8CgvJcjzi5-61" value="George III Agna" style="text;html=1;strokeColor=none;fillColor=none;align=center;verticalAlign=middle;whiteSpace=wrap;rounded=0;" parent="1" vertex="1">
          <mxGeometry x="190" y="5170" width="100" height="20" as="geometry" />
        </mxCell>
        <mxCell id="cHpniDq6_b8CgvJcjzi5-62" value="Julius I Agna" style="text;html=1;strokeColor=none;fillColor=none;align=center;verticalAlign=middle;whiteSpace=wrap;rounded=0;" parent="1" vertex="1">
          <mxGeometry x="190" y="5250" width="100" height="20" as="geometry" />
        </mxCell>
        <mxCell id="cHpniDq6_b8CgvJcjzi5-63" value="Alexander V Agna" style="text;html=1;strokeColor=none;fillColor=none;align=center;verticalAlign=middle;whiteSpace=wrap;rounded=0;" parent="1" vertex="1">
          <mxGeometry x="190" y="5430" width="100" height="10" as="geometry" />
        </mxCell>
        <mxCell id="cHpniDq6_b8CgvJcjzi5-64" value="Sophie I Agna" style="text;html=1;strokeColor=none;fillColor=none;align=center;verticalAlign=middle;whiteSpace=wrap;rounded=0;" parent="1" vertex="1">
          <mxGeometry x="190" y="5440" width="100" height="20" as="geometry" />
        </mxCell>
        <mxCell id="cHpniDq6_b8CgvJcjzi5-65" value="Duncan III Agna" style="text;html=1;strokeColor=none;fillColor=none;align=center;verticalAlign=middle;whiteSpace=wrap;rounded=0;" parent="1" vertex="1">
          <mxGeometry x="190" y="5670" width="100" height="20" as="geometry" />
        </mxCell>
        <mxCell id="cHpniDq6_b8CgvJcjzi5-66" value="Henry I Agna" style="text;html=1;strokeColor=none;fillColor=none;align=center;verticalAlign=middle;whiteSpace=wrap;rounded=0;" parent="1" vertex="1">
          <mxGeometry x="190" y="5700" width="100" height="20" as="geometry" />
        </mxCell>
        <mxCell id="cHpniDq6_b8CgvJcjzi5-67" value="Georgina I Agna" style="text;html=1;strokeColor=none;fillColor=none;align=center;verticalAlign=middle;whiteSpace=wrap;rounded=0;" parent="1" vertex="1">
          <mxGeometry x="190" y="5720" width="100" height="20" as="geometry" />
        </mxCell>
        <mxCell id="cHpniDq6_b8CgvJcjzi5-69" value="Morgan I Lacerta" style="text;html=1;strokeColor=none;fillColor=none;align=center;verticalAlign=middle;whiteSpace=wrap;rounded=0;" parent="1" vertex="1">
          <mxGeometry x="240" y="5970" width="100" height="20" as="geometry" />
        </mxCell>
        <mxCell id="cHpniDq6_b8CgvJcjzi5-70" value="Arthur I Lacerta" style="text;html=1;strokeColor=none;fillColor=none;align=center;verticalAlign=middle;whiteSpace=wrap;rounded=0;" parent="1" vertex="1">
          <mxGeometry x="190" y="6560" width="100" height="20" as="geometry" />
        </mxCell>
        <mxCell id="_gm7ZD3A-MLSC6LiNyO2-1" value="" style="rounded=0;whiteSpace=wrap;html=1;" parent="1" vertex="1">
          <mxGeometry y="1290" width="80" height="20" as="geometry" />
        </mxCell>
        <mxCell id="_gm7ZD3A-MLSC6LiNyO2-2" value="Luna" style="text;html=1;align=center;verticalAlign=middle;resizable=1;points=[];autosize=1;strokeColor=none;fillColor=none;movable=1;rotatable=1;deletable=1;editable=1;connectable=1;aspect=fixed;resizeHeight=1;resizeWidth=1;" parent="1" vertex="1">
          <mxGeometry x="13.129999999999995" y="1290" width="50" height="18.75" as="geometry" />
        </mxCell>
        <mxCell id="_gm7ZD3A-MLSC6LiNyO2-4" value="" style="rounded=0;whiteSpace=wrap;html=1;" parent="1" vertex="1">
          <mxGeometry y="1970" width="80" height="20" as="geometry" />
        </mxCell>
        <mxCell id="_gm7ZD3A-MLSC6LiNyO2-5" value="Luna" style="text;html=1;strokeColor=none;fillColor=none;align=center;verticalAlign=middle;whiteSpace=wrap;rounded=0;" parent="1" vertex="1">
          <mxGeometry x="19.7" y="1965" width="36.87" height="30" as="geometry" />
        </mxCell>
        <mxCell id="_gm7ZD3A-MLSC6LiNyO2-6" value="" style="rounded=0;whiteSpace=wrap;html=1;" parent="1" vertex="1">
          <mxGeometry y="5170" width="80" height="10" as="geometry" />
        </mxCell>
        <mxCell id="_gm7ZD3A-MLSC6LiNyO2-7" value="Elizabeth" style="text;html=1;strokeColor=none;fillColor=none;align=center;verticalAlign=middle;whiteSpace=wrap;rounded=0;" parent="1" vertex="1">
          <mxGeometry x="8.129999999999995" y="5170" width="60" height="10" as="geometry" />
        </mxCell>
        <mxCell id="_gm7ZD3A-MLSC6LiNyO2-8" value="" style="rounded=0;whiteSpace=wrap;html=1;" parent="1" vertex="1">
          <mxGeometry y="5250" width="80" height="120" as="geometry" />
        </mxCell>
        <mxCell id="_gm7ZD3A-MLSC6LiNyO2-9" value="Elodia" style="text;html=1;strokeColor=none;fillColor=none;align=center;verticalAlign=middle;whiteSpace=wrap;rounded=0;" parent="1" vertex="1">
          <mxGeometry x="8.139999999999999" y="5250" width="60" height="15" as="geometry" />
        </mxCell>
        <mxCell id="_gm7ZD3A-MLSC6LiNyO2-10" value="" style="rounded=0;whiteSpace=wrap;html=1;" parent="1" vertex="1">
          <mxGeometry y="5430" width="80" height="120" as="geometry" />
        </mxCell>
        <mxCell id="_gm7ZD3A-MLSC6LiNyO2-12" value="" style="rounded=0;whiteSpace=wrap;html=1;" parent="1" vertex="1">
          <mxGeometry y="5720" width="80" height="190" as="geometry" />
        </mxCell>
        <mxCell id="_gm7ZD3A-MLSC6LiNyO2-13" value="Hannah" style="text;html=1;align=center;verticalAlign=middle;resizable=1;points=[];autosize=1;strokeColor=none;fillColor=none;resizeHeight=1;resizeWidth=1;" parent="1" vertex="1">
          <mxGeometry x="6.88" y="5720" width="62.5" height="20" as="geometry" />
        </mxCell>
        <mxCell id="6q6do9RBU1fcBzbUBkZI-1" value="" style="rounded=0;whiteSpace=wrap;html=1;fillColor=#B9E0A5;strokeColor=#82b366;" parent="1" vertex="1">
          <mxGeometry y="6760" width="480" height="380" as="geometry" />
        </mxCell>
        <mxCell id="6q6do9RBU1fcBzbUBkZI-2" value="" style="endArrow=none;html=1;rounded=0;entryX=1;entryY=0.4;entryDx=0;entryDy=0;entryPerimeter=0;align=left;" parent="1" edge="1">
          <mxGeometry width="50" height="50" relative="1" as="geometry">
            <mxPoint x="520" y="6999.33" as="sourcePoint" />
            <mxPoint x="480" y="6999.33" as="targetPoint" />
          </mxGeometry>
        </mxCell>
        <mxCell id="6q6do9RBU1fcBzbUBkZI-3" value="" style="endArrow=none;html=1;rounded=0;entryX=1;entryY=0.4;entryDx=0;entryDy=0;entryPerimeter=0;align=left;" parent="1" edge="1">
          <mxGeometry width="50" height="50" relative="1" as="geometry">
            <mxPoint x="520" y="7099.33" as="sourcePoint" />
            <mxPoint x="480" y="7099.33" as="targetPoint" />
          </mxGeometry>
        </mxCell>
        <mxCell id="6q6do9RBU1fcBzbUBkZI-4" value="&lt;b&gt;701-710&lt;/b&gt;&lt;br&gt;71- Birth of Leon I Tari" style="text;html=1;strokeColor=none;fillColor=none;align=left;verticalAlign=middle;whiteSpace=wrap;rounded=0;" parent="1" vertex="1">
          <mxGeometry x="480" y="6999.33" width="120" height="100" as="geometry" />
        </mxCell>
        <mxCell id="6q6do9RBU1fcBzbUBkZI-7" value="" style="endArrow=none;html=1;rounded=0;entryX=1;entryY=0.4;entryDx=0;entryDy=0;entryPerimeter=0;align=left;" parent="1" edge="1">
          <mxGeometry width="50" height="50" relative="1" as="geometry">
            <mxPoint x="520" y="7200" as="sourcePoint" />
            <mxPoint x="480" y="7200" as="targetPoint" />
          </mxGeometry>
        </mxCell>
        <mxCell id="6q6do9RBU1fcBzbUBkZI-8" value="&lt;b&gt;711-720&lt;/b&gt;&lt;br&gt;712- Death of Laurence I Baun&lt;br&gt;714- Death of Morgana I Lacerta&lt;br&gt;714- Morgan II Hwyna crowned&lt;br&gt;715- Death of Elaine I Lacerta&lt;br&gt;715- Henry II Baun crowned&lt;br&gt;719- Birth of Hugo I Baun" style="text;html=1;strokeColor=none;fillColor=none;align=left;verticalAlign=middle;whiteSpace=wrap;rounded=0;" parent="1" vertex="1">
          <mxGeometry x="480" y="7100" width="180" height="100" as="geometry" />
        </mxCell>
        <mxCell id="6q6do9RBU1fcBzbUBkZI-10" value="" style="rounded=0;whiteSpace=wrap;html=1;fillColor=#B9E0A5;strokeColor=#82b366;" parent="1" vertex="1">
          <mxGeometry x="240" y="6780" width="240" height="370" as="geometry" />
        </mxCell>
        <mxCell id="6q6do9RBU1fcBzbUBkZI-13" value="" style="rounded=0;whiteSpace=wrap;html=1;fillColor=#fff2cc;strokeColor=#d6b656;" parent="1" vertex="1">
          <mxGeometry x="350" y="6779.33" width="120" height="340" as="geometry" />
        </mxCell>
        <mxCell id="6q6do9RBU1fcBzbUBkZI-15" value="" style="endArrow=none;html=1;rounded=0;entryX=1;entryY=0.4;entryDx=0;entryDy=0;entryPerimeter=0;align=left;" parent="1" edge="1">
          <mxGeometry width="50" height="50" relative="1" as="geometry">
            <mxPoint x="520" y="7200" as="sourcePoint" />
            <mxPoint x="480" y="7200" as="targetPoint" />
          </mxGeometry>
        </mxCell>
        <mxCell id="6q6do9RBU1fcBzbUBkZI-18" value="" style="endArrow=none;html=1;rounded=0;entryX=1;entryY=0.4;entryDx=0;entryDy=0;entryPerimeter=0;align=left;" parent="1" edge="1">
          <mxGeometry width="50" height="50" relative="1" as="geometry">
            <mxPoint x="520" y="7300.67" as="sourcePoint" />
            <mxPoint x="480" y="7300.67" as="targetPoint" />
          </mxGeometry>
        </mxCell>
        <mxCell id="6q6do9RBU1fcBzbUBkZI-19" value="&lt;b&gt;721-730&lt;/b&gt;&lt;br&gt;721- Crown Prince Erien Hwyna &amp;amp; Crown Princess Alexandra Baun wed&lt;br&gt;721- Death of Crown Prince Erien Hwyna &amp;amp; Crown Princess Alexandra Baun&lt;br style=&quot;border-color: var(--border-color);&quot;&gt;721- Death of Henry II Baun&lt;br&gt;721- Regency of Queen Mother Georgia Ertia begins&lt;br&gt;723- Death of Morgan II Hwyna&lt;br&gt;723- Lilianne I Hwyna crowned" style="text;html=1;align=left;verticalAlign=middle;resizable=1;points=[];autosize=1;strokeColor=none;fillColor=none;" parent="1" vertex="1">
          <mxGeometry x="480" y="7200" width="430" height="100" as="geometry" />
        </mxCell>
        <mxCell id="6q6do9RBU1fcBzbUBkZI-24" value="" style="endArrow=none;html=1;rounded=0;entryX=1;entryY=0.4;entryDx=0;entryDy=0;entryPerimeter=0;align=left;" parent="1" edge="1">
          <mxGeometry width="50" height="50" relative="1" as="geometry">
            <mxPoint x="519.9999999999998" y="7400" as="sourcePoint" />
            <mxPoint x="480" y="7400" as="targetPoint" />
          </mxGeometry>
        </mxCell>
        <mxCell id="6q6do9RBU1fcBzbUBkZI-25" value="" style="endArrow=none;html=1;rounded=0;entryX=1;entryY=0.4;entryDx=0;entryDy=0;entryPerimeter=0;align=left;" parent="1" edge="1">
          <mxGeometry width="50" height="50" relative="1" as="geometry">
            <mxPoint x="519.9999999999998" y="7400" as="sourcePoint" />
            <mxPoint x="480" y="7400" as="targetPoint" />
          </mxGeometry>
        </mxCell>
        <mxCell id="6q6do9RBU1fcBzbUBkZI-26" value="" style="endArrow=none;html=1;rounded=0;entryX=1;entryY=0.4;entryDx=0;entryDy=0;entryPerimeter=0;align=left;" parent="1" edge="1">
          <mxGeometry width="50" height="50" relative="1" as="geometry">
            <mxPoint x="519.9999999999998" y="7500.669999999999" as="sourcePoint" />
            <mxPoint x="480" y="7500.669999999999" as="targetPoint" />
          </mxGeometry>
        </mxCell>
        <mxCell id="6q6do9RBU1fcBzbUBkZI-27" value="&lt;b&gt;741-750&lt;/b&gt;&lt;br&gt;748- Death of Lilianne I Hwyna&lt;br&gt;750- Birth of Princess Lilianne Tari" style="text;html=1;align=left;verticalAlign=middle;resizable=1;points=[];autosize=1;strokeColor=none;fillColor=none;" parent="1" vertex="1">
          <mxGeometry x="480" y="7400" width="210" height="100" as="geometry" />
        </mxCell>
        <mxCell id="6q6do9RBU1fcBzbUBkZI-28" value="&lt;b&gt;731-740&lt;/b&gt;&lt;br&gt;731- Birth of Leon II Tari&lt;br&gt;731- Birth of Lauren I Baun&lt;br&gt;737- Birth of Crown Prince Victor Baun&lt;br&gt;739- Regency of Queen Mother Georgia Ertia ends&lt;br&gt;739- Hugo I Baun crowned" style="text;html=1;align=left;verticalAlign=middle;resizable=1;points=[];autosize=1;strokeColor=none;fillColor=none;" parent="1" vertex="1">
          <mxGeometry x="480" y="7300" width="300" height="100" as="geometry" />
        </mxCell>
        <mxCell id="6q6do9RBU1fcBzbUBkZI-29" value="" style="endArrow=none;html=1;rounded=0;entryX=1;entryY=0.4;entryDx=0;entryDy=0;entryPerimeter=0;align=left;" parent="1" edge="1">
          <mxGeometry width="50" height="50" relative="1" as="geometry">
            <mxPoint x="520" y="7600.669999999999" as="sourcePoint" />
            <mxPoint x="480" y="7600.669999999999" as="targetPoint" />
          </mxGeometry>
        </mxCell>
        <mxCell id="6q6do9RBU1fcBzbUBkZI-30" value="&lt;b&gt;751-760&lt;/b&gt;&lt;br&gt;758- Birth of Duncan IV Malum&lt;br&gt;760- Death of Leon I Tari&lt;br&gt;760- Leon II Tari crowned" style="text;html=1;align=left;verticalAlign=middle;resizable=1;points=[];autosize=1;strokeColor=none;fillColor=none;" parent="1" vertex="1">
          <mxGeometry x="480" y="7515" width="190" height="70" as="geometry" />
        </mxCell>
        <mxCell id="6q6do9RBU1fcBzbUBkZI-31" value="" style="endArrow=none;html=1;rounded=0;entryX=1;entryY=0.4;entryDx=0;entryDy=0;entryPerimeter=0;align=left;" parent="1" edge="1">
          <mxGeometry width="50" height="50" relative="1" as="geometry">
            <mxPoint x="520" y="7700.669999999999" as="sourcePoint" />
            <mxPoint x="480" y="7700.669999999999" as="targetPoint" />
          </mxGeometry>
        </mxCell>
        <mxCell id="6q6do9RBU1fcBzbUBkZI-32" value="&lt;b&gt;761-770&lt;/b&gt;&lt;br&gt;762- Crown Prince Victor Baun disinherited, treason&lt;br&gt;764- Birth of Sophie II Baun" style="text;html=1;align=left;verticalAlign=middle;resizable=1;points=[];autosize=1;strokeColor=none;fillColor=none;" parent="1" vertex="1">
          <mxGeometry x="480" y="7620" width="280" height="60" as="geometry" />
        </mxCell>
        <mxCell id="6q6do9RBU1fcBzbUBkZI-33" value="" style="endArrow=none;html=1;rounded=0;entryX=1;entryY=0.4;entryDx=0;entryDy=0;entryPerimeter=0;align=left;" parent="1" edge="1">
          <mxGeometry width="50" height="50" relative="1" as="geometry">
            <mxPoint x="520" y="7800.669999999999" as="sourcePoint" />
            <mxPoint x="480" y="7800.669999999999" as="targetPoint" />
          </mxGeometry>
        </mxCell>
        <mxCell id="6q6do9RBU1fcBzbUBkZI-34" value="&lt;b&gt;771-780&lt;/b&gt;&lt;br&gt;772- North Sulyion renamed Palorsenna" style="text;html=1;align=left;verticalAlign=middle;resizable=1;points=[];autosize=1;strokeColor=none;fillColor=none;" parent="1" vertex="1">
          <mxGeometry x="480" y="7730" width="240" height="40" as="geometry" />
        </mxCell>
        <mxCell id="6q6do9RBU1fcBzbUBkZI-35" value="" style="endArrow=none;html=1;rounded=0;entryX=1;entryY=0.4;entryDx=0;entryDy=0;entryPerimeter=0;align=left;" parent="1" edge="1">
          <mxGeometry width="50" height="50" relative="1" as="geometry">
            <mxPoint x="520" y="7900.669999999999" as="sourcePoint" />
            <mxPoint x="480" y="7900.669999999999" as="targetPoint" />
          </mxGeometry>
        </mxCell>
        <mxCell id="6q6do9RBU1fcBzbUBkZI-36" value="&lt;b&gt;781-790&lt;/b&gt;&lt;br&gt;783- Birth of Louise I Malum&lt;br&gt;785- Death of Hugo I Baun&lt;br&gt;785- Birth of Leon III Tari&lt;br&gt;786- John I Baun crowned&lt;br&gt;788 - South Sulyion renamed Lunaura" style="text;html=1;align=left;verticalAlign=middle;resizable=1;points=[];autosize=1;strokeColor=none;fillColor=none;" parent="1" vertex="1">
          <mxGeometry x="480" y="7800" width="210" height="100" as="geometry" />
        </mxCell>
        <mxCell id="6q6do9RBU1fcBzbUBkZI-37" value="" style="endArrow=none;html=1;rounded=0;entryX=1;entryY=0.4;entryDx=0;entryDy=0;entryPerimeter=0;align=left;" parent="1" edge="1">
          <mxGeometry width="50" height="50" relative="1" as="geometry">
            <mxPoint x="520" y="8000.669999999999" as="sourcePoint" />
            <mxPoint x="480" y="8000.669999999999" as="targetPoint" />
          </mxGeometry>
        </mxCell>
        <mxCell id="6q6do9RBU1fcBzbUBkZI-38" value="&lt;b&gt;791-800&lt;br&gt;&lt;/b&gt;704- Death of Victor Baun&lt;br&gt;797- Death of John I Baun&lt;br&gt;797- Sophie II Baun crowned&lt;br&gt;799- Universal Jure Uxoris passed in Lunaura&lt;br&gt;800- Death of Leon II Tari&lt;br&gt;800- Regency of Dowager Queen Hera Liven, Regency of Princess Lilianne Tari begins" style="text;html=1;align=left;verticalAlign=middle;resizable=1;points=[];autosize=1;strokeColor=none;fillColor=none;" parent="1" vertex="1">
          <mxGeometry x="480" y="7895" width="490" height="110" as="geometry" />
        </mxCell>
        <mxCell id="6q6do9RBU1fcBzbUBkZI-39" value="" style="endArrow=none;html=1;rounded=0;entryX=1;entryY=0.4;entryDx=0;entryDy=0;entryPerimeter=0;align=left;" parent="1" edge="1">
          <mxGeometry width="50" height="50" relative="1" as="geometry">
            <mxPoint x="520" y="8100.669999999998" as="sourcePoint" />
            <mxPoint x="480" y="8100.669999999998" as="targetPoint" />
          </mxGeometry>
        </mxCell>
        <mxCell id="6q6do9RBU1fcBzbUBkZI-40" value="&lt;b&gt;801-810&lt;/b&gt;&lt;br&gt;802- Death of Sophie II Baun&lt;br&gt;803- Lauren I Baun &amp;amp; Lewis I Malum crowned&lt;br&gt;805- Regency of Princess Lilianne Tari ends, Leon III Tari crowned&lt;br&gt;805- Lauren I Baun lifts the disinheritance of Crown Prince Victor&#39;s line in gesture of goodwill&lt;br&gt;809- Death of Lauren I Baun&lt;br&gt;809- Duncan IV Malum &amp;amp; Luna I Cetus crowned" style="text;html=1;align=left;verticalAlign=middle;resizable=1;points=[];autosize=1;strokeColor=none;fillColor=none;" parent="1" vertex="1">
          <mxGeometry x="480" y="8000" width="510" height="100" as="geometry" />
        </mxCell>
        <mxCell id="6q6do9RBU1fcBzbUBkZI-41" value="" style="endArrow=none;html=1;rounded=0;entryX=1;entryY=0.4;entryDx=0;entryDy=0;entryPerimeter=0;align=left;" parent="1" edge="1">
          <mxGeometry width="50" height="50" relative="1" as="geometry">
            <mxPoint x="520" y="8200.669999999998" as="sourcePoint" />
            <mxPoint x="480" y="8200.669999999998" as="targetPoint" />
          </mxGeometry>
        </mxCell>
        <mxCell id="6q6do9RBU1fcBzbUBkZI-42" value="&lt;b&gt;811-820&lt;/b&gt;&lt;br&gt;813- Death of Duncan IV Malum&lt;br&gt;814- Louise I Malum &amp;amp; Valentine I Ekster crowned&lt;br&gt;814- Birth of Olivia I Kagu&lt;br&gt;815- Birth of Leon IV/I Tari&lt;br&gt;819- Death of Princess Lilianne Tari" style="text;html=1;align=left;verticalAlign=middle;resizable=1;points=[];autosize=1;strokeColor=none;fillColor=none;" parent="1" vertex="1">
          <mxGeometry x="480" y="8100" width="290" height="100" as="geometry" />
        </mxCell>
        <mxCell id="6q6do9RBU1fcBzbUBkZI-43" value="" style="endArrow=none;html=1;rounded=0;entryX=1;entryY=0.4;entryDx=0;entryDy=0;entryPerimeter=0;align=left;" parent="1" edge="1">
          <mxGeometry width="50" height="50" relative="1" as="geometry">
            <mxPoint x="520" y="8300.669999999998" as="sourcePoint" />
            <mxPoint x="480" y="8300.669999999998" as="targetPoint" />
          </mxGeometry>
        </mxCell>
        <mxCell id="6q6do9RBU1fcBzbUBkZI-44" value="&lt;b&gt;821-830&lt;/b&gt;&lt;br&gt;829- Birth of Louise Ekster, claimant of the throne of Lunaura" style="text;html=1;align=left;verticalAlign=middle;resizable=1;points=[];autosize=1;strokeColor=none;fillColor=none;" parent="1" vertex="1">
          <mxGeometry x="480" y="8230" width="350" height="40" as="geometry" />
        </mxCell>
        <mxCell id="6q6do9RBU1fcBzbUBkZI-45" value="" style="rounded=0;whiteSpace=wrap;html=1;fillColor=#fff2cc;strokeColor=#d6b656;" parent="1" vertex="1">
          <mxGeometry x="240" y="7150" width="240" height="60" as="geometry" />
        </mxCell>
        <mxCell id="6q6do9RBU1fcBzbUBkZI-46" value="Henry II Baun" style="text;html=1;align=center;verticalAlign=middle;resizable=0;points=[];autosize=1;strokeColor=none;fillColor=none;" parent="1" vertex="1">
          <mxGeometry x="312.5" y="7150" width="100" height="30" as="geometry" />
        </mxCell>
        <mxCell id="6q6do9RBU1fcBzbUBkZI-48" value="" style="rounded=0;whiteSpace=wrap;html=1;fillColor=#fff2cc;strokeColor=#d6b656;" parent="1" vertex="1">
          <mxGeometry x="240" y="7210" width="240" height="640" as="geometry" />
        </mxCell>
        <mxCell id="6q6do9RBU1fcBzbUBkZI-49" value="" style="rounded=0;whiteSpace=wrap;html=1;" parent="1" vertex="1">
          <mxGeometry x="240" y="7210" width="80" height="180" as="geometry" />
        </mxCell>
        <mxCell id="6q6do9RBU1fcBzbUBkZI-50" value="" style="rounded=0;whiteSpace=wrap;html=1;fillColor=#fff2cc;strokeColor=#d6b656;" parent="1" vertex="1">
          <mxGeometry x="240" y="7850" width="240" height="120" as="geometry" />
        </mxCell>
        <mxCell id="6q6do9RBU1fcBzbUBkZI-51" value="John I Baun" style="text;html=1;align=center;verticalAlign=middle;resizable=0;points=[];autosize=1;strokeColor=none;fillColor=none;" parent="1" vertex="1">
          <mxGeometry x="317.5" y="7850" width="90" height="30" as="geometry" />
        </mxCell>
        <mxCell id="6q6do9RBU1fcBzbUBkZI-52" value="" style="rounded=0;whiteSpace=wrap;html=1;fillColor=#fff2cc;strokeColor=#d6b656;" parent="1" vertex="1">
          <mxGeometry x="240" y="7970" width="240" height="50" as="geometry" />
        </mxCell>
        <mxCell id="6q6do9RBU1fcBzbUBkZI-53" value="Sophie II Baun" style="text;html=1;align=center;verticalAlign=middle;resizable=0;points=[];autosize=1;strokeColor=none;fillColor=none;" parent="1" vertex="1">
          <mxGeometry x="312.5" y="7970" width="100" height="30" as="geometry" />
        </mxCell>
        <mxCell id="6q6do9RBU1fcBzbUBkZI-54" value="" style="rounded=0;whiteSpace=wrap;html=1;fillColor=#fff2cc;strokeColor=#d6b656;" parent="1" vertex="1">
          <mxGeometry x="240" y="8020" width="240" height="70" as="geometry" />
        </mxCell>
        <mxCell id="6q6do9RBU1fcBzbUBkZI-57" value="" style="rounded=0;whiteSpace=wrap;html=1;fillColor=#E0C28F;shadow=0;glass=0;strokeColor=#BFA67A;" parent="1" vertex="1">
          <mxGeometry x="350" y="8020" width="120" height="70" as="geometry" />
        </mxCell>
        <mxCell id="6q6do9RBU1fcBzbUBkZI-58" value="" style="rounded=0;whiteSpace=wrap;html=1;fillColor=#E0C28F;shadow=0;glass=0;strokeColor=#BFA67A;" parent="1" vertex="1">
          <mxGeometry x="240" y="8090" width="240" height="40" as="geometry" />
        </mxCell>
        <mxCell id="6q6do9RBU1fcBzbUBkZI-59" value="" style="rounded=0;whiteSpace=wrap;html=1;shadow=0;glass=0;fillColor=#E0C28F;strokeColor=#BFA67A;" parent="1" vertex="1">
          <mxGeometry x="240" y="8130" width="240" height="230" as="geometry" />
        </mxCell>
        <mxCell id="6q6do9RBU1fcBzbUBkZI-60" value="" style="rounded=0;whiteSpace=wrap;html=1;shadow=0;glass=0;fillColor=#5BCEFA;strokeColor=none;" parent="1" vertex="1">
          <mxGeometry x="350" y="8090" width="120" height="40" as="geometry" />
        </mxCell>
        <mxCell id="6q6do9RBU1fcBzbUBkZI-61" value="" style="rounded=0;whiteSpace=wrap;html=1;shadow=0;glass=0;fillColor=#5BCEFA;strokeColor=none;" parent="1" vertex="1">
          <mxGeometry x="350" y="8130" width="120" height="230" as="geometry" />
        </mxCell>
        <mxCell id="6q6do9RBU1fcBzbUBkZI-63" value="Olivia I Kagu" style="text;html=1;align=center;verticalAlign=middle;resizable=0;points=[];autosize=1;strokeColor=none;fillColor=none;" parent="1" vertex="1">
          <mxGeometry x="375" y="8355" width="90" height="30" as="geometry" />
        </mxCell>
        <mxCell id="6q6do9RBU1fcBzbUBkZI-66" value="Elaine I Lacerta" style="text;html=1;align=center;verticalAlign=middle;resizable=1;points=[];autosize=1;strokeColor=none;fillColor=none;" parent="1" vertex="1">
          <mxGeometry x="250" y="6780" width="100" height="30" as="geometry" />
        </mxCell>
        <mxCell id="6q6do9RBU1fcBzbUBkZI-67" value="Laurence I Baun" style="text;html=1;align=center;verticalAlign=middle;resizable=0;points=[];autosize=1;strokeColor=none;fillColor=none;" parent="1" vertex="1">
          <mxGeometry x="355" y="6780" width="110" height="30" as="geometry" />
        </mxCell>
        <mxCell id="6q6do9RBU1fcBzbUBkZI-68" value="Georgia" style="text;html=1;align=center;verticalAlign=middle;resizable=0;points=[];autosize=1;strokeColor=none;fillColor=none;" parent="1" vertex="1">
          <mxGeometry x="245" y="7200" width="70" height="30" as="geometry" />
        </mxCell>
        <mxCell id="6q6do9RBU1fcBzbUBkZI-70" value="Hugo I Baun" style="text;html=1;align=center;verticalAlign=middle;resizable=0;points=[];autosize=1;strokeColor=none;fillColor=none;" parent="1" vertex="1">
          <mxGeometry x="350" y="7210" width="90" height="30" as="geometry" />
        </mxCell>
        <mxCell id="6q6do9RBU1fcBzbUBkZI-71" value="Lauren I Baun" style="text;html=1;align=center;verticalAlign=middle;resizable=0;points=[];autosize=1;strokeColor=none;fillColor=none;" parent="1" vertex="1">
          <mxGeometry x="240" y="8020" width="100" height="30" as="geometry" />
        </mxCell>
        <mxCell id="6q6do9RBU1fcBzbUBkZI-72" value="Lewis I Malum" style="text;html=1;align=center;verticalAlign=middle;resizable=0;points=[];autosize=1;strokeColor=none;fillColor=none;" parent="1" vertex="1">
          <mxGeometry x="360" y="8020" width="100" height="30" as="geometry" />
        </mxCell>
        <mxCell id="6q6do9RBU1fcBzbUBkZI-73" value="Duncan IV Malum" style="text;html=1;align=center;verticalAlign=middle;resizable=0;points=[];autosize=1;strokeColor=none;fillColor=none;" parent="1" vertex="1">
          <mxGeometry x="235" y="8090" width="120" height="30" as="geometry" />
        </mxCell>
        <mxCell id="6q6do9RBU1fcBzbUBkZI-74" value="Luna I Cetus" style="text;html=1;align=center;verticalAlign=middle;resizable=0;points=[];autosize=1;strokeColor=none;fillColor=none;" parent="1" vertex="1">
          <mxGeometry x="365" y="8090" width="90" height="30" as="geometry" />
        </mxCell>
        <mxCell id="6q6do9RBU1fcBzbUBkZI-76" value="Louise I Malum" style="text;html=1;align=center;verticalAlign=middle;resizable=0;points=[];autosize=1;strokeColor=none;fillColor=none;" parent="1" vertex="1">
          <mxGeometry x="245" y="8130" width="100" height="30" as="geometry" />
        </mxCell>
        <mxCell id="6q6do9RBU1fcBzbUBkZI-77" value="Valentine I Ekster" style="text;html=1;align=center;verticalAlign=middle;resizable=0;points=[];autosize=1;strokeColor=none;fillColor=none;" parent="1" vertex="1">
          <mxGeometry x="350" y="8130" width="120" height="30" as="geometry" />
        </mxCell>
        <mxCell id="kPfp8V8Z2DP5ROhl0CX0-3" value="Juno" style="text;html=1;strokeColor=none;fillColor=none;align=center;verticalAlign=middle;whiteSpace=wrap;rounded=0;" parent="1" vertex="1">
          <mxGeometry x="15" y="5430" width="40" height="20" as="geometry" />
        </mxCell>
        <mxCell id="kPfp8V8Z2DP5ROhl0CX0-4" value="" style="rounded=0;whiteSpace=wrap;html=1;fillColor=#ffe6cc;strokeColor=#d79b00;" parent="1" vertex="1">
          <mxGeometry x="10" y="6760" width="120" height="210" as="geometry" />
        </mxCell>
        <mxCell id="kPfp8V8Z2DP5ROhl0CX0-5" value="Morgana I Lacerta" style="text;html=1;strokeColor=none;fillColor=none;align=center;verticalAlign=middle;whiteSpace=wrap;rounded=0;" parent="1" vertex="1">
          <mxGeometry x="190" y="6760" width="100" height="20" as="geometry" />
        </mxCell>
        <mxCell id="kPfp8V8Z2DP5ROhl0CX0-6" value="Erien I Hwyna" style="text;html=1;strokeColor=none;fillColor=none;align=center;verticalAlign=middle;whiteSpace=wrap;rounded=0;" parent="1" vertex="1">
          <mxGeometry x="25" y="6760" width="90" height="20" as="geometry" />
        </mxCell>
        <mxCell id="kPfp8V8Z2DP5ROhl0CX0-7" value="" style="rounded=0;whiteSpace=wrap;html=1;fillColor=#ffe6cc;strokeColor=#d79b00;" parent="1" vertex="1">
          <mxGeometry y="7140" width="240" height="90" as="geometry" />
        </mxCell>
        <mxCell id="kPfp8V8Z2DP5ROhl0CX0-8" value="" style="rounded=0;whiteSpace=wrap;html=1;fillColor=#ffe6cc;strokeColor=#d79b00;" parent="1" vertex="1">
          <mxGeometry y="7230" width="240" height="250" as="geometry" />
        </mxCell>
        <mxCell id="kPfp8V8Z2DP5ROhl0CX0-9" value="" style="rounded=0;whiteSpace=wrap;html=1;fillColor=#f8cecc;strokeColor=#b85450;" parent="1" vertex="1">
          <mxGeometry y="7480" width="240" height="120" as="geometry" />
        </mxCell>
        <mxCell id="kPfp8V8Z2DP5ROhl0CX0-10" value="" style="rounded=0;whiteSpace=wrap;html=1;fillColor=#f8cecc;strokeColor=#b85450;" parent="1" vertex="1">
          <mxGeometry y="7600" width="240" height="400" as="geometry" />
        </mxCell>
        <mxCell id="kPfp8V8Z2DP5ROhl0CX0-11" value="" style="endArrow=none;html=1;rounded=0;entryX=1;entryY=0.4;entryDx=0;entryDy=0;entryPerimeter=0;align=left;" parent="1" edge="1">
          <mxGeometry width="50" height="50" relative="1" as="geometry">
            <mxPoint x="520" y="8400.669999999998" as="sourcePoint" />
            <mxPoint x="480" y="8400.669999999998" as="targetPoint" />
          </mxGeometry>
        </mxCell>
        <mxCell id="kPfp8V8Z2DP5ROhl0CX0-12" value="&lt;b&gt;831-840&lt;/b&gt;&lt;br&gt;835-Leon VI/I Tari and Olivia I Kagu wed&lt;br&gt;836- Death of Louise I Malum&lt;br style=&quot;border-color: var(--border-color);&quot;&gt;836- Valentine I Ekster leads a revolt against Olivia I Kagu&lt;br&gt;837- Olivia I Kagu and Leon VI/I Tari crowned over Lunaura in Palorsenna" style="text;html=1;align=left;verticalAlign=middle;resizable=1;points=[];autosize=1;strokeColor=none;fillColor=none;" parent="1" vertex="1">
          <mxGeometry x="480" y="8305" width="400" height="90" as="geometry" />
        </mxCell>
        <mxCell id="kPfp8V8Z2DP5ROhl0CX0-13" value="" style="endArrow=none;html=1;rounded=0;entryX=1;entryY=0.4;entryDx=0;entryDy=0;entryPerimeter=0;align=left;" parent="1" edge="1">
          <mxGeometry width="50" height="50" relative="1" as="geometry">
            <mxPoint x="520" y="8500.669999999998" as="sourcePoint" />
            <mxPoint x="480" y="8500.669999999998" as="targetPoint" />
          </mxGeometry>
        </mxCell>
        <mxCell id="kPfp8V8Z2DP5ROhl0CX0-14" value="&lt;b&gt;841-850&lt;/b&gt;&lt;br&gt;846- Death of Leon III Tari&lt;br&gt;846- Leon VI/I Tari crowned over Palorsenna" style="text;html=1;align=left;verticalAlign=middle;resizable=1;points=[];autosize=1;strokeColor=none;fillColor=none;" parent="1" vertex="1">
          <mxGeometry x="480" y="8420" width="260" height="60" as="geometry" />
        </mxCell>
        <mxCell id="kPfp8V8Z2DP5ROhl0CX0-15" value="" style="rounded=0;whiteSpace=wrap;html=1;fillColor=#f8cecc;strokeColor=#b85450;" parent="1" vertex="1">
          <mxGeometry y="8000" width="240" height="460" as="geometry" />
        </mxCell>
        <mxCell id="kPfp8V8Z2DP5ROhl0CX0-17" value="" style="endArrow=none;html=1;rounded=0;entryX=1;entryY=0.4;entryDx=0;entryDy=0;entryPerimeter=0;align=left;" parent="1" edge="1">
          <mxGeometry width="50" height="50" relative="1" as="geometry">
            <mxPoint x="520" y="8600.669999999998" as="sourcePoint" />
            <mxPoint x="480" y="8600.669999999998" as="targetPoint" />
          </mxGeometry>
        </mxCell>
        <mxCell id="kPfp8V8Z2DP5ROhl0CX0-18" value="&lt;b&gt;851-860&lt;/b&gt;" style="text;html=1;align=left;verticalAlign=middle;resizable=1;points=[];autosize=1;strokeColor=none;fillColor=none;" parent="1" vertex="1">
          <mxGeometry x="480" y="8500" width="70" height="100" as="geometry" />
        </mxCell>
        <mxCell id="kPfp8V8Z2DP5ROhl0CX0-19" value="" style="endArrow=none;html=1;rounded=0;entryX=1;entryY=0.4;entryDx=0;entryDy=0;entryPerimeter=0;align=left;" parent="1" edge="1">
          <mxGeometry width="50" height="50" relative="1" as="geometry">
            <mxPoint x="520" y="8700.669999999998" as="sourcePoint" />
            <mxPoint x="480" y="8700.669999999998" as="targetPoint" />
          </mxGeometry>
        </mxCell>
        <mxCell id="kPfp8V8Z2DP5ROhl0CX0-20" value="&lt;b&gt;861-870&lt;/b&gt;" style="text;html=1;align=left;verticalAlign=middle;resizable=1;points=[];autosize=1;strokeColor=none;fillColor=none;" parent="1" vertex="1">
          <mxGeometry x="480" y="8600" width="70" height="100" as="geometry" />
        </mxCell>
        <mxCell id="kPfp8V8Z2DP5ROhl0CX0-21" value="" style="endArrow=none;html=1;rounded=0;entryX=1;entryY=0.4;entryDx=0;entryDy=0;entryPerimeter=0;align=left;" parent="1" edge="1">
          <mxGeometry width="50" height="50" relative="1" as="geometry">
            <mxPoint x="520" y="8800.669999999998" as="sourcePoint" />
            <mxPoint x="480" y="8800.669999999998" as="targetPoint" />
          </mxGeometry>
        </mxCell>
        <mxCell id="kPfp8V8Z2DP5ROhl0CX0-22" value="&lt;b&gt;871-880&lt;/b&gt;&lt;br&gt;871- Birth of Leon V/II Tari" style="text;html=1;align=left;verticalAlign=middle;resizable=0;points=[];autosize=1;strokeColor=none;fillColor=none;" parent="1" vertex="1">
          <mxGeometry x="480" y="8700" width="320" height="100" as="geometry" />
        </mxCell>
        <mxCell id="kPfp8V8Z2DP5ROhl0CX0-23" value="Morgan II Hwyna" style="text;html=1;strokeColor=none;fillColor=none;align=center;verticalAlign=middle;whiteSpace=wrap;rounded=0;" parent="1" vertex="1">
          <mxGeometry x="72.5" y="7140" width="95" height="20" as="geometry" />
        </mxCell>
        <mxCell id="kPfp8V8Z2DP5ROhl0CX0-25" value="Lilianne I Hwyna" style="text;html=1;strokeColor=none;fillColor=none;align=center;verticalAlign=middle;whiteSpace=wrap;rounded=0;" parent="1" vertex="1">
          <mxGeometry x="70" y="7230" width="100" height="20" as="geometry" />
        </mxCell>
        <mxCell id="kPfp8V8Z2DP5ROhl0CX0-26" value="Leon I Tari" style="text;html=1;strokeColor=none;fillColor=none;align=center;verticalAlign=middle;whiteSpace=wrap;rounded=0;" parent="1" vertex="1">
          <mxGeometry x="85" y="7480" width="70" height="20" as="geometry" />
        </mxCell>
        <mxCell id="kPfp8V8Z2DP5ROhl0CX0-27" value="Leon II Tari" style="text;html=1;strokeColor=none;fillColor=none;align=center;verticalAlign=middle;whiteSpace=wrap;rounded=0;" parent="1" vertex="1">
          <mxGeometry x="85" y="7600" width="70" height="20" as="geometry" />
        </mxCell>
        <mxCell id="kPfp8V8Z2DP5ROhl0CX0-28" value="Leon III Tari" style="text;html=1;strokeColor=none;fillColor=none;align=center;verticalAlign=middle;whiteSpace=wrap;rounded=0;" parent="1" vertex="1">
          <mxGeometry x="85" y="8000" width="70" height="20" as="geometry" />
        </mxCell>
        <mxCell id="kPfp8V8Z2DP5ROhl0CX0-29" value="Leon IV/I Tari" style="text;html=1;strokeColor=none;fillColor=none;align=center;verticalAlign=middle;whiteSpace=wrap;rounded=0;" parent="1" vertex="1">
          <mxGeometry x="262.5" y="8360" width="75" height="20" as="geometry" />
        </mxCell>
        <mxCell id="kPfp8V8Z2DP5ROhl0CX0-31" value="" style="rounded=0;whiteSpace=wrap;html=1;" parent="1" vertex="1">
          <mxGeometry y="8000" width="80" height="50" as="geometry" />
        </mxCell>
        <mxCell id="kPfp8V8Z2DP5ROhl0CX0-30" value="" style="rounded=0;whiteSpace=wrap;html=1;" parent="1" vertex="1">
          <mxGeometry y="8000" width="40" height="10" as="geometry" />
        </mxCell>
        <mxCell id="kPfp8V8Z2DP5ROhl0CX0-33" value="Lilianne" style="text;html=1;align=center;verticalAlign=middle;resizable=1;points=[];autosize=1;strokeColor=none;fillColor=none;resizeHeight=1;resizeWidth=1;" parent="1" vertex="1">
          <mxGeometry x="8.139999999999986" y="8010" width="60" height="15" as="geometry" />
        </mxCell>
        <mxCell id="kPfp8V8Z2DP5ROhl0CX0-32" value="Hera" style="text;html=1;align=center;verticalAlign=middle;resizable=1;points=[];autosize=1;strokeColor=none;fillColor=none;resizeHeight=1;resizeWidth=1;" parent="1" vertex="1">
          <mxGeometry x="5" y="8000" width="30" height="10" as="geometry" />
        </mxCell>
        <mxCell id="kPfp8V8Z2DP5ROhl0CX0-34" value="" style="endArrow=none;html=1;rounded=0;entryX=1;entryY=0.4;entryDx=0;entryDy=0;entryPerimeter=0;align=left;" parent="1" edge="1">
          <mxGeometry width="50" height="50" relative="1" as="geometry">
            <mxPoint x="520" y="8900.669999999998" as="sourcePoint" />
            <mxPoint x="480" y="8900.669999999998" as="targetPoint" />
          </mxGeometry>
        </mxCell>
        <mxCell id="kPfp8V8Z2DP5ROhl0CX0-35" value="&lt;b&gt;881-890&lt;/b&gt;&lt;br&gt;885- Death of Leon VI/I Tari&lt;br&gt;885- Regency of Crown Princess Lilianne Pici begins&lt;br&gt;886- Death of Olivia I Kagu&lt;br&gt;886- Leon V/II crowned over Palorsenna and Lunaura&lt;br&gt;888- Sulyion House of Lords established" style="text;html=1;align=left;verticalAlign=middle;resizable=1;points=[];autosize=1;strokeColor=none;fillColor=none;" parent="1" vertex="1">
          <mxGeometry x="480" y="8800" width="310" height="100" as="geometry" />
        </mxCell>
        <mxCell id="p9aOizVDa8fd-qw6wq67-1" value="" style="endArrow=none;html=1;rounded=0;entryX=1;entryY=0.4;entryDx=0;entryDy=0;entryPerimeter=0;align=left;" parent="1" edge="1">
          <mxGeometry width="50" height="50" relative="1" as="geometry">
            <mxPoint x="520" y="9000.669999999998" as="sourcePoint" />
            <mxPoint x="480" y="9000.669999999998" as="targetPoint" />
          </mxGeometry>
        </mxCell>
        <mxCell id="p9aOizVDa8fd-qw6wq67-2" value="&lt;b&gt;891-900&lt;/b&gt;&lt;br&gt;891- Regency of Crown Princess Lilianne Pici ends&lt;br&gt;900- Leon V/II and Elizabeth II Ceros wed&lt;br&gt;900- Elizabeth II Ceros crowned over Lunaura" style="text;html=1;align=left;verticalAlign=middle;resizable=1;points=[];autosize=1;strokeColor=none;fillColor=none;resizeWidth=1;" parent="1" vertex="1">
          <mxGeometry x="480" y="8915" width="300" height="70" as="geometry" />
        </mxCell>
        <mxCell id="p9aOizVDa8fd-qw6wq67-3" value="" style="endArrow=none;html=1;rounded=0;entryX=1;entryY=0.4;entryDx=0;entryDy=0;entryPerimeter=0;align=left;" parent="1" edge="1">
          <mxGeometry width="50" height="50" relative="1" as="geometry">
            <mxPoint x="520" y="9100.669999999998" as="sourcePoint" />
            <mxPoint x="480" y="9100.669999999998" as="targetPoint" />
          </mxGeometry>
        </mxCell>
        <mxCell id="p9aOizVDa8fd-qw6wq67-4" value="&lt;b&gt;901-910&lt;/b&gt;&lt;br&gt;903- Birth of Leonora I Tari" style="text;html=1;align=left;verticalAlign=middle;resizable=1;points=[];autosize=1;strokeColor=none;fillColor=none;resizeWidth=1;" parent="1" vertex="1">
          <mxGeometry x="480" y="9030" width="170" height="40" as="geometry" />
        </mxCell>
        <mxCell id="p9aOizVDa8fd-qw6wq67-5" value="" style="endArrow=none;html=1;rounded=0;" parent="1" edge="1">
          <mxGeometry width="50" height="50" relative="1" as="geometry">
            <mxPoint x="520" y="12100" as="sourcePoint" />
            <mxPoint x="480" y="12100" as="targetPoint" />
          </mxGeometry>
        </mxCell>
        <mxCell id="p9aOizVDa8fd-qw6wq67-7" value="" style="endArrow=none;html=1;rounded=0;" parent="1" edge="1">
          <mxGeometry width="50" height="50" relative="1" as="geometry">
            <mxPoint x="520" y="9200" as="sourcePoint" />
            <mxPoint x="480" y="9200" as="targetPoint" />
          </mxGeometry>
        </mxCell>
        <mxCell id="p9aOizVDa8fd-qw6wq67-8" value="&lt;b&gt;911-920&lt;/b&gt;" style="text;html=1;strokeColor=none;fillColor=none;align=left;verticalAlign=middle;whiteSpace=wrap;rounded=0;" parent="1" vertex="1">
          <mxGeometry x="480" y="9100" width="120" height="100" as="geometry" />
        </mxCell>
        <mxCell id="p9aOizVDa8fd-qw6wq67-9" value="" style="endArrow=none;html=1;rounded=0;" parent="1" edge="1">
          <mxGeometry width="50" height="50" relative="1" as="geometry">
            <mxPoint x="520" y="9300" as="sourcePoint" />
            <mxPoint x="480" y="9300" as="targetPoint" />
          </mxGeometry>
        </mxCell>
        <mxCell id="p9aOizVDa8fd-qw6wq67-10" value="&lt;b&gt;921-930&lt;/b&gt;&lt;br&gt;926- Leonora I Tari and Arthur II Primula wed" style="text;html=1;strokeColor=none;fillColor=none;align=left;verticalAlign=middle;whiteSpace=wrap;rounded=0;" parent="1" vertex="1">
          <mxGeometry x="480" y="9200" width="250" height="100" as="geometry" />
        </mxCell>
        <mxCell id="p9aOizVDa8fd-qw6wq67-11" value="" style="endArrow=none;html=1;rounded=0;" parent="1" edge="1">
          <mxGeometry width="50" height="50" relative="1" as="geometry">
            <mxPoint x="520" y="9400" as="sourcePoint" />
            <mxPoint x="480" y="9400" as="targetPoint" />
          </mxGeometry>
        </mxCell>
        <mxCell id="p9aOizVDa8fd-qw6wq67-12" value="&lt;b&gt;931-940&lt;/b&gt;&lt;br&gt;935- Birth of Ellis I Primula&amp;nbsp;" style="text;html=1;strokeColor=none;fillColor=none;align=left;verticalAlign=middle;whiteSpace=wrap;rounded=0;" parent="1" vertex="1">
          <mxGeometry x="480" y="9300" width="150" height="100" as="geometry" />
        </mxCell>
        <mxCell id="p9aOizVDa8fd-qw6wq67-13" value="" style="endArrow=none;html=1;rounded=0;" parent="1" edge="1">
          <mxGeometry width="50" height="50" relative="1" as="geometry">
            <mxPoint x="520" y="9500" as="sourcePoint" />
            <mxPoint x="480" y="9500" as="targetPoint" />
          </mxGeometry>
        </mxCell>
        <mxCell id="p9aOizVDa8fd-qw6wq67-14" value="&lt;b&gt;941-950&lt;/b&gt;&lt;br&gt;943- Death of Leon V/II Tari&lt;br&gt;944- Leonora I Tari crowned over Palorsenna and Lunaura &amp;amp; Arthur II Primula crowned over Lunaura" style="text;html=1;strokeColor=none;fillColor=none;align=left;verticalAlign=middle;whiteSpace=wrap;rounded=0;" parent="1" vertex="1">
          <mxGeometry x="480" y="9400" width="540" height="100" as="geometry" />
        </mxCell>
        <mxCell id="p9aOizVDa8fd-qw6wq67-15" value="" style="endArrow=none;html=1;rounded=0;" parent="1" edge="1">
          <mxGeometry width="50" height="50" relative="1" as="geometry">
            <mxPoint x="520" y="9600" as="sourcePoint" />
            <mxPoint x="480" y="9600" as="targetPoint" />
          </mxGeometry>
        </mxCell>
        <mxCell id="p9aOizVDa8fd-qw6wq67-16" value="&lt;b&gt;951-960&lt;/b&gt;&lt;br&gt;953- Ellis I Primula and Morgana I Balena wed" style="text;html=1;strokeColor=none;fillColor=none;align=left;verticalAlign=middle;whiteSpace=wrap;rounded=0;" parent="1" vertex="1">
          <mxGeometry x="480" y="9500" width="260" height="100" as="geometry" />
        </mxCell>
        <mxCell id="p9aOizVDa8fd-qw6wq67-17" value="" style="endArrow=none;html=1;rounded=0;" parent="1" edge="1">
          <mxGeometry width="50" height="50" relative="1" as="geometry">
            <mxPoint x="520" y="9700" as="sourcePoint" />
            <mxPoint x="480" y="9700" as="targetPoint" />
          </mxGeometry>
        </mxCell>
        <mxCell id="p9aOizVDa8fd-qw6wq67-18" value="&lt;b&gt;961-970&lt;/b&gt;" style="text;html=1;strokeColor=none;fillColor=none;align=left;verticalAlign=middle;whiteSpace=wrap;rounded=0;" parent="1" vertex="1">
          <mxGeometry x="480" y="9600" width="120" height="100" as="geometry" />
        </mxCell>
        <mxCell id="p9aOizVDa8fd-qw6wq67-19" value="" style="endArrow=none;html=1;rounded=0;" parent="1" edge="1">
          <mxGeometry width="50" height="50" relative="1" as="geometry">
            <mxPoint x="520" y="9800" as="sourcePoint" />
            <mxPoint x="480" y="9800" as="targetPoint" />
          </mxGeometry>
        </mxCell>
        <mxCell id="p9aOizVDa8fd-qw6wq67-20" value="&lt;b&gt;971-980&lt;/b&gt;&lt;br&gt;975- Birth of Elliot I Primula" style="text;html=1;strokeColor=none;fillColor=none;align=left;verticalAlign=middle;whiteSpace=wrap;rounded=0;" parent="1" vertex="1">
          <mxGeometry x="480" y="9700" width="150" height="100" as="geometry" />
        </mxCell>
        <mxCell id="p9aOizVDa8fd-qw6wq67-21" value="" style="endArrow=none;html=1;rounded=0;" parent="1" edge="1">
          <mxGeometry width="50" height="50" relative="1" as="geometry">
            <mxPoint x="520" y="9900" as="sourcePoint" />
            <mxPoint x="480" y="9900" as="targetPoint" />
          </mxGeometry>
        </mxCell>
        <mxCell id="p9aOizVDa8fd-qw6wq67-22" value="&lt;b&gt;981-990&lt;/b&gt;&lt;br&gt;982- Death of Leonora I Tari&lt;br&gt;982- Ellis I Primula crowned over Palorsenna and Lunaura &amp;amp; Morgan I Balena crowned over Lunaura&lt;br&gt;983- Death of Morgan I Ballena (assasination)" style="text;html=1;strokeColor=none;fillColor=none;align=left;verticalAlign=middle;whiteSpace=wrap;rounded=0;" parent="1" vertex="1">
          <mxGeometry x="480" y="9800" width="540" height="100" as="geometry" />
        </mxCell>
        <mxCell id="p9aOizVDa8fd-qw6wq67-24" value="&lt;b&gt;991-1000&lt;/b&gt;&lt;br&gt;996- Elliot I Primula and Luna II Artun wed&lt;br&gt;996- Death of Ellis I Primula&lt;br&gt;997- Birth of Adam II Primula&lt;br&gt;999- Elliot I Primula crowned over Palorsenna and Lunaura &amp;amp; Luna II Artun crowned over Lunaura" style="text;html=1;strokeColor=none;fillColor=none;align=left;verticalAlign=middle;whiteSpace=wrap;rounded=0;" parent="1" vertex="1">
          <mxGeometry x="480" y="9900" width="530" height="100" as="geometry" />
        </mxCell>
        <mxCell id="p9aOizVDa8fd-qw6wq67-27" value="" style="endArrow=none;html=1;rounded=0;entryX=1;entryY=0.4;entryDx=0;entryDy=0;entryPerimeter=0;align=left;" parent="1" edge="1">
          <mxGeometry width="50" height="50" relative="1" as="geometry">
            <mxPoint x="520" y="9999.999999999998" as="sourcePoint" />
            <mxPoint x="480" y="9999.999999999998" as="targetPoint" />
          </mxGeometry>
        </mxCell>
        <mxCell id="pdcznW-mLiutUTcBKjFM-3" style="edgeStyle=orthogonalEdgeStyle;rounded=0;orthogonalLoop=1;jettySize=auto;html=1;exitX=0.5;exitY=1;exitDx=0;exitDy=0;" parent="1" source="p9aOizVDa8fd-qw6wq67-12" target="p9aOizVDa8fd-qw6wq67-12" edge="1">
          <mxGeometry relative="1" as="geometry" />
        </mxCell>
        <mxCell id="pdcznW-mLiutUTcBKjFM-4" value="" style="rounded=0;whiteSpace=wrap;html=1;shadow=0;glass=0;fillColor=#5BCEFA;strokeColor=none;" parent="1" vertex="1">
          <mxGeometry x="350" y="8990" width="120" height="440" as="geometry" />
        </mxCell>
        <mxCell id="pdcznW-mLiutUTcBKjFM-5" value="Leon V/II Tari" style="text;html=1;strokeColor=none;fillColor=none;align=center;verticalAlign=middle;whiteSpace=wrap;rounded=0;" parent="1" vertex="1">
          <mxGeometry x="81.25" y="8850" width="77.5" height="20" as="geometry" />
        </mxCell>
        <mxCell id="pdcznW-mLiutUTcBKjFM-6" value="Elizabeth II Ceros" style="text;html=1;strokeColor=none;fillColor=none;align=center;verticalAlign=middle;whiteSpace=wrap;rounded=0;" parent="1" vertex="1">
          <mxGeometry x="360" y="8990" width="100" height="20" as="geometry" />
        </mxCell>
        <mxCell id="pdcznW-mLiutUTcBKjFM-7" value="" style="rounded=0;whiteSpace=wrap;html=1;" parent="1" vertex="1">
          <mxGeometry y="8850" width="80" height="60" as="geometry" />
        </mxCell>
        <mxCell id="pdcznW-mLiutUTcBKjFM-8" value="Lilianne" style="text;html=1;align=center;verticalAlign=middle;resizable=1;points=[];autosize=1;strokeColor=none;fillColor=none;resizeHeight=1;resizeWidth=1;" parent="1" vertex="1">
          <mxGeometry x="8.129999999999995" y="8850" width="60" height="15" as="geometry" />
        </mxCell>
        <mxCell id="pdcznW-mLiutUTcBKjFM-9" value="" style="rounded=0;whiteSpace=wrap;html=1;fillColor=#f8cecc;strokeColor=#b85450;" parent="1" vertex="1">
          <mxGeometry y="9430" width="480" height="390" as="geometry" />
        </mxCell>
        <mxCell id="pdcznW-mLiutUTcBKjFM-10" value="" style="rounded=0;whiteSpace=wrap;html=1;shadow=0;glass=0;fillColor=#e1d5e7;strokeColor=#9673a6;" parent="1" vertex="1">
          <mxGeometry x="350" y="9430" width="120" height="320" as="geometry" />
        </mxCell>
        <mxCell id="pdcznW-mLiutUTcBKjFM-11" value="Arthur II Primula" style="text;html=1;strokeColor=none;fillColor=none;align=center;verticalAlign=middle;whiteSpace=wrap;rounded=0;" parent="1" vertex="1">
          <mxGeometry x="360" y="9430" width="100" height="20" as="geometry" />
        </mxCell>
        <mxCell id="pdcznW-mLiutUTcBKjFM-12" value="Leonora I Tari" style="text;html=1;strokeColor=none;fillColor=none;align=center;verticalAlign=middle;whiteSpace=wrap;rounded=0;" parent="1" vertex="1">
          <mxGeometry x="190" y="9430" width="100" height="20" as="geometry" />
        </mxCell>
        <mxCell id="pdcznW-mLiutUTcBKjFM-13" value="" style="rounded=0;whiteSpace=wrap;html=1;shadow=0;glass=0;fillColor=#e1d5e7;strokeColor=#9673a6;" parent="1" vertex="1">
          <mxGeometry y="9820" width="480" height="140" as="geometry" />
        </mxCell>
        <mxCell id="pdcznW-mLiutUTcBKjFM-14" value="Ellis I Primula" style="text;html=1;strokeColor=none;fillColor=none;align=center;verticalAlign=middle;whiteSpace=wrap;rounded=0;" parent="1" vertex="1">
          <mxGeometry x="200" y="9820" width="80" height="20" as="geometry" />
        </mxCell>
        <mxCell id="pdcznW-mLiutUTcBKjFM-16" value="" style="rounded=0;whiteSpace=wrap;html=1;shadow=0;glass=0;fillColor=#5BCEFA;strokeColor=none;" parent="1" vertex="1">
          <mxGeometry x="350" y="9820" width="120" height="10" as="geometry" />
        </mxCell>
        <mxCell id="pdcznW-mLiutUTcBKjFM-17" value="Morgana I Balena" style="text;html=1;strokeColor=none;fillColor=none;align=center;verticalAlign=middle;whiteSpace=wrap;rounded=0;" parent="1" vertex="1">
          <mxGeometry x="360" y="9817.5" width="100" height="15" as="geometry" />
        </mxCell>
        <mxCell id="pdcznW-mLiutUTcBKjFM-18" value="" style="rounded=0;whiteSpace=wrap;html=1;shadow=0;glass=0;fillColor=#e1d5e7;strokeColor=#9673a6;" parent="1" vertex="1">
          <mxGeometry y="9960" width="480" height="700" as="geometry" />
        </mxCell>
        <mxCell id="pdcznW-mLiutUTcBKjFM-19" value="Elliot I Primula" style="text;html=1;strokeColor=none;fillColor=none;align=center;verticalAlign=middle;whiteSpace=wrap;rounded=0;" parent="1" vertex="1">
          <mxGeometry x="200" y="9960" width="80" height="20" as="geometry" />
        </mxCell>
        <mxCell id="pdcznW-mLiutUTcBKjFM-24" value="&lt;b&gt;1201-1210&lt;/b&gt;&lt;br&gt;1204- Birth of Ellis II Dendron" style="text;html=1;strokeColor=none;fillColor=none;align=left;verticalAlign=middle;whiteSpace=wrap;rounded=0;" parent="1" vertex="1">
          <mxGeometry x="480" y="12000" width="280" height="100" as="geometry" />
        </mxCell>
        <mxCell id="pdcznW-mLiutUTcBKjFM-25" value="" style="endArrow=none;html=1;rounded=0;" parent="1" edge="1">
          <mxGeometry width="50" height="50" relative="1" as="geometry">
            <mxPoint x="520" y="10100" as="sourcePoint" />
            <mxPoint x="480" y="10100" as="targetPoint" />
          </mxGeometry>
        </mxCell>
        <mxCell id="pdcznW-mLiutUTcBKjFM-26" value="&lt;b&gt;1001-1010&lt;/b&gt;" style="text;html=1;strokeColor=none;fillColor=none;align=left;verticalAlign=middle;whiteSpace=wrap;rounded=0;" parent="1" vertex="1">
          <mxGeometry x="480" y="10000" width="100" height="100" as="geometry" />
        </mxCell>
        <mxCell id="pdcznW-mLiutUTcBKjFM-27" value="" style="endArrow=none;html=1;rounded=0;" parent="1" edge="1">
          <mxGeometry width="50" height="50" relative="1" as="geometry">
            <mxPoint x="520" y="10200" as="sourcePoint" />
            <mxPoint x="480" y="10200" as="targetPoint" />
          </mxGeometry>
        </mxCell>
        <mxCell id="pdcznW-mLiutUTcBKjFM-28" value="&lt;b&gt;1011-1020&lt;/b&gt;" style="text;html=1;strokeColor=none;fillColor=none;align=left;verticalAlign=middle;whiteSpace=wrap;rounded=0;" parent="1" vertex="1">
          <mxGeometry x="480" y="10100" width="100" height="100" as="geometry" />
        </mxCell>
        <mxCell id="pdcznW-mLiutUTcBKjFM-31" value="" style="endArrow=none;html=1;rounded=0;" parent="1" edge="1">
          <mxGeometry width="50" height="50" relative="1" as="geometry">
            <mxPoint x="520" y="10300" as="sourcePoint" />
            <mxPoint x="480" y="10300" as="targetPoint" />
          </mxGeometry>
        </mxCell>
        <mxCell id="pdcznW-mLiutUTcBKjFM-32" value="&lt;b&gt;1021-1030&lt;/b&gt;&lt;br&gt;10280- Adam II Primula and Lilianne I Veton wed" style="text;html=1;strokeColor=none;fillColor=none;align=left;verticalAlign=middle;whiteSpace=wrap;rounded=0;" parent="1" vertex="1">
          <mxGeometry x="480" y="10200" width="320" height="100" as="geometry" />
        </mxCell>
        <mxCell id="pdcznW-mLiutUTcBKjFM-33" value="" style="endArrow=none;html=1;rounded=0;" parent="1" edge="1">
          <mxGeometry width="50" height="50" relative="1" as="geometry">
            <mxPoint x="520" y="10400" as="sourcePoint" />
            <mxPoint x="480" y="10400" as="targetPoint" />
          </mxGeometry>
        </mxCell>
        <mxCell id="pdcznW-mLiutUTcBKjFM-34" value="&lt;b&gt;1031-1040&lt;/b&gt;&lt;br&gt;1031- Birth of Stephen I Primula" style="text;html=1;strokeColor=none;fillColor=none;align=left;verticalAlign=middle;whiteSpace=wrap;rounded=0;" parent="1" vertex="1">
          <mxGeometry x="480" y="10300" width="280" height="100" as="geometry" />
        </mxCell>
        <mxCell id="pdcznW-mLiutUTcBKjFM-35" value="" style="endArrow=none;html=1;rounded=0;" parent="1" edge="1">
          <mxGeometry width="50" height="50" relative="1" as="geometry">
            <mxPoint x="520" y="10500" as="sourcePoint" />
            <mxPoint x="480" y="10500" as="targetPoint" />
          </mxGeometry>
        </mxCell>
        <mxCell id="pdcznW-mLiutUTcBKjFM-36" value="&lt;b&gt;1041-1050&lt;/b&gt;" style="text;html=1;strokeColor=none;fillColor=none;align=left;verticalAlign=middle;whiteSpace=wrap;rounded=0;" parent="1" vertex="1">
          <mxGeometry x="480" y="10400" width="100" height="100" as="geometry" />
        </mxCell>
        <mxCell id="pdcznW-mLiutUTcBKjFM-37" value="" style="endArrow=none;html=1;rounded=0;" parent="1" edge="1">
          <mxGeometry width="50" height="50" relative="1" as="geometry">
            <mxPoint x="520" y="10600" as="sourcePoint" />
            <mxPoint x="480" y="10600" as="targetPoint" />
          </mxGeometry>
        </mxCell>
        <mxCell id="pdcznW-mLiutUTcBKjFM-38" value="&lt;b&gt;1051-1060&lt;/b&gt;&lt;br&gt;1057 - Birth of Elliot II Primular" style="text;html=1;strokeColor=none;fillColor=none;align=left;verticalAlign=middle;whiteSpace=wrap;rounded=0;" parent="1" vertex="1">
          <mxGeometry x="480" y="10500" width="200" height="100" as="geometry" />
        </mxCell>
        <mxCell id="pdcznW-mLiutUTcBKjFM-39" value="" style="endArrow=none;html=1;rounded=0;" parent="1" edge="1">
          <mxGeometry width="50" height="50" relative="1" as="geometry">
            <mxPoint x="520" y="10700" as="sourcePoint" />
            <mxPoint x="480" y="10700" as="targetPoint" />
          </mxGeometry>
        </mxCell>
        <mxCell id="pdcznW-mLiutUTcBKjFM-40" value="&lt;b&gt;1061-1070&lt;/b&gt;&lt;br&gt;1066- Death of Elliot I Primula&lt;br&gt;1066- Adam II Primula crowned over Palorsenna and Lunaura &amp;amp; Lilianne I Veton crowned over Lunaura" style="text;html=1;strokeColor=none;fillColor=none;align=left;verticalAlign=middle;whiteSpace=wrap;rounded=0;" parent="1" vertex="1">
          <mxGeometry x="480" y="10600" width="560" height="100" as="geometry" />
        </mxCell>
        <mxCell id="pdcznW-mLiutUTcBKjFM-41" value="" style="rounded=0;whiteSpace=wrap;html=1;shadow=0;glass=0;fillColor=#5BCEFA;strokeColor=none;" parent="1" vertex="1">
          <mxGeometry x="350" y="9960" width="120" height="700" as="geometry" />
        </mxCell>
        <mxCell id="pdcznW-mLiutUTcBKjFM-42" value="Luna II Artun" style="text;html=1;strokeColor=none;fillColor=none;align=center;verticalAlign=middle;whiteSpace=wrap;rounded=0;" parent="1" vertex="1">
          <mxGeometry x="370" y="9960" width="80" height="20" as="geometry" />
        </mxCell>
        <mxCell id="tMO71jz2EXLl-aefz__Y-1" value="" style="endArrow=none;html=1;rounded=0;" parent="1" edge="1">
          <mxGeometry width="50" height="50" relative="1" as="geometry">
            <mxPoint x="520" y="10800" as="sourcePoint" />
            <mxPoint x="480" y="10800" as="targetPoint" />
          </mxGeometry>
        </mxCell>
        <mxCell id="tMO71jz2EXLl-aefz__Y-2" value="&lt;b&gt;1071-1080&lt;/b&gt;&lt;br&gt;1076- Death of Adam II Primula&lt;br&gt;1077- Stephen I Primula crowned over Palorsenna and Lunaura" style="text;html=1;strokeColor=none;fillColor=none;align=left;verticalAlign=middle;whiteSpace=wrap;rounded=0;" parent="1" vertex="1">
          <mxGeometry x="480" y="10700" width="360" height="100" as="geometry" />
        </mxCell>
        <mxCell id="tMO71jz2EXLl-aefz__Y-3" value="" style="endArrow=none;html=1;rounded=0;" parent="1" edge="1">
          <mxGeometry width="50" height="50" relative="1" as="geometry">
            <mxPoint x="520" y="10900" as="sourcePoint" />
            <mxPoint x="480" y="10900" as="targetPoint" />
          </mxGeometry>
        </mxCell>
        <mxCell id="tMO71jz2EXLl-aefz__Y-4" value="&lt;b&gt;1081-1090&lt;/b&gt;&lt;br&gt;Elliot II Primula &amp;amp; Louise II Froni wed" style="text;html=1;strokeColor=none;fillColor=none;align=left;verticalAlign=middle;whiteSpace=wrap;rounded=0;" parent="1" vertex="1">
          <mxGeometry x="480" y="10800" width="240" height="100" as="geometry" />
        </mxCell>
        <mxCell id="tMO71jz2EXLl-aefz__Y-5" value="" style="endArrow=none;html=1;rounded=0;" parent="1" edge="1">
          <mxGeometry width="50" height="50" relative="1" as="geometry">
            <mxPoint x="520" y="10999" as="sourcePoint" />
            <mxPoint x="480" y="10999" as="targetPoint" />
          </mxGeometry>
        </mxCell>
        <mxCell id="tMO71jz2EXLl-aefz__Y-6" value="&lt;b&gt;1091-1100&lt;/b&gt;" style="text;html=1;strokeColor=none;fillColor=none;align=left;verticalAlign=middle;whiteSpace=wrap;rounded=0;" parent="1" vertex="1">
          <mxGeometry x="480" y="10899" width="100" height="100" as="geometry" />
        </mxCell>
        <mxCell id="tMO71jz2EXLl-aefz__Y-7" value="" style="rounded=0;whiteSpace=wrap;html=1;fillColor=#e1d5e7;strokeColor=#9673a6;" parent="1" vertex="1">
          <mxGeometry y="10660" width="480" height="100" as="geometry" />
        </mxCell>
        <mxCell id="tMO71jz2EXLl-aefz__Y-9" value="Adam II Primula" style="text;html=1;strokeColor=none;fillColor=none;align=center;verticalAlign=middle;whiteSpace=wrap;rounded=0;" parent="1" vertex="1">
          <mxGeometry x="195" y="10660" width="90" height="20" as="geometry" />
        </mxCell>
        <mxCell id="tMO71jz2EXLl-aefz__Y-10" value="" style="rounded=0;whiteSpace=wrap;html=1;fillColor=#5BCEFA;strokeColor=none;" parent="1" vertex="1">
          <mxGeometry x="350" y="10660" width="120" height="100" as="geometry" />
        </mxCell>
        <mxCell id="tMO71jz2EXLl-aefz__Y-11" value="Lilianne I Veton" style="text;html=1;strokeColor=none;fillColor=none;align=center;verticalAlign=middle;whiteSpace=wrap;rounded=0;" parent="1" vertex="1">
          <mxGeometry x="365" y="10660" width="90" height="20" as="geometry" />
        </mxCell>
        <mxCell id="tMO71jz2EXLl-aefz__Y-12" value="" style="rounded=0;whiteSpace=wrap;html=1;fillColor=#e1d5e7;strokeColor=#9673a6;" parent="1" vertex="1">
          <mxGeometry y="10760" width="480" height="290" as="geometry" />
        </mxCell>
        <mxCell id="tMO71jz2EXLl-aefz__Y-13" value="Stephen I Primula" style="text;html=1;strokeColor=none;fillColor=none;align=center;verticalAlign=middle;whiteSpace=wrap;rounded=0;" parent="1" vertex="1">
          <mxGeometry x="187.5" y="10760" width="105" height="20" as="geometry" />
        </mxCell>
        <mxCell id="tMO71jz2EXLl-aefz__Y-14" value="" style="rounded=0;whiteSpace=wrap;html=1;fillColor=#e1d5e7;strokeColor=#9673a6;" parent="1" vertex="1">
          <mxGeometry y="11050" width="480" height="60" as="geometry" />
        </mxCell>
        <mxCell id="tMO71jz2EXLl-aefz__Y-15" value="Elliot II Primula" style="text;html=1;strokeColor=none;fillColor=none;align=center;verticalAlign=middle;whiteSpace=wrap;rounded=0;" parent="1" vertex="1">
          <mxGeometry x="187.5" y="11050" width="105" height="20" as="geometry" />
        </mxCell>
        <mxCell id="tMO71jz2EXLl-aefz__Y-16" value="" style="rounded=0;whiteSpace=wrap;html=1;fillColor=#5BCEFA;strokeColor=none;" parent="1" vertex="1">
          <mxGeometry x="350" y="11050" width="120" height="70" as="geometry" />
        </mxCell>
        <mxCell id="tMO71jz2EXLl-aefz__Y-17" value="Louise II Froni" style="text;html=1;strokeColor=none;fillColor=none;align=center;verticalAlign=middle;whiteSpace=wrap;rounded=0;" parent="1" vertex="1">
          <mxGeometry x="357.5" y="11050" width="105" height="20" as="geometry" />
        </mxCell>
        <mxCell id="tMO71jz2EXLl-aefz__Y-19" value="" style="endArrow=none;html=1;rounded=0;" parent="1" edge="1">
          <mxGeometry width="50" height="50" relative="1" as="geometry">
            <mxPoint x="520" y="11100" as="sourcePoint" />
            <mxPoint x="480" y="11100" as="targetPoint" />
          </mxGeometry>
        </mxCell>
        <mxCell id="tMO71jz2EXLl-aefz__Y-20" value="&lt;b&gt;1101-1110&lt;/b&gt;&lt;br&gt;1105- Death of Stephen I Primula&lt;br&gt;1105- Elliot II Primula crowned over Palorsenna and Lunarua &amp;amp; Louise II Froni crowned over Lunaura" style="text;html=1;strokeColor=none;fillColor=none;align=left;verticalAlign=middle;whiteSpace=wrap;rounded=0;" parent="1" vertex="1">
          <mxGeometry x="480" y="11000" width="560" height="100" as="geometry" />
        </mxCell>
        <mxCell id="tMO71jz2EXLl-aefz__Y-22" value="" style="endArrow=none;html=1;rounded=0;" parent="1" edge="1">
          <mxGeometry width="50" height="50" relative="1" as="geometry">
            <mxPoint x="520" y="11200" as="sourcePoint" />
            <mxPoint x="480" y="11200" as="targetPoint" />
          </mxGeometry>
        </mxCell>
        <mxCell id="tMO71jz2EXLl-aefz__Y-23" value="&lt;b&gt;1111-1120&lt;/b&gt;&lt;br&gt;1111- Death of Elliot II Primula" style="text;html=1;strokeColor=none;fillColor=none;align=left;verticalAlign=middle;whiteSpace=wrap;rounded=0;" parent="1" vertex="1">
          <mxGeometry x="480" y="11100" width="280" height="100" as="geometry" />
        </mxCell>
        <mxCell id="tMO71jz2EXLl-aefz__Y-24" value="" style="endArrow=none;html=1;rounded=0;" parent="1" edge="1">
          <mxGeometry width="50" height="50" relative="1" as="geometry">
            <mxPoint x="520" y="11300" as="sourcePoint" />
            <mxPoint x="480" y="11300" as="targetPoint" />
          </mxGeometry>
        </mxCell>
        <mxCell id="tMO71jz2EXLl-aefz__Y-25" value="&lt;b&gt;1121-1130&lt;/b&gt;" style="text;html=1;strokeColor=none;fillColor=none;align=left;verticalAlign=middle;whiteSpace=wrap;rounded=0;" parent="1" vertex="1">
          <mxGeometry x="480" y="11200" width="100" height="100" as="geometry" />
        </mxCell>
        <mxCell id="tMO71jz2EXLl-aefz__Y-30" value="" style="endArrow=none;html=1;rounded=0;" parent="1" edge="1">
          <mxGeometry width="50" height="50" relative="1" as="geometry">
            <mxPoint x="520" y="11400" as="sourcePoint" />
            <mxPoint x="480" y="11400" as="targetPoint" />
          </mxGeometry>
        </mxCell>
        <mxCell id="tMO71jz2EXLl-aefz__Y-31" value="&lt;b&gt;1131-1140&lt;/b&gt;" style="text;html=1;strokeColor=none;fillColor=none;align=left;verticalAlign=middle;whiteSpace=wrap;rounded=0;" parent="1" vertex="1">
          <mxGeometry x="480" y="11300" width="100" height="100" as="geometry" />
        </mxCell>
        <mxCell id="tMO71jz2EXLl-aefz__Y-32" value="" style="endArrow=none;html=1;rounded=0;" parent="1" edge="1">
          <mxGeometry width="50" height="50" relative="1" as="geometry">
            <mxPoint x="520" y="11500" as="sourcePoint" />
            <mxPoint x="480" y="11500" as="targetPoint" />
          </mxGeometry>
        </mxCell>
        <mxCell id="tMO71jz2EXLl-aefz__Y-33" value="&lt;b&gt;1141-1150&lt;/b&gt;" style="text;html=1;strokeColor=none;fillColor=none;align=left;verticalAlign=middle;whiteSpace=wrap;rounded=0;" parent="1" vertex="1">
          <mxGeometry x="480" y="11400" width="100" height="100" as="geometry" />
        </mxCell>
        <mxCell id="tMO71jz2EXLl-aefz__Y-34" value="" style="endArrow=none;html=1;rounded=0;" parent="1" edge="1">
          <mxGeometry width="50" height="50" relative="1" as="geometry">
            <mxPoint x="520" y="11600" as="sourcePoint" />
            <mxPoint x="480" y="11600" as="targetPoint" />
          </mxGeometry>
        </mxCell>
        <mxCell id="tMO71jz2EXLl-aefz__Y-35" value="&lt;b&gt;1151-1160&lt;/b&gt;" style="text;html=1;strokeColor=none;fillColor=none;align=left;verticalAlign=middle;whiteSpace=wrap;rounded=0;" parent="1" vertex="1">
          <mxGeometry x="480" y="11500" width="100" height="100" as="geometry" />
        </mxCell>
        <mxCell id="tMO71jz2EXLl-aefz__Y-36" value="" style="endArrow=none;html=1;rounded=0;" parent="1" edge="1">
          <mxGeometry width="50" height="50" relative="1" as="geometry">
            <mxPoint x="520" y="11700" as="sourcePoint" />
            <mxPoint x="480" y="11700" as="targetPoint" />
          </mxGeometry>
        </mxCell>
        <mxCell id="tMO71jz2EXLl-aefz__Y-37" value="&lt;b&gt;1161-1170&lt;/b&gt;" style="text;html=1;strokeColor=none;fillColor=none;align=left;verticalAlign=middle;whiteSpace=wrap;rounded=0;" parent="1" vertex="1">
          <mxGeometry x="480" y="11600" width="100" height="100" as="geometry" />
        </mxCell>
        <mxCell id="tMO71jz2EXLl-aefz__Y-38" value="" style="endArrow=none;html=1;rounded=0;" parent="1" edge="1">
          <mxGeometry width="50" height="50" relative="1" as="geometry">
            <mxPoint x="520" y="11800" as="sourcePoint" />
            <mxPoint x="480" y="11800" as="targetPoint" />
          </mxGeometry>
        </mxCell>
        <mxCell id="tMO71jz2EXLl-aefz__Y-39" value="&lt;b&gt;1171-1180&lt;/b&gt;" style="text;html=1;strokeColor=none;fillColor=none;align=left;verticalAlign=middle;whiteSpace=wrap;rounded=0;" parent="1" vertex="1">
          <mxGeometry x="480" y="11700" width="100" height="100" as="geometry" />
        </mxCell>
        <mxCell id="tMO71jz2EXLl-aefz__Y-40" value="" style="endArrow=none;html=1;rounded=0;" parent="1" edge="1">
          <mxGeometry width="50" height="50" relative="1" as="geometry">
            <mxPoint x="520" y="11900" as="sourcePoint" />
            <mxPoint x="480" y="11900" as="targetPoint" />
          </mxGeometry>
        </mxCell>
        <mxCell id="tMO71jz2EXLl-aefz__Y-41" value="&lt;b&gt;1181-1190&lt;/b&gt;&lt;br&gt;1189- Birth of Elliot III Dendron" style="text;html=1;strokeColor=none;fillColor=none;align=left;verticalAlign=middle;whiteSpace=wrap;rounded=0;" parent="1" vertex="1">
          <mxGeometry x="480" y="11800" width="240" height="100" as="geometry" />
        </mxCell>
        <mxCell id="tMO71jz2EXLl-aefz__Y-42" value="" style="endArrow=none;html=1;rounded=0;" parent="1" edge="1">
          <mxGeometry width="50" height="50" relative="1" as="geometry">
            <mxPoint x="520" y="12000" as="sourcePoint" />
            <mxPoint x="480" y="12000" as="targetPoint" />
          </mxGeometry>
        </mxCell>
        <mxCell id="tMO71jz2EXLl-aefz__Y-43" value="&lt;b&gt;1191-1200&lt;/b&gt;&lt;br&gt;Elliot III Dendron crowned over Palorsenna" style="text;html=1;strokeColor=none;fillColor=none;align=left;verticalAlign=middle;whiteSpace=wrap;rounded=0;" parent="1" vertex="1">
          <mxGeometry x="480" y="11900" width="320" height="100" as="geometry" />
        </mxCell>
        <mxCell id="tMO71jz2EXLl-aefz__Y-44" value="" style="rounded=0;whiteSpace=wrap;html=1;fillColor=#dae8fc;strokeColor=#6c8ebf;" parent="1" vertex="1">
          <mxGeometry y="11990" width="240" height="590" as="geometry" />
        </mxCell>
        <mxCell id="tMO71jz2EXLl-aefz__Y-45" value="" style="endArrow=none;html=1;rounded=0;" parent="1" edge="1">
          <mxGeometry width="50" height="50" relative="1" as="geometry">
            <mxPoint x="760" y="14280" as="sourcePoint" />
            <mxPoint x="720" y="14280" as="targetPoint" />
          </mxGeometry>
        </mxCell>
        <mxCell id="tMO71jz2EXLl-aefz__Y-46" value="&lt;b&gt;Date&lt;/b&gt;" style="text;html=1;strokeColor=none;fillColor=none;align=left;verticalAlign=middle;whiteSpace=wrap;rounded=0;" parent="1" vertex="1">
          <mxGeometry x="720" y="14180" width="100" height="100" as="geometry" />
        </mxCell>
        <mxCell id="tMO71jz2EXLl-aefz__Y-47" value="" style="endArrow=none;html=1;rounded=0;" parent="1" edge="1">
          <mxGeometry width="50" height="50" relative="1" as="geometry">
            <mxPoint x="520" y="12200" as="sourcePoint" />
            <mxPoint x="480" y="12200" as="targetPoint" />
          </mxGeometry>
        </mxCell>
        <mxCell id="tMO71jz2EXLl-aefz__Y-48" value="&lt;b&gt;1211-1220&lt;/b&gt;" style="text;html=1;strokeColor=none;fillColor=none;align=left;verticalAlign=middle;whiteSpace=wrap;rounded=0;" parent="1" vertex="1">
          <mxGeometry x="480" y="12100" width="100" height="100" as="geometry" />
        </mxCell>
        <mxCell id="tMO71jz2EXLl-aefz__Y-49" value="" style="endArrow=none;html=1;rounded=0;" parent="1" edge="1">
          <mxGeometry width="50" height="50" relative="1" as="geometry">
            <mxPoint x="520" y="12300" as="sourcePoint" />
            <mxPoint x="480" y="12300" as="targetPoint" />
          </mxGeometry>
        </mxCell>
        <mxCell id="tMO71jz2EXLl-aefz__Y-50" value="&lt;b&gt;1221-1230&lt;/b&gt;&lt;br&gt;1225- Birth of Elliot IV Dendron" style="text;html=1;strokeColor=none;fillColor=none;align=left;verticalAlign=middle;whiteSpace=wrap;rounded=0;" parent="1" vertex="1">
          <mxGeometry x="480" y="12200" width="240" height="100" as="geometry" />
        </mxCell>
        <mxCell id="tMO71jz2EXLl-aefz__Y-51" value="" style="endArrow=none;html=1;rounded=0;" parent="1" edge="1">
          <mxGeometry width="50" height="50" relative="1" as="geometry">
            <mxPoint x="520" y="12400" as="sourcePoint" />
            <mxPoint x="480" y="12400" as="targetPoint" />
          </mxGeometry>
        </mxCell>
        <mxCell id="tMO71jz2EXLl-aefz__Y-52" value="&lt;b&gt;1231-1240&lt;/b&gt;" style="text;html=1;strokeColor=none;fillColor=none;align=left;verticalAlign=middle;whiteSpace=wrap;rounded=0;" parent="1" vertex="1">
          <mxGeometry x="480" y="12300" width="100" height="100" as="geometry" />
        </mxCell>
        <mxCell id="tMO71jz2EXLl-aefz__Y-53" value="" style="endArrow=none;html=1;rounded=0;" parent="1" edge="1">
          <mxGeometry width="50" height="50" relative="1" as="geometry">
            <mxPoint x="520" y="12500" as="sourcePoint" />
            <mxPoint x="480" y="12500" as="targetPoint" />
          </mxGeometry>
        </mxCell>
        <mxCell id="tMO71jz2EXLl-aefz__Y-54" value="&lt;b&gt;1241-1250&lt;/b&gt;&lt;br&gt;1248- Birth of Ellis III/II Dendron" style="text;html=1;strokeColor=none;fillColor=none;align=left;verticalAlign=middle;whiteSpace=wrap;rounded=0;" parent="1" vertex="1">
          <mxGeometry x="480" y="12400" width="280" height="100" as="geometry" />
        </mxCell>
        <mxCell id="tMO71jz2EXLl-aefz__Y-55" value="" style="endArrow=none;html=1;rounded=0;" parent="1" edge="1">
          <mxGeometry width="50" height="50" relative="1" as="geometry">
            <mxPoint x="520" y="12600" as="sourcePoint" />
            <mxPoint x="480" y="12600" as="targetPoint" />
          </mxGeometry>
        </mxCell>
        <mxCell id="tMO71jz2EXLl-aefz__Y-56" value="&lt;b&gt;1251-1260&lt;/b&gt;&lt;br&gt;1258- Death of Elliot III Dendron&lt;br&gt;1258- Ellis II Dendron crowned over Palorsenna" style="text;html=1;strokeColor=none;fillColor=none;align=left;verticalAlign=middle;whiteSpace=wrap;rounded=0;" parent="1" vertex="1">
          <mxGeometry x="480" y="12500" width="320" height="100" as="geometry" />
        </mxCell>
        <mxCell id="tMO71jz2EXLl-aefz__Y-59" value="" style="endArrow=none;html=1;rounded=0;" parent="1" edge="1">
          <mxGeometry width="50" height="50" relative="1" as="geometry">
            <mxPoint x="520" y="12700" as="sourcePoint" />
            <mxPoint x="480" y="12700" as="targetPoint" />
          </mxGeometry>
        </mxCell>
        <mxCell id="tMO71jz2EXLl-aefz__Y-60" value="&lt;b&gt;1261-1270&lt;/b&gt;&lt;br&gt;1268- Ellis III/II Dendron and Luna III Magster are wed" style="text;html=1;strokeColor=none;fillColor=none;align=left;verticalAlign=middle;whiteSpace=wrap;rounded=0;" parent="1" vertex="1">
          <mxGeometry x="480" y="12600" width="320" height="100" as="geometry" />
        </mxCell>
        <mxCell id="tMO71jz2EXLl-aefz__Y-61" value="" style="endArrow=none;html=1;rounded=0;" parent="1" edge="1">
          <mxGeometry width="50" height="50" relative="1" as="geometry">
            <mxPoint x="520" y="12800" as="sourcePoint" />
            <mxPoint x="480" y="12800" as="targetPoint" />
          </mxGeometry>
        </mxCell>
        <mxCell id="tMO71jz2EXLl-aefz__Y-62" value="&lt;b&gt;1271-1280&lt;/b&gt;&lt;br&gt;1276- Death of Ellis II&lt;br&gt;1277- Elliot IV crowned over Palorsenna&lt;br&gt;1279- Birth of Junex I Dendron" style="text;html=1;strokeColor=none;fillColor=none;align=left;verticalAlign=middle;whiteSpace=wrap;rounded=0;" parent="1" vertex="1">
          <mxGeometry x="480" y="12700" width="280" height="100" as="geometry" />
        </mxCell>
        <mxCell id="tMO71jz2EXLl-aefz__Y-63" value="" style="endArrow=none;html=1;rounded=0;" parent="1" edge="1">
          <mxGeometry width="50" height="50" relative="1" as="geometry">
            <mxPoint x="520" y="12900" as="sourcePoint" />
            <mxPoint x="480" y="12900" as="targetPoint" />
          </mxGeometry>
        </mxCell>
        <mxCell id="tMO71jz2EXLl-aefz__Y-64" value="&lt;b&gt;1281-1290&lt;/b&gt;&lt;br&gt;1282- Death of Elliot IV&lt;br&gt;1282- Ellis III/II crowned over Palorsenna and Lunaura &amp;amp; Luna III crowned over Lunaura&lt;br&gt;1283- Divorce of Ellis III/II and Luna III&lt;br&gt;1283- Luna III Magster and Oliver I Copnia wed&lt;br&gt;1283- Birth of Lewis II Magnia" style="text;html=1;strokeColor=none;fillColor=none;align=left;verticalAlign=middle;whiteSpace=wrap;rounded=0;" parent="1" vertex="1">
          <mxGeometry x="480" y="12800" width="520" height="100" as="geometry" />
        </mxCell>
        <mxCell id="tMO71jz2EXLl-aefz__Y-65" value="" style="endArrow=none;html=1;rounded=0;" parent="1" edge="1">
          <mxGeometry width="50" height="50" relative="1" as="geometry">
            <mxPoint x="520" y="13000" as="sourcePoint" />
            <mxPoint x="480" y="13000" as="targetPoint" />
          </mxGeometry>
        </mxCell>
        <mxCell id="tMO71jz2EXLl-aefz__Y-66" value="&lt;b&gt;1291-1300&lt;/b&gt;&lt;br&gt;1293- Oliver I Copnia crowned over Lunaura" style="text;html=1;strokeColor=none;fillColor=none;align=left;verticalAlign=middle;whiteSpace=wrap;rounded=0;" parent="1" vertex="1">
          <mxGeometry x="480" y="12900" width="360" height="100" as="geometry" />
        </mxCell>
        <mxCell id="tMO71jz2EXLl-aefz__Y-68" value="" style="rounded=0;whiteSpace=wrap;html=1;fillColor=#dae8fc;strokeColor=#6c8ebf;" parent="1" vertex="1">
          <mxGeometry y="12820" width="480" height="10" as="geometry" />
        </mxCell>
        <mxCell id="tMO71jz2EXLl-aefz__Y-69" value="" style="rounded=0;whiteSpace=wrap;html=1;fillColor=#d5e8d4;strokeColor=#82b366;" parent="1" vertex="1">
          <mxGeometry x="360" y="12820" width="120" height="10" as="geometry" />
        </mxCell>
        <mxCell id="tMO71jz2EXLl-aefz__Y-70" value="" style="rounded=0;whiteSpace=wrap;html=1;" parent="1" vertex="1">
          <mxGeometry y="11990" width="80" height="100" as="geometry" />
        </mxCell>
        <mxCell id="tMO71jz2EXLl-aefz__Y-71" value="Ellis Dendron" style="text;html=1;strokeColor=none;fillColor=none;align=center;verticalAlign=middle;whiteSpace=wrap;rounded=0;" parent="1" vertex="1">
          <mxGeometry y="11990" width="80" height="20" as="geometry" />
        </mxCell>
        <mxCell id="tMO71jz2EXLl-aefz__Y-73" value="" style="rounded=0;whiteSpace=wrap;html=1;" parent="1" vertex="1">
          <mxGeometry x="80" y="11990" width="80" height="100" as="geometry" />
        </mxCell>
        <mxCell id="tMO71jz2EXLl-aefz__Y-74" value="Arwen Primula-Lowe" style="text;html=1;strokeColor=none;fillColor=none;align=center;verticalAlign=middle;whiteSpace=wrap;rounded=0;" parent="1" vertex="1">
          <mxGeometry x="80" y="11990" width="80" height="30" as="geometry" />
        </mxCell>
        <mxCell id="tMO71jz2EXLl-aefz__Y-76" value="Elliot III Dendron" style="text;html=1;strokeColor=none;fillColor=none;align=center;verticalAlign=middle;whiteSpace=wrap;rounded=0;" parent="1" vertex="1">
          <mxGeometry x="160" y="11990" width="80" height="30" as="geometry" />
        </mxCell>
        <mxCell id="tMO71jz2EXLl-aefz__Y-77" value="" style="rounded=0;whiteSpace=wrap;html=1;fillColor=#dae8fc;strokeColor=#6c8ebf;" parent="1" vertex="1">
          <mxGeometry y="12580" width="240" height="180" as="geometry" />
        </mxCell>
        <mxCell id="tMO71jz2EXLl-aefz__Y-78" value="Ellis II Dendron" style="text;html=1;strokeColor=none;fillColor=none;align=center;verticalAlign=middle;whiteSpace=wrap;rounded=0;" parent="1" vertex="1">
          <mxGeometry x="75" y="12580" width="90" height="20" as="geometry" />
        </mxCell>
        <mxCell id="tMO71jz2EXLl-aefz__Y-79" value="" style="rounded=0;whiteSpace=wrap;html=1;fillColor=#dae8fc;strokeColor=#6c8ebf;" parent="1" vertex="1">
          <mxGeometry y="12760" width="240" height="60" as="geometry" />
        </mxCell>
        <mxCell id="tMO71jz2EXLl-aefz__Y-80" value="Elliot IV Dendron" style="text;html=1;strokeColor=none;fillColor=none;align=center;verticalAlign=middle;whiteSpace=wrap;rounded=0;" parent="1" vertex="1">
          <mxGeometry x="65" y="12760" width="110" height="20" as="geometry" />
        </mxCell>
        <mxCell id="tMO71jz2EXLl-aefz__Y-81" value="" style="endArrow=none;html=1;rounded=0;" parent="1" edge="1">
          <mxGeometry width="50" height="50" relative="1" as="geometry">
            <mxPoint x="520" y="13100" as="sourcePoint" />
            <mxPoint x="480" y="13100" as="targetPoint" />
          </mxGeometry>
        </mxCell>
        <mxCell id="tMO71jz2EXLl-aefz__Y-82" value="&lt;b&gt;1301-1310&lt;br&gt;&lt;/b&gt;1301- Lewis II Magnia and Elaine II Solumn wed&lt;br&gt;1301- Birth of Laurence II Solnia&lt;br&gt;1303- Birth of Ellis IV Dendron" style="text;html=1;strokeColor=none;fillColor=none;align=left;verticalAlign=middle;whiteSpace=wrap;rounded=0;" parent="1" vertex="1">
          <mxGeometry x="480" y="13000" width="360" height="100" as="geometry" />
        </mxCell>
        <mxCell id="tMO71jz2EXLl-aefz__Y-83" value="" style="endArrow=none;html=1;rounded=0;" parent="1" edge="1">
          <mxGeometry width="50" height="50" relative="1" as="geometry">
            <mxPoint x="520" y="13200" as="sourcePoint" />
            <mxPoint x="480" y="13200" as="targetPoint" />
          </mxGeometry>
        </mxCell>
        <mxCell id="tMO71jz2EXLl-aefz__Y-84" value="&lt;b&gt;1311-1320&lt;/b&gt;" style="text;html=1;strokeColor=none;fillColor=none;align=left;verticalAlign=middle;whiteSpace=wrap;rounded=0;" parent="1" vertex="1">
          <mxGeometry x="480" y="13100" width="100" height="100" as="geometry" />
        </mxCell>
        <mxCell id="tMO71jz2EXLl-aefz__Y-85" value="" style="endArrow=none;html=1;rounded=0;" parent="1" edge="1">
          <mxGeometry width="50" height="50" relative="1" as="geometry">
            <mxPoint x="520" y="13300" as="sourcePoint" />
            <mxPoint x="480" y="13300" as="targetPoint" />
          </mxGeometry>
        </mxCell>
        <mxCell id="tMO71jz2EXLl-aefz__Y-86" value="&lt;b&gt;1321-1330&lt;/b&gt;&lt;br&gt;1326- Laurence II Solnia and Lydia I Gasris wed&lt;br&gt;1328- Birth of Hugo II Gasnia&lt;br&gt;1329- Death of Oliver I Copnia&lt;br&gt;1329- Death of Ellis III/II Dendron&lt;br&gt;1330- Junex I Dendron crowned over Palorsenna" style="text;html=1;strokeColor=none;fillColor=none;align=left;verticalAlign=middle;whiteSpace=wrap;rounded=0;" parent="1" vertex="1">
          <mxGeometry x="480" y="13200" width="320" height="100" as="geometry" />
        </mxCell>
        <mxCell id="tMO71jz2EXLl-aefz__Y-89" value="" style="rounded=0;whiteSpace=wrap;html=1;fillColor=#d5e8d4;strokeColor=#82b366;" parent="1" vertex="1">
          <mxGeometry x="240" y="12830" width="240" height="530" as="geometry" />
        </mxCell>
        <mxCell id="tMO71jz2EXLl-aefz__Y-90" value="" style="endArrow=none;html=1;rounded=0;" parent="1" edge="1">
          <mxGeometry width="50" height="50" relative="1" as="geometry">
            <mxPoint x="520" y="13400" as="sourcePoint" />
            <mxPoint x="480" y="13400" as="targetPoint" />
          </mxGeometry>
        </mxCell>
        <mxCell id="tMO71jz2EXLl-aefz__Y-91" value="&lt;b&gt;1331-1340&lt;/b&gt;&lt;br&gt;1331- Birth of Elliot V Dendron&lt;br&gt;1336- Death of Luna III Magster&lt;br&gt;1336- Lewis II Magnia and Elaine II Solumn crowned over Lunaura" style="text;html=1;strokeColor=none;fillColor=none;align=left;verticalAlign=middle;whiteSpace=wrap;rounded=0;" parent="1" vertex="1">
          <mxGeometry x="479.5" y="13300" width="440.5" height="100" as="geometry" />
        </mxCell>
        <mxCell id="tMO71jz2EXLl-aefz__Y-92" value="" style="rounded=0;whiteSpace=wrap;html=1;fillColor=#d5e8d4;strokeColor=none;" parent="1" vertex="1">
          <mxGeometry x="360.5" y="12820.5" width="119" height="59" as="geometry" />
        </mxCell>
        <mxCell id="tMO71jz2EXLl-aefz__Y-88" value="Luna III Magster" style="text;html=1;strokeColor=none;fillColor=none;align=center;verticalAlign=middle;whiteSpace=wrap;rounded=0;" parent="1" vertex="1">
          <mxGeometry x="375" y="12820.5" width="90" height="10" as="geometry" />
        </mxCell>
        <mxCell id="tMO71jz2EXLl-aefz__Y-93" value="" style="rounded=0;whiteSpace=wrap;html=1;fillColor=#dae8fc;strokeColor=#6c8ebf;" parent="1" vertex="1">
          <mxGeometry y="12830" width="240" height="460" as="geometry" />
        </mxCell>
        <mxCell id="tMO71jz2EXLl-aefz__Y-94" value="" style="rounded=0;whiteSpace=wrap;html=1;strokeColor=none;fillColor=#dae8fc;" parent="1" vertex="1">
          <mxGeometry x="0.5" y="12820.5" width="239" height="59" as="geometry" />
        </mxCell>
        <mxCell id="tMO71jz2EXLl-aefz__Y-87" value="Ellis III/II Dendron" style="text;html=1;strokeColor=none;fillColor=none;align=center;verticalAlign=middle;whiteSpace=wrap;rounded=0;" parent="1" vertex="1">
          <mxGeometry x="65" y="12820.5" width="110" height="10" as="geometry" />
        </mxCell>
        <mxCell id="aUaGgDCDCP8hp9Nu9wZe-1" value="" style="rounded=0;whiteSpace=wrap;html=1;fillColor=#5BCEFA;strokeColor=none;" vertex="1" parent="1">
          <mxGeometry x="350" y="12930" width="120" height="360" as="geometry" />
        </mxCell>
        <mxCell id="aUaGgDCDCP8hp9Nu9wZe-2" value="Oliver I Copnia" style="text;html=1;strokeColor=none;fillColor=none;align=center;verticalAlign=middle;whiteSpace=wrap;rounded=0;" vertex="1" parent="1">
          <mxGeometry x="350.5" y="12930" width="119.5" height="20" as="geometry" />
        </mxCell>
        <mxCell id="aUaGgDCDCP8hp9Nu9wZe-3" value="" style="endArrow=none;html=1;rounded=0;" edge="1" parent="1">
          <mxGeometry width="50" height="50" relative="1" as="geometry">
            <mxPoint x="520" y="13500" as="sourcePoint" />
            <mxPoint x="480" y="13500" as="targetPoint" />
          </mxGeometry>
        </mxCell>
        <mxCell id="aUaGgDCDCP8hp9Nu9wZe-4" value="&lt;b&gt;1341-1350&lt;/b&gt;&lt;br&gt;1342- Death of Junex I Dendron&lt;br&gt;1342- Death of Lewis II Magnia&lt;br&gt;1342- Laurence II Solnia and Lydia I Gasris crowned over Lunaura&lt;br&gt;1342- Ellis IV Dendron crowned over Palorsenna" style="text;html=1;strokeColor=none;fillColor=none;align=left;verticalAlign=middle;whiteSpace=wrap;rounded=0;" vertex="1" parent="1">
          <mxGeometry x="480" y="13400" width="360" height="100" as="geometry" />
        </mxCell>
        <mxCell id="aUaGgDCDCP8hp9Nu9wZe-5" value="" style="rounded=0;whiteSpace=wrap;html=1;fillColor=#d5e8d4;strokeColor=#82b366;" vertex="1" parent="1">
          <mxGeometry x="240" y="13360" width="240" height="60" as="geometry" />
        </mxCell>
        <mxCell id="aUaGgDCDCP8hp9Nu9wZe-6" value="" style="rounded=0;whiteSpace=wrap;html=1;fillColor=#5BCEFA;strokeColor=none;" vertex="1" parent="1">
          <mxGeometry x="350" y="13360" width="120" height="40" as="geometry" />
        </mxCell>
        <mxCell id="aUaGgDCDCP8hp9Nu9wZe-7" value="Lewis II Magnia" style="text;html=1;strokeColor=none;fillColor=none;align=center;verticalAlign=middle;whiteSpace=wrap;rounded=0;" vertex="1" parent="1">
          <mxGeometry x="240" y="13360" width="110" height="20" as="geometry" />
        </mxCell>
        <mxCell id="aUaGgDCDCP8hp9Nu9wZe-9" value="Elaine II Solumn" style="text;html=1;strokeColor=none;fillColor=none;align=center;verticalAlign=middle;whiteSpace=wrap;rounded=0;" vertex="1" parent="1">
          <mxGeometry x="350" y="13360" width="120" height="20" as="geometry" />
        </mxCell>
        <mxCell id="aUaGgDCDCP8hp9Nu9wZe-10" value="" style="rounded=0;whiteSpace=wrap;html=1;fillColor=#d5e8d4;strokeColor=#82b366;" vertex="1" parent="1">
          <mxGeometry x="239.5" y="13420" width="240.5" height="230" as="geometry" />
        </mxCell>
        <mxCell id="aUaGgDCDCP8hp9Nu9wZe-11" value="" style="rounded=0;whiteSpace=wrap;html=1;strokeColor=none;fillColor=#5BCEFA;" vertex="1" parent="1">
          <mxGeometry x="350.5" y="13420" width="120" height="120" as="geometry" />
        </mxCell>
        <mxCell id="aUaGgDCDCP8hp9Nu9wZe-12" value="Lydia I Gasris" style="text;html=1;strokeColor=none;fillColor=none;align=center;verticalAlign=middle;whiteSpace=wrap;rounded=0;" vertex="1" parent="1">
          <mxGeometry x="350.5" y="13420" width="119.5" height="20" as="geometry" />
        </mxCell>
        <mxCell id="aUaGgDCDCP8hp9Nu9wZe-13" value="Laurence II Solnia" style="text;html=1;strokeColor=none;fillColor=none;align=center;verticalAlign=middle;whiteSpace=wrap;rounded=0;" vertex="1" parent="1">
          <mxGeometry x="240" y="13420" width="110" height="20" as="geometry" />
        </mxCell>
        <mxCell id="aUaGgDCDCP8hp9Nu9wZe-14" value="" style="endArrow=none;html=1;rounded=0;" edge="1" parent="1">
          <mxGeometry width="50" height="50" relative="1" as="geometry">
            <mxPoint x="520" y="13600" as="sourcePoint" />
            <mxPoint x="480" y="13600" as="targetPoint" />
          </mxGeometry>
        </mxCell>
        <mxCell id="aUaGgDCDCP8hp9Nu9wZe-15" value="&lt;b&gt;1351-1360&lt;br&gt;&lt;/b&gt;" style="text;html=1;strokeColor=none;fillColor=none;align=left;verticalAlign=middle;whiteSpace=wrap;rounded=0;" vertex="1" parent="1">
          <mxGeometry x="480" y="13500" width="100" height="100" as="geometry" />
        </mxCell>
        <mxCell id="aUaGgDCDCP8hp9Nu9wZe-16" value="" style="endArrow=none;html=1;rounded=0;" edge="1" parent="1">
          <mxGeometry width="50" height="50" relative="1" as="geometry">
            <mxPoint x="520" y="13700" as="sourcePoint" />
            <mxPoint x="480" y="13700" as="targetPoint" />
          </mxGeometry>
        </mxCell>
        <mxCell id="aUaGgDCDCP8hp9Nu9wZe-17" value="&lt;b&gt;1361-1370&lt;/b&gt;&lt;br&gt;1365- Death of Laurence II Solnia&lt;br&gt;1365- Hugo II Gasnia crowned over Lunaura&lt;br&gt;1370- Death of Ellis IV Dendron&lt;br&gt;1370- Elliot V Dendron crowned" style="text;html=1;strokeColor=none;fillColor=none;align=left;verticalAlign=middle;whiteSpace=wrap;rounded=0;" vertex="1" parent="1">
          <mxGeometry x="480" y="13600" width="320" height="100" as="geometry" />
        </mxCell>
        <mxCell id="aUaGgDCDCP8hp9Nu9wZe-20" value="" style="endArrow=none;html=1;rounded=0;" edge="1" parent="1">
          <mxGeometry width="50" height="50" relative="1" as="geometry">
            <mxPoint x="520" y="13800" as="sourcePoint" />
            <mxPoint x="480" y="13800" as="targetPoint" />
          </mxGeometry>
        </mxCell>
        <mxCell id="aUaGgDCDCP8hp9Nu9wZe-21" value="&lt;b&gt;1371-1380&lt;/b&gt;&lt;br&gt;1378- Hugo II Gasnia and Olivia II Palafor wed&lt;br&gt;1378- Olivia II Palafor crowned over Lunarua&lt;br&gt;1378- Death of Elliot V Dendron&lt;br&gt;1379- Death of Olivia II Palafor" style="text;html=1;strokeColor=none;fillColor=none;align=left;verticalAlign=middle;whiteSpace=wrap;rounded=0;" vertex="1" parent="1">
          <mxGeometry x="480" y="13700" width="320" height="100" as="geometry" />
        </mxCell>
        <mxCell id="aUaGgDCDCP8hp9Nu9wZe-22" value="" style="endArrow=none;html=1;rounded=0;" edge="1" parent="1">
          <mxGeometry width="50" height="50" relative="1" as="geometry">
            <mxPoint x="520" y="13900" as="sourcePoint" />
            <mxPoint x="480" y="13900" as="targetPoint" />
          </mxGeometry>
        </mxCell>
        <mxCell id="aUaGgDCDCP8hp9Nu9wZe-23" value="&lt;b&gt;1381-1390&lt;/b&gt;&lt;br&gt;1382- Death of Hugo II Gasnia" style="text;html=1;strokeColor=none;fillColor=none;align=left;verticalAlign=middle;whiteSpace=wrap;rounded=0;" vertex="1" parent="1">
          <mxGeometry x="480" y="13800" width="280" height="100" as="geometry" />
        </mxCell>
        <mxCell id="aUaGgDCDCP8hp9Nu9wZe-24" value="" style="endArrow=none;html=1;rounded=0;" edge="1" parent="1">
          <mxGeometry width="50" height="50" relative="1" as="geometry">
            <mxPoint x="520" y="14000" as="sourcePoint" />
            <mxPoint x="480" y="14000" as="targetPoint" />
          </mxGeometry>
        </mxCell>
        <mxCell id="aUaGgDCDCP8hp9Nu9wZe-25" value="&lt;b&gt;1391-1400&lt;/b&gt;" style="text;html=1;strokeColor=none;fillColor=none;align=left;verticalAlign=middle;whiteSpace=wrap;rounded=0;" vertex="1" parent="1">
          <mxGeometry x="480" y="13900" width="100" height="100" as="geometry" />
        </mxCell>
        <mxCell id="aUaGgDCDCP8hp9Nu9wZe-26" value="" style="rounded=0;whiteSpace=wrap;html=1;fillColor=#d5e8d4;strokeColor=#82b366;" vertex="1" parent="1">
          <mxGeometry x="240" y="13650" width="240" height="170" as="geometry" />
        </mxCell>
        <mxCell id="aUaGgDCDCP8hp9Nu9wZe-27" value="" style="rounded=0;whiteSpace=wrap;html=1;fillColor=#5BCEFA;strokeColor=none;" vertex="1" parent="1">
          <mxGeometry x="350" y="13780" width="120" height="20" as="geometry" />
        </mxCell>
        <mxCell id="aUaGgDCDCP8hp9Nu9wZe-28" value="Olivia II Palafor" style="text;html=1;strokeColor=none;fillColor=none;align=center;verticalAlign=middle;whiteSpace=wrap;rounded=0;" vertex="1" parent="1">
          <mxGeometry x="350" y="13780" width="120" height="20" as="geometry" />
        </mxCell>
        <mxCell id="aUaGgDCDCP8hp9Nu9wZe-29" value="" style="rounded=0;whiteSpace=wrap;html=1;fillColor=#dae8fc;strokeColor=#6c8ebf;" vertex="1" parent="1">
          <mxGeometry y="13290" width="240" height="130" as="geometry" />
        </mxCell>
        <mxCell id="aUaGgDCDCP8hp9Nu9wZe-30" value="Junex I Dendron" style="text;html=1;strokeColor=none;fillColor=none;align=center;verticalAlign=middle;whiteSpace=wrap;rounded=0;" vertex="1" parent="1">
          <mxGeometry x="65" y="13290" width="110" height="20" as="geometry" />
        </mxCell>
        <mxCell id="aUaGgDCDCP8hp9Nu9wZe-31" value="" style="rounded=0;whiteSpace=wrap;html=1;fillColor=#dae8fc;strokeColor=#6c8ebf;" vertex="1" parent="1">
          <mxGeometry y="13420" width="239.5" height="280" as="geometry" />
        </mxCell>
        <mxCell id="aUaGgDCDCP8hp9Nu9wZe-32" value="Ellis IV Dendron" style="text;html=1;strokeColor=none;fillColor=none;align=center;verticalAlign=middle;whiteSpace=wrap;rounded=0;" vertex="1" parent="1">
          <mxGeometry x="74.87" y="13420" width="89.75" height="20" as="geometry" />
        </mxCell>
        <mxCell id="aUaGgDCDCP8hp9Nu9wZe-33" value="" style="rounded=0;whiteSpace=wrap;html=1;fillColor=#dae8fc;strokeColor=#6c8ebf;" vertex="1" parent="1">
          <mxGeometry y="13700" width="239.5" height="80" as="geometry" />
        </mxCell>
        <mxCell id="aUaGgDCDCP8hp9Nu9wZe-34" value="Elliot V Dendron" style="text;html=1;strokeColor=none;fillColor=none;align=center;verticalAlign=middle;whiteSpace=wrap;rounded=0;" vertex="1" parent="1">
          <mxGeometry x="75" y="13700" width="90" height="20" as="geometry" />
        </mxCell>
      </root>
    </mxGraphModel>
  </diagram>
</mxfile>
